<svg width="483" height="512" viewBox="0 0 483 512" fill="none" xmlns="http://www.w3.org/2000/svg">
<mask id="mask0" mask-type="alpha" maskUnits="userSpaceOnUse" x="21" y="73" width="440" height="439">
<path d="M241.371 512C362.558 512 460.8 413.758 460.8 292.571C460.8 171.384 362.558 73.1428 241.371 73.1428C120.184 73.1428 21.9429 171.384 21.9429 292.571C21.9429 413.758 120.184 512 241.371 512Z" fill="white"/>
</mask>
<g mask="url(#mask0)">
<path d="M241.371 512C362.558 512 460.8 413.758 460.8 292.571C460.8 171.384 362.558 73.1428 241.371 73.1428C120.184 73.1428 21.9429 171.384 21.9429 292.571C21.9429 413.758 120.184 512 241.371 512Z" fill="#E6E6E6"/>
<path d="M460.8 73.1428H21.9429V512H460.8V73.1428Z" fill="#65C9FF"/>
</g>
<mask id="mask1" mask-type="alpha" maskUnits="userSpaceOnUse" x="0" y="0" width="483" height="512">
<path d="M21.9429 292.571C21.9429 413.758 120.184 512 241.371 512C362.558 512 460.8 413.758 460.8 292.571H482.743V0H0V292.571H21.9429Z" fill="white"/>
</mask>
<g mask="url(#mask1)">
<mask id="mask2" mask-type="alpha" maskUnits="userSpaceOnUse" x="58" y="65" width="367" height="447">
<path d="M285.257 330.26V363.886H292.571C365.284 363.886 424.229 422.831 424.229 495.543V512H58.5143V495.543C58.5143 422.831 117.459 363.886 190.171 363.886H197.486V330.26C165.966 315.287 143.309 284.685 139.529 248.469C128.878 246.963 120.686 237.81 120.686 226.743V201.143C120.686 190.27 128.594 181.245 138.971 179.503V168.229C138.971 111.675 184.817 65.8286 241.371 65.8286C297.925 65.8286 343.771 111.675 343.771 168.229V179.503C354.149 181.245 362.057 190.27 362.057 201.143V226.743C362.057 237.81 353.865 246.963 343.213 248.469C339.434 284.685 316.777 315.287 285.257 330.26Z" fill="white"/>
</mask>
<g mask="url(#mask2)">
<path d="M285.257 330.26V363.886H292.571C365.284 363.886 424.229 422.831 424.229 495.543V512H58.5143V495.543C58.5143 422.831 117.459 363.886 190.171 363.886H197.486V330.26C165.966 315.287 143.309 284.685 139.529 248.469C128.878 246.963 120.686 237.81 120.686 226.743V201.143C120.686 190.27 128.594 181.245 138.971 179.503V168.229C138.971 111.675 184.817 65.8286 241.371 65.8286C297.925 65.8286 343.771 111.675 343.771 168.229V179.503C354.149 181.245 362.057 190.27 362.057 201.143V226.743C362.057 237.81 353.865 246.963 343.213 248.469C339.434 284.685 316.777 315.287 285.257 330.26Z" fill="#D0C6AC"/>
<path d="M541.257 65.8286H58.5143V577.829H541.257V65.8286Z" fill="#EDB98A"/>
<path fill-rule="evenodd" clip-rule="evenodd" d="M343.771 210.286V252.343C343.771 308.897 297.925 354.743 241.371 354.743C184.817 354.743 138.971 308.897 138.971 252.343V210.286V237.714C138.971 294.268 184.817 340.114 241.371 340.114C297.925 340.114 343.771 294.268 343.771 237.714V210.286Z" fill="black" fill-opacity="0.1"/>
</g>
<mask id="mask3" mask-type="alpha" maskUnits="userSpaceOnUse" x="58" y="364" width="367" height="148">
<path fill-rule="evenodd" clip-rule="evenodd" d="M303.471 364.425C371.084 369.966 424.229 426.595 424.229 495.637V512H58.5143V495.637C58.5143 425.97 112.625 368.942 181.112 364.287C181.056 364.97 181.029 365.658 181.029 366.35C181.029 388.042 208.454 405.628 242.286 405.628C276.117 405.628 303.543 388.042 303.543 366.35C303.543 365.705 303.519 365.063 303.471 364.425Z" fill="white"/>
</mask>
<g mask="url(#mask3)">
<path fill-rule="evenodd" clip-rule="evenodd" d="M303.471 364.425C371.084 369.966 424.229 426.595 424.229 495.637V512H58.5143V495.637C58.5143 425.97 112.625 368.942 181.112 364.287C181.056 364.97 181.029 365.658 181.029 366.35C181.029 388.042 208.454 405.628 242.286 405.628C276.117 405.628 303.543 388.042 303.543 366.35C303.543 365.705 303.519 365.063 303.471 364.425Z" fill="#E6E6E6"/>
<path d="M482.743 310.857H0V512H482.743V310.857Z" fill="#3C4F5C"/>
<g opacity="0.6">
<g opacity="0.6">
<path opacity="0.6" d="M242.286 418.307C282.313 418.307 314.761 396.273 314.761 369.093C314.761 341.913 282.313 319.879 242.286 319.879C202.258 319.879 169.81 341.913 169.81 369.093C169.81 396.273 202.258 418.307 242.286 418.307Z" fill="black" fill-opacity="0.16"/>
</g>
</g>
</g>
<g opacity="0.6">
<path opacity="0.6" fill-rule="evenodd" clip-rule="evenodd" d="M223.434 274.48C223.118 265.135 215.392 257.458 205.337 256C211.493 259.582 215.736 266.048 215.736 273.695C215.736 284.059 205.727 293.02 194.151 293.02C194.044 293.02 193.936 293.019 193.828 293.018H193.828C196.311 293.909 199.022 294.4 201.86 294.4C211.591 294.4 219.818 288.634 222.512 280.711C227.037 284.653 233.807 287.158 241.371 287.158C248.936 287.158 255.706 284.653 260.231 280.711C262.925 288.634 271.152 294.4 280.883 294.4C283.721 294.4 286.432 293.909 288.914 293.018C288.807 293.019 288.699 293.02 288.591 293.02C277.016 293.02 267.007 284.059 267.007 273.695C267.007 266.048 271.25 259.582 277.406 256C267.351 257.458 259.624 265.135 259.308 274.48C254.62 277.654 248.311 279.599 241.371 279.599C234.432 279.599 228.123 277.654 223.434 274.48Z" fill="black" fill-opacity="0.6"/>
</g>
<path d="M173.714 288.914C182.803 288.914 190.171 281.546 190.171 272.457C190.171 263.368 182.803 256 173.714 256C164.625 256 157.257 263.368 157.257 272.457C157.257 281.546 164.625 288.914 173.714 288.914Z" fill="#FF4646" fill-opacity="0.2"/>
<path d="M309.029 288.914C318.118 288.914 325.486 281.546 325.486 272.457C325.486 263.368 318.118 256 309.029 256C299.94 256 292.571 263.368 292.571 272.457C292.571 281.546 299.94 288.914 309.029 288.914Z" fill="#FF4646" fill-opacity="0.2"/>
<path fill-rule="evenodd" clip-rule="evenodd" d="M219.428 237.714C219.428 245.793 229.253 252.343 241.371 252.343C253.49 252.343 263.314 245.793 263.314 237.714" fill="black" fill-opacity="0.16"/>
<path fill-rule="evenodd" clip-rule="evenodd" d="M168.521 214.954C171.898 221.9 179.501 226.743 188.338 226.743C197.145 226.743 204.725 221.934 208.119 215.027C209.128 212.975 207.693 211.296 206.246 212.54C201.764 216.394 195.399 218.8 188.338 218.8C181.499 218.8 175.312 216.542 170.857 212.898C169.228 211.565 167.534 212.922 168.521 214.954Z" fill="black" fill-opacity="0.6"/>
<path fill-rule="evenodd" clip-rule="evenodd" d="M274.579 214.954C277.955 221.9 285.558 226.743 294.396 226.743C303.202 226.743 310.782 221.934 314.177 215.027C315.185 212.975 313.75 211.296 312.303 212.54C307.821 216.394 301.456 218.8 294.396 218.8C287.556 218.8 281.369 216.542 276.914 212.898C275.285 211.565 273.591 212.922 274.579 214.954Z" fill="black" fill-opacity="0.6"/>
<path fill-rule="evenodd" clip-rule="evenodd" d="M187.515 161.186C176.897 161.676 159.73 169.392 160.172 180.1C160.187 180.45 160.701 180.604 160.953 180.335C165.991 174.923 201.758 169.455 214.356 172.353C215.509 172.619 216.385 171.481 215.655 170.66C209.397 163.623 197.028 160.737 187.515 161.186Z" fill="black" fill-opacity="0.6"/>
<path fill-rule="evenodd" clip-rule="evenodd" d="M297.056 161.186C307.675 161.676 324.842 169.392 324.399 180.1C324.385 180.45 323.87 180.604 323.618 180.335C318.581 174.923 282.813 169.455 270.215 172.353C269.062 172.619 268.186 171.481 268.916 170.66C275.174 163.623 287.543 160.737 297.056 161.186Z" fill="black" fill-opacity="0.6"/>
<mask id="mask4" mask-type="alpha" maskUnits="userSpaceOnUse" x="0" y="0" width="483" height="512">
<path d="M482.743 0H0V512H482.743V0Z" fill="white"/>
</mask>
<g mask="url(#mask4)">
<path fill-rule="evenodd" clip-rule="evenodd" d="M191.972 50.7692C206.653 48.6891 222.713 47.543 239.543 47.543C258.483 47.543 276.449 48.9946 292.57 51.5954C333.626 70.8568 362.057 112.565 362.057 160.914V192.081C340.959 191.401 316.034 165.969 302.537 129.462C284 133.184 262.486 135.314 239.543 135.314C217.671 135.314 197.099 133.379 179.165 129.973C165.807 165.718 141.501 190.723 120.686 192.04V160.914C120.686 111.862 149.95 69.6449 191.972 50.7692Z" fill="black" fill-opacity="0.16"/>
<mask id="mask5" mask-type="alpha" maskUnits="userSpaceOnUse" x="43" y="18" width="396" height="347">
<path fill-rule="evenodd" clip-rule="evenodd" d="M132.982 181.429C125.7 184.999 120.686 192.485 120.686 201.143V224.914C120.686 235.92 128.788 245.033 139.353 246.614C142.54 283.639 165.429 315.032 197.486 330.26V363.886H190.171C187.271 363.886 184.392 363.98 181.538 364.164C172.548 359.57 164.155 353.972 156.508 347.518C148.629 349.84 140.289 351.086 131.657 351.086C83.1823 351.086 43.8857 311.789 43.8857 263.314C43.8857 236.966 55.4954 213.33 73.8783 197.241C64.215 183.965 58.5143 167.62 58.5143 149.943C58.5143 110.008 87.6091 76.8686 125.758 70.5656C137.177 40.0278 166.621 18.2858 201.143 18.2858C215.798 18.2858 229.537 22.2038 241.371 29.0495C253.206 22.2038 266.945 18.2858 281.6 18.2858C316.122 18.2858 345.566 40.0278 356.985 70.5656C395.134 76.8686 424.229 110.008 424.229 149.943C424.229 167.62 418.528 183.965 408.865 197.241C427.247 213.33 438.857 236.966 438.857 263.314C438.857 311.789 399.561 351.086 351.086 351.086C342.454 351.086 334.114 349.84 326.235 347.518C318.588 353.972 310.195 359.57 301.205 364.164C298.351 363.98 295.472 363.886 292.571 363.886H285.257V330.26C317.313 315.032 340.202 283.639 343.39 246.614C353.955 245.033 362.057 235.92 362.057 224.914V201.143C362.057 193.423 358.071 186.635 352.045 182.724C350.081 182.006 348.105 181.106 346.129 180.035C345.36 179.816 344.573 179.638 343.771 179.503V178.675C327.898 168.978 312.255 148.434 302.537 122.147C284 125.87 262.486 128 239.543 128C217.671 128 197.099 126.064 179.165 122.658C169.609 148.232 154.448 168.308 138.971 178.145V179.503C137.102 179.817 135.313 180.367 133.636 181.122C133.418 181.226 133.2 181.328 132.982 181.429Z" fill="white"/>
</mask>
<g mask="url(#mask5)">
<path fill-rule="evenodd" clip-rule="evenodd" d="M132.982 181.429C125.7 184.999 120.686 192.485 120.686 201.143V224.914C120.686 235.92 128.788 245.033 139.353 246.614C142.54 283.639 165.429 315.032 197.486 330.26V363.886H190.171C187.271 363.886 184.392 363.98 181.538 364.164C172.548 359.57 164.155 353.972 156.508 347.518C148.629 349.84 140.289 351.086 131.657 351.086C83.1823 351.086 43.8857 311.789 43.8857 263.314C43.8857 236.966 55.4954 213.33 73.8783 197.241C64.215 183.965 58.5143 167.62 58.5143 149.943C58.5143 110.008 87.6091 76.8686 125.758 70.5656C137.177 40.0278 166.621 18.2858 201.143 18.2858C215.798 18.2858 229.537 22.2038 241.371 29.0495C253.206 22.2038 266.945 18.2858 281.6 18.2858C316.122 18.2858 345.566 40.0278 356.985 70.5656C395.134 76.8686 424.229 110.008 424.229 149.943C424.229 167.62 418.528 183.965 408.865 197.241C427.247 213.33 438.857 236.966 438.857 263.314C438.857 311.789 399.561 351.086 351.086 351.086C342.454 351.086 334.114 349.84 326.235 347.518C318.588 353.972 310.195 359.57 301.205 364.164C298.351 363.98 295.472 363.886 292.571 363.886H285.257V330.26C317.313 315.032 340.202 283.639 343.39 246.614C353.955 245.033 362.057 235.92 362.057 224.914V201.143C362.057 193.423 358.071 186.635 352.045 182.724C350.081 182.006 348.105 181.106 346.129 180.035C345.36 179.816 344.573 179.638 343.771 179.503V178.675C327.898 168.978 312.255 148.434 302.537 122.147C284 125.87 262.486 128 239.543 128C217.671 128 197.099 126.064 179.165 122.658C169.609 148.232 154.448 168.308 138.971 178.145V179.503C137.102 179.817 135.313 180.367 133.636 181.122C133.418 181.226 133.2 181.328 132.982 181.429Z" fill="#314756"/>
<path d="M526.629 18.2858H43.8857V530.286H526.629V18.2858Z" fill="#4A312C"/>
</g>
</g>
</g>
<mask id="path-26-inside-1" fill="white">
<rect x="153" y="430" width="135" height="48" rx="2"/>
</mask>
<rect x="153" y="430" width="135" height="48" rx="2" stroke="white" stroke-width="6" mask="url(#path-26-inside-1)"/>
<path d="M189.891 465H185.203V442.25H189.891V465ZM205.578 455.344L214.484 458.484V462.859L201.031 457.156V453.469L214.484 447.766V452.141L205.578 455.344ZM222.609 451.625H225.016C226.161 451.625 227.01 451.339 227.562 450.766C228.115 450.193 228.391 449.432 228.391 448.484C228.391 447.568 228.115 446.854 227.562 446.344C227.021 445.833 226.271 445.578 225.312 445.578C224.448 445.578 223.724 445.818 223.141 446.297C222.557 446.766 222.266 447.38 222.266 448.141H217.75C217.75 446.953 218.068 445.891 218.703 444.953C219.349 444.005 220.245 443.266 221.391 442.734C222.547 442.203 223.818 441.938 225.203 441.938C227.609 441.938 229.495 442.516 230.859 443.672C232.224 444.818 232.906 446.401 232.906 448.422C232.906 449.464 232.589 450.422 231.953 451.297C231.318 452.172 230.484 452.844 229.453 453.312C230.734 453.771 231.688 454.458 232.312 455.375C232.948 456.292 233.266 457.375 233.266 458.625C233.266 460.646 232.526 462.266 231.047 463.484C229.578 464.703 227.63 465.312 225.203 465.312C222.932 465.312 221.073 464.714 219.625 463.516C218.188 462.318 217.469 460.734 217.469 458.766H221.984C221.984 459.62 222.302 460.318 222.938 460.859C223.583 461.401 224.375 461.672 225.312 461.672C226.385 461.672 227.224 461.391 227.828 460.828C228.443 460.255 228.75 459.5 228.75 458.562C228.75 456.292 227.5 455.156 225 455.156H222.609V451.625ZM262.703 457.422C262.526 459.87 261.62 461.797 259.984 463.203C258.359 464.609 256.214 465.312 253.547 465.312C250.63 465.312 248.333 464.333 246.656 462.375C244.99 460.406 244.156 457.708 244.156 454.281V452.891C244.156 450.703 244.542 448.776 245.312 447.109C246.083 445.443 247.182 444.167 248.609 443.281C250.047 442.385 251.714 441.938 253.609 441.938C256.234 441.938 258.349 442.641 259.953 444.047C261.557 445.453 262.484 447.427 262.734 449.969H258.047C257.932 448.5 257.521 447.438 256.812 446.781C256.115 446.115 255.047 445.781 253.609 445.781C252.047 445.781 250.875 446.344 250.094 447.469C249.323 448.583 248.927 450.318 248.906 452.672V454.391C248.906 456.849 249.276 458.646 250.016 459.781C250.766 460.917 251.943 461.484 253.547 461.484C254.995 461.484 256.073 461.156 256.781 460.5C257.5 459.833 257.911 458.807 258.016 457.422H262.703ZM277.578 459.031C277.578 458.146 277.266 457.469 276.641 457C276.016 456.521 274.891 456.021 273.266 455.5C271.641 454.969 270.354 454.448 269.406 453.938C266.823 452.542 265.531 450.661 265.531 448.297C265.531 447.068 265.875 445.974 266.562 445.016C267.26 444.047 268.255 443.292 269.547 442.75C270.849 442.208 272.307 441.938 273.922 441.938C275.547 441.938 276.995 442.234 278.266 442.828C279.536 443.411 280.521 444.24 281.219 445.312C281.927 446.385 282.281 447.604 282.281 448.969H277.594C277.594 447.927 277.266 447.12 276.609 446.547C275.953 445.964 275.031 445.672 273.844 445.672C272.698 445.672 271.807 445.917 271.172 446.406C270.536 446.885 270.219 447.521 270.219 448.312C270.219 449.052 270.589 449.672 271.328 450.172C272.078 450.672 273.177 451.141 274.625 451.578C277.292 452.38 279.234 453.375 280.453 454.562C281.672 455.75 282.281 457.229 282.281 459C282.281 460.969 281.536 462.516 280.047 463.641C278.557 464.755 276.552 465.312 274.031 465.312C272.281 465.312 270.688 464.995 269.25 464.359C267.812 463.714 266.714 462.833 265.953 461.719C265.203 460.604 264.828 459.312 264.828 457.844H269.531C269.531 460.354 271.031 461.609 274.031 461.609C275.146 461.609 276.016 461.385 276.641 460.938C277.266 460.479 277.578 459.844 277.578 459.031ZM297.266 459.031C297.266 458.146 296.953 457.469 296.328 457C295.703 456.521 294.578 456.021 292.953 455.5C291.328 454.969 290.042 454.448 289.094 453.938C286.51 452.542 285.219 450.661 285.219 448.297C285.219 447.068 285.562 445.974 286.25 445.016C286.948 444.047 287.943 443.292 289.234 442.75C290.536 442.208 291.995 441.938 293.609 441.938C295.234 441.938 296.682 442.234 297.953 442.828C299.224 443.411 300.208 444.24 300.906 445.312C301.615 446.385 301.969 447.604 301.969 448.969H297.281C297.281 447.927 296.953 447.12 296.297 446.547C295.641 445.964 294.719 445.672 293.531 445.672C292.385 445.672 291.495 445.917 290.859 446.406C290.224 446.885 289.906 447.521 289.906 448.312C289.906 449.052 290.276 449.672 291.016 450.172C291.766 450.672 292.865 451.141 294.312 451.578C296.979 452.38 298.922 453.375 300.141 454.562C301.359 455.75 301.969 457.229 301.969 459C301.969 460.969 301.224 462.516 299.734 463.641C298.245 464.755 296.24 465.312 293.719 465.312C291.969 465.312 290.375 464.995 288.938 464.359C287.5 463.714 286.401 462.833 285.641 461.719C284.891 460.604 284.516 459.312 284.516 457.844H289.219C289.219 460.354 290.719 461.609 293.719 461.609C294.833 461.609 295.703 461.385 296.328 460.938C296.953 460.479 297.266 459.844 297.266 459.031Z" fill="white"/>
</svg>
