<?xml version="1.0" ?><svg height="48" viewBox="0 0 48 48" width="48" xmlns="http://www.w3.org/2000/svg"><defs><style>.cls-1{fill:#d0d7df;}.cls-2{fill:#a4b0c0;}.cls-3{fill:#4c5665;}.cls-4{fill:#49aaee;}</style></defs><title/><g id="Finance"><rect class="cls-1" height="48" rx="2" ry="2" width="35" x="6"/><rect class="cls-2" height="5" rx="1" ry="1" width="5" x="9" y="39"/><rect class="cls-2" height="5" rx="1" ry="1" width="5" x="17" y="39"/><rect class="cls-2" height="5" rx="1" ry="1" width="5" x="25" y="39"/><rect class="cls-2" height="5" rx="1" ry="1" width="5" x="9" y="31"/><rect class="cls-2" height="5" rx="1" ry="1" width="5" x="17" y="31"/><rect class="cls-2" height="5" rx="1" ry="1" width="5" x="25" y="31"/><rect class="cls-2" height="5" rx="1" ry="1" width="5" x="9" y="23"/><rect class="cls-2" height="5" rx="1" ry="1" width="5" x="17" y="23"/><rect class="cls-2" height="5" rx="1" ry="1" width="5" x="25" y="23"/><rect class="cls-3" height="5" rx="1" ry="1" width="5" x="9" y="15"/><rect class="cls-2" height="5" rx="1" ry="1" width="5" x="9" y="15"/><rect class="cls-2" height="5" rx="1" ry="1" width="5" x="17" y="15"/><rect class="cls-2" height="5" rx="1" ry="1" width="5" x="25" y="15"/><rect class="cls-2" height="5" rx="1" ry="1" width="5" x="33" y="23"/><rect class="cls-2" height="5" rx="1" ry="1" width="5" x="33" y="15"/><rect class="cls-2" height="13" rx="1" ry="1" width="5" x="33" y="31"/><rect class="cls-4" height="9" width="29" x="9" y="3"/></g></svg>