<?xml version="1.0" encoding="iso-8859-1"?>
<!-- Generator: Adobe Illustrator 19.0.0, SVG Export Plug-In . SVG Version: 6.00 Build 0)  -->
<svg version="1.1" id="Layer_1" xmlns="http://www.w3.org/2000/svg" xmlns:xlink="http://www.w3.org/1999/xlink" x="0px" y="0px"
	 viewBox="0 0 512 512" style="enable-background:new 0 0 512 512;" xml:space="preserve">
<g>
	<g>
		<path style="fill:#D2D5D7;" d="M464.998,210.936c-1.508,48.035-7.885,104.597-35.086,150.342
			c46.378-15.937,63.469-59.774,63.469-96.154C493.382,239.403,481.084,217.08,464.998,210.936L464.998,210.936z M386.858,387.752
			l14.55-17.985c38.177-47.169,44.227-115.582,45.242-169.91l0.121-6.181l7.401-2.951l1.974-0.074
			c30.794,0,55.855,33.41,55.855,74.473c0,53.201-31.604,110.862-102.195,119.743L386.858,387.752z"/>
		<path style="fill:#D2D5D7;" d="M471.524,469.923l-127.088,9.495c-6.191,0.419-15.844,3.761-18.618,9.309
			c-2.97,5.93-4.189,9.309-10.817,9.309h-72.965h-82.255c-6.647,0-7.866-3.37-10.836-9.309c-2.765-5.53-12.456-8.853-18.618-9.309
			l-117.779-9.495C5.288,468.638,0,464.552,0,457.179c0-8.387,6.796-14.997,15.183-14.997H468.88
			c8.388,0,15.192,6.609,15.192,14.997C484.073,464.552,478.785,468.638,471.524,469.923"/>
	</g>
	<path style="fill:#E6E6E6;" d="M242.035,181.434L27.991,181.62c-5.167,0-9.421,4.003-9.374,9.169
		c1.043,120.776,24.166,251.299,223.418,251.299S464.41,311.566,465.453,190.79c0.047-5.167-4.208-9.169-9.374-9.169
		L242.035,181.434z"/>
	<path style="fill:#FFDEA9;" d="M242.035,181.434l167.564,0.149v-0.056c0-46.275-37.506-83.782-83.782-83.782
		c0-46.275-37.506-83.782-83.782-83.782s-83.782,37.506-83.782,83.782c-46.275,0-83.782,37.506-83.782,83.782v0.056L242.035,181.434
		z"/>
	<path style="fill:#D2D5D7;" d="M186.189,404.945c-0.521,0-1.033-0.037-1.564-0.13c-73.886-12.539-113.552-55.054-128.614-137.84
		c-0.931-5.055,2.42-9.905,7.485-10.826c5.055-0.856,9.905,2.43,10.817,7.494c13.638,74.91,47.56,111.635,113.422,122.815
		c5.073,0.856,8.481,5.669,7.624,10.733C194.586,401.734,190.648,404.945,186.189,404.945"/>
</g>
<g>
</g>
<g>
</g>
<g>
</g>
<g>
</g>
<g>
</g>
<g>
</g>
<g>
</g>
<g>
</g>
<g>
</g>
<g>
</g>
<g>
</g>
<g>
</g>
<g>
</g>
<g>
</g>
<g>
</g>
</svg>
