<svg width="1531" height="86" viewBox="0 0 1531 86" fill="none" xmlns="http://www.w3.org/2000/svg">
<g clip-path="url(#clip0)">
<g filter="url(#filter0_d)">
<path d="M35.145 71.177C34.1037 71.177 32.8967 70.5617 31.524 69.331C30.1513 68.1003 28.684 66.4673 27.122 64.432C25.6073 62.3967 24.0927 60.1957 22.578 57.829C21.1107 55.415 19.738 53.0247 18.46 50.658C17.2293 48.2913 16.188 46.185 15.336 44.339L8.449 66.633C8.11767 67.7217 7.597 68.479 6.887 68.905C6.177 69.3783 5.396 69.6623 4.544 69.757C3.73933 69.8517 2.93467 69.899 2.13 69.899C2.74533 68.5737 3.36067 67.059 3.976 65.355C4.63867 63.651 5.396 61.592 6.248 59.178C7.14733 56.764 8.18867 53.8293 9.372 50.374C10.5553 46.9187 11.9517 42.8007 13.561 38.02C15.2177 33.192 17.1583 27.5357 19.383 21.051C19.525 20.6723 19.7143 20.1517 19.951 19.489C20.1877 18.779 20.306 18.14 20.306 17.572C20.306 17.0513 20.1877 16.649 19.951 16.365C19.7143 16.0337 19.2647 15.868 18.602 15.868C17.466 15.868 16.3537 16.3413 15.265 17.288C14.2237 18.1873 13.277 19.347 12.425 20.767C11.6203 22.187 10.9813 23.6543 10.508 25.169C10.0347 26.6837 9.798 28.0327 9.798 29.216C9.798 30.1153 9.91633 30.92 10.153 31.63C8.591 31.63 7.47867 31.2513 6.816 30.494C6.20067 29.6893 5.893 28.719 5.893 27.583C5.893 25.9737 6.36633 24.3643 7.313 22.755C8.25967 21.1457 9.46667 19.6783 10.934 18.353C12.4487 16.9803 14.0107 15.8917 15.62 15.087C17.2767 14.2823 18.7677 13.88 20.093 13.88C21.371 13.88 22.223 14.235 22.649 14.945C23.1223 15.655 23.359 16.436 23.359 17.288C23.359 17.8087 23.288 18.3293 23.146 18.85C23.0513 19.3707 22.933 19.8677 22.791 20.341L16.827 39.653C17.4897 38.7063 18.3417 37.8307 19.383 37.026C20.4717 36.2213 21.655 35.2983 22.933 34.257C25.063 32.553 27.335 30.565 29.749 28.293C32.2103 26.021 34.5533 23.6307 36.778 21.122C39.0027 18.6133 40.8487 16.1993 42.316 13.88C42.5527 14.164 42.7183 14.661 42.813 15.371C42.9077 16.081 42.955 16.6253 42.955 17.004C42.955 18.4713 42.3397 20.0807 41.109 21.832C39.9257 23.5833 38.3637 25.4057 36.423 27.299C34.4823 29.145 32.3523 30.991 30.033 32.837C27.7137 34.6357 25.418 36.3397 23.146 37.949C20.9213 39.5583 18.9097 40.9547 17.111 42.138C18.531 44.552 19.9037 46.8477 21.229 49.025C22.6017 51.2023 24.069 53.3323 25.631 55.415C27.2403 57.4977 29.11 59.6277 31.24 61.805C33.37 63.9823 35.9497 66.3253 38.979 68.834C38.6477 69.4493 38.127 69.9937 37.417 70.467C36.707 70.9403 35.9497 71.177 35.145 71.177ZM45.7379 67.272C43.7025 67.272 42.2589 66.633 41.4069 65.355C40.5549 64.1243 40.1289 62.6097 40.1289 60.811C40.1289 59.3437 40.3655 57.829 40.8389 56.267C41.3122 54.705 41.9275 53.2377 42.6849 51.865C43.4895 50.4923 44.3652 49.38 45.3119 48.528C46.3059 47.676 47.2999 47.25 48.2939 47.25C48.7199 47.25 49.2169 47.3683 49.7849 47.605C49.3589 47.9837 48.8382 48.6937 48.2229 49.735C47.6549 50.729 47.1105 51.8887 46.5899 53.214C46.0692 54.492 45.6195 55.77 45.2409 57.048C44.9095 58.326 44.7439 59.4147 44.7439 60.314C44.7439 61.734 44.9805 62.7753 45.4539 63.438C45.9272 64.0533 46.5425 64.361 47.2999 64.361C48.2939 64.361 49.4772 63.8403 50.8499 62.799C52.2225 61.7103 53.5715 60.3377 54.8969 58.681C53.5715 57.5923 52.5302 56.1723 51.7729 54.421C51.0629 52.6223 50.7079 50.8 50.7079 48.954C50.7079 47.392 50.9682 45.9247 51.4889 44.552C52.0569 43.1793 52.8615 42.0907 53.9029 41.286C54.9442 40.434 56.1985 40.008 57.6659 40.008C59.6065 40.008 60.9082 40.5287 61.5709 41.57C62.2335 42.6113 62.5649 43.913 62.5649 45.475C62.5649 47.321 62.1152 49.38 61.2159 51.652C60.3165 53.8767 59.1805 56.0303 57.8079 58.113C58.6599 58.5863 59.5592 58.823 60.5059 58.823C61.5945 58.823 62.9199 58.468 64.4819 57.758C66.0439 57.0007 67.2509 55.6517 68.1029 53.711L68.9549 54.421C68.0082 56.6457 66.6592 58.2313 64.9079 59.178C63.2039 60.0773 61.5709 60.527 60.0089 60.527C58.7309 60.527 57.5949 60.2903 56.6009 59.817C54.9915 61.947 53.2165 63.722 51.2759 65.142C49.3825 66.562 47.5365 67.272 45.7379 67.272ZM56.1749 56.835C57.3582 55.0837 58.3285 53.2613 59.0859 51.368C59.8905 49.4273 60.2929 47.605 60.2929 45.901C60.2929 44.5283 60.0799 43.5343 59.6539 42.919C59.2752 42.2563 58.7782 41.925 58.1629 41.925C57.2162 41.925 56.2459 42.6113 55.2519 43.984C54.2579 45.3567 53.7609 47.0843 53.7609 49.167C53.7609 50.5397 53.9502 51.936 54.3289 53.356C54.7549 54.7287 55.3702 55.8883 56.1749 56.835ZM89.7035 66.42C88.0468 66.42 86.7925 65.994 85.9405 65.142C85.1358 64.29 84.7335 63.2013 84.7335 61.876C84.7335 60.882 84.8992 59.8407 85.2305 58.752C85.6092 57.6633 85.9642 56.551 86.2955 55.415C86.6268 54.2317 86.7925 53.0957 86.7925 52.007C86.7925 50.6817 86.5085 49.7823 85.9405 49.309C85.4198 48.7883 84.7572 48.528 83.9525 48.528C82.4852 48.528 80.9942 49.1433 79.4795 50.374C77.9648 51.5573 76.4975 53.0957 75.0775 54.989C73.6575 56.835 72.3322 58.752 71.1015 60.74C69.8708 62.728 68.7822 64.503 67.8355 66.065C67.0782 66.065 66.3682 65.923 65.7055 65.639C64.9955 65.4023 64.4512 65.0237 64.0725 64.503C64.0725 64.2663 64.3328 63.5327 64.8535 62.302C65.3268 61.0713 65.8948 59.5567 66.5575 57.758C67.2202 55.9593 67.8118 54.1133 68.3325 52.22C68.8532 50.3267 69.1135 48.599 69.1135 47.037C69.3975 46.7057 69.8472 46.3743 70.4625 46.043C71.0778 45.7117 71.7168 45.546 72.3795 45.546C73.6575 45.546 74.2965 46.1613 74.2965 47.392C74.2965 48.1493 74.0835 49.4273 73.6575 51.226C73.2315 52.9773 72.6872 54.8233 72.0245 56.764C73.3025 54.8233 74.7225 52.9063 76.2845 51.013C77.8938 49.0723 79.5978 47.463 81.3965 46.185C83.1952 44.907 84.9938 44.268 86.7925 44.268C88.6385 44.268 89.9638 44.9307 90.7685 46.256C91.6205 47.5813 92.0465 49.0487 92.0465 50.658C92.0465 52.1253 91.8098 53.498 91.3365 54.776C90.8632 56.0067 90.3662 57.2137 89.8455 58.397C89.3722 59.533 89.1355 60.6927 89.1355 61.876C89.1355 62.87 89.3248 63.58 89.7035 64.006C90.1295 64.3847 90.6502 64.574 91.2655 64.574C92.4488 64.574 93.6322 64.0297 94.8155 62.941C95.9988 61.805 97.1348 60.385 98.2235 58.681C99.3595 56.977 100.354 55.2493 101.206 53.498L101.987 54.421C100.519 57.8763 98.7678 60.74 96.7325 63.012C94.6972 65.284 92.3542 66.42 89.7035 66.42ZM122.777 66.42C121.12 66.42 119.866 65.994 119.014 65.142C118.209 64.29 117.807 63.2013 117.807 61.876C117.807 60.882 117.972 59.8407 118.304 58.752C118.682 57.6633 119.037 56.551 119.369 55.415C119.7 54.2317 119.866 53.0957 119.866 52.007C119.866 50.6817 119.582 49.7823 119.014 49.309C118.493 48.7883 117.83 48.528 117.026 48.528C115.558 48.528 114.067 49.1433 112.553 50.374C111.038 51.5573 109.571 53.0957 108.151 54.989C106.731 56.835 105.405 58.752 104.175 60.74C102.944 62.728 101.855 64.503 100.909 66.065C100.151 66.065 99.4414 65.923 98.7787 65.639C98.0687 65.4023 97.5244 65.0237 97.1457 64.503C97.1457 64.2663 97.4061 63.5327 97.9267 62.302C98.4001 61.0713 98.9681 59.5567 99.6307 57.758C100.293 55.9593 100.885 54.1133 101.406 52.22C101.926 50.3267 102.187 48.599 102.187 47.037C102.471 46.7057 102.92 46.3743 103.536 46.043C104.151 45.7117 104.79 45.546 105.453 45.546C106.731 45.546 107.37 46.1613 107.37 47.392C107.37 48.1493 107.157 49.4273 106.731 51.226C106.305 52.9773 105.76 54.8233 105.098 56.764C106.376 54.8233 107.796 52.9063 109.358 51.013C110.967 49.0723 112.671 47.463 114.47 46.185C116.268 44.907 118.067 44.268 119.866 44.268C121.712 44.268 123.037 44.9307 123.842 46.256C124.694 47.5813 125.12 49.0487 125.12 50.658C125.12 52.1253 124.883 53.498 124.41 54.776C123.936 56.0067 123.439 57.2137 122.919 58.397C122.445 59.533 122.209 60.6927 122.209 61.876C122.209 62.87 122.398 63.58 122.777 64.006C123.203 64.3847 123.723 64.574 124.339 64.574C125.522 64.574 126.705 64.0297 127.889 62.941C129.072 61.805 130.208 60.385 131.297 58.681C132.433 56.977 133.427 55.2493 134.279 53.498L135.06 54.421C133.592 57.8763 131.841 60.74 129.806 63.012C127.77 65.284 125.427 66.42 122.777 66.42ZM146.549 34.328C145.792 34.328 145.105 34.1387 144.49 33.76C143.922 33.3813 143.638 32.7897 143.638 31.985C143.638 30.991 144.206 30.139 145.342 29.429C146.525 28.6717 147.685 28.293 148.821 28.293C149.531 28.293 150.099 28.4587 150.525 28.79C150.951 29.1213 151.164 29.6893 151.164 30.494C151.164 31.3933 150.667 32.269 149.673 33.121C148.726 33.9257 147.685 34.328 146.549 34.328ZM138.029 66.846C136.183 66.846 134.81 66.2543 133.911 65.071C133.012 63.935 132.562 62.5387 132.562 60.882C132.562 59.7933 132.751 58.4207 133.13 56.764C133.556 55.1073 134.1 53.3797 134.763 51.581C135.426 49.735 136.183 48.0073 137.035 46.398C137.934 44.7887 138.881 43.487 139.875 42.493C140.869 41.4517 141.839 40.931 142.786 40.931C143.212 40.931 143.567 41.073 143.851 41.357C144.182 41.5937 144.348 41.9723 144.348 42.493C144.348 43.061 143.969 43.984 143.212 45.262C142.502 46.54 141.65 48.0073 140.656 49.664C139.662 51.3207 138.786 53.072 138.029 54.918C137.319 56.7167 136.964 58.4443 136.964 60.101C136.964 61.805 137.248 62.941 137.816 63.509C138.384 64.077 139.26 64.361 140.443 64.361C142.052 64.361 143.756 63.5563 145.555 61.947C147.401 60.3377 149.342 57.5213 151.377 53.498L152.016 54.208C150.643 58.2787 148.655 61.4027 146.052 63.58C143.496 65.7573 140.822 66.846 138.029 66.846ZM157.64 68.976C155.368 68.976 153.475 68.2187 151.96 66.704C150.445 65.1893 149.688 62.9173 149.688 59.888C149.688 57.5213 150.138 55.2257 151.037 53.001C151.984 50.729 153.214 48.6937 154.729 46.895C156.244 45.0963 157.924 43.6763 159.77 42.635C161.616 41.5463 163.438 41.002 165.237 41.002C167.178 41.002 168.503 41.57 169.213 42.706C169.923 43.842 170.278 45.0253 170.278 46.256C170.278 47.6287 169.947 48.8357 169.284 49.877C168.669 50.9183 167.817 51.439 166.728 51.439C165.923 51.439 165.237 51.084 164.669 50.374C165.379 49.9953 165.994 49.238 166.515 48.102C167.036 46.9187 167.296 45.8063 167.296 44.765C167.296 44.197 167.178 43.771 166.941 43.487C166.752 43.1557 166.349 42.99 165.734 42.99C164.456 42.99 163.131 43.558 161.758 44.694C160.433 45.83 159.178 47.2973 157.995 49.096C156.859 50.8947 155.912 52.788 155.155 54.776C154.445 56.764 154.09 58.6337 154.09 60.385C154.09 61.8523 154.445 63.2013 155.155 64.432C155.865 65.6627 157.238 66.278 159.273 66.278C161.166 66.278 163.06 65.7573 164.953 64.716C166.894 63.6747 168.692 62.1837 170.349 60.243C172.006 58.3023 173.331 56.0303 174.325 53.427L175.248 54.137C174.159 56.977 172.668 59.533 170.775 61.805C168.882 64.0297 166.799 65.781 164.527 67.059C162.255 68.337 159.959 68.976 157.64 68.976ZM176.33 67.698C175.431 67.698 174.721 66.9407 174.2 65.426C173.679 63.9113 173.419 62.2073 173.419 60.314C173.419 58.042 173.798 55.344 174.555 52.22C175.312 49.096 176.306 45.8063 177.537 42.351C178.768 38.8957 180.14 35.5113 181.655 32.198C183.217 28.8847 184.803 25.879 186.412 23.181C188.021 20.483 189.536 18.3293 190.956 16.72C192.376 15.1107 193.607 14.306 194.648 14.306C195.5 14.306 196.092 14.8267 196.423 15.868C196.802 16.862 196.991 17.8323 196.991 18.779C196.991 20.1043 196.683 21.7137 196.068 23.607C195.5 25.5003 194.695 27.5357 193.654 29.713C192.613 31.843 191.406 33.9493 190.033 36.032C188.66 38.1147 187.169 40.0317 185.56 41.783C183.951 43.487 182.318 44.836 180.661 45.83C180.093 47.2027 179.596 48.741 179.17 50.445C178.791 52.149 178.507 53.8293 178.318 55.486C178.129 57.0953 178.034 58.539 178.034 59.817C178.034 60.3377 178.034 60.7873 178.034 61.166C178.081 61.5447 178.129 61.8997 178.176 62.231C179.312 58.965 180.59 55.9357 182.01 53.143C183.43 50.3503 185.016 48.102 186.767 46.398C188.566 44.694 190.506 43.842 192.589 43.842C194.53 43.842 195.902 44.5283 196.707 45.901C197.559 47.2263 197.985 48.67 197.985 50.232C197.985 51.6993 197.725 53.1193 197.204 54.492C196.731 55.8647 196.234 57.19 195.713 58.468C195.192 59.746 194.932 60.9767 194.932 62.16C194.932 63.1067 195.121 63.793 195.5 64.219C195.926 64.645 196.447 64.858 197.062 64.858C198.151 64.858 199.358 64.3373 200.683 63.296C202.056 62.2547 203.405 60.882 204.73 59.178C206.055 57.4267 207.191 55.5333 208.138 53.498L209.061 54.35C208.067 56.6693 206.86 58.7757 205.44 60.669C204.02 62.515 202.458 63.9823 200.754 65.071C199.05 66.1597 197.275 66.704 195.429 66.704C193.82 66.704 192.589 66.278 191.737 65.426C190.932 64.574 190.53 63.509 190.53 62.231C190.53 61.237 190.719 60.1247 191.098 58.894C191.477 57.6633 191.832 56.409 192.163 55.131C192.542 53.853 192.731 52.646 192.731 51.51C192.731 50.2793 192.471 49.4037 191.95 48.883C191.429 48.3623 190.79 48.102 190.033 48.102C188.85 48.102 187.785 48.5753 186.838 49.522C185.891 50.4687 185.016 51.6993 184.211 53.214C183.454 54.6813 182.72 56.2433 182.01 57.9C181.347 59.5567 180.708 61.1423 180.093 62.657C179.478 64.1243 178.862 65.3313 178.247 66.278C177.632 67.2247 176.993 67.698 176.33 67.698ZM181.584 43.061C182.909 42.0197 184.187 40.6943 185.418 39.085C186.696 37.4757 187.879 35.7717 188.968 33.973C190.057 32.127 191.027 30.3283 191.879 28.577C192.731 26.8257 193.394 25.24 193.867 23.82C194.34 22.4 194.577 21.335 194.577 20.625C194.577 20.2463 194.482 20.057 194.293 20.057C193.962 20.057 193.275 20.7197 192.234 22.045C191.24 23.323 190.08 25.0507 188.755 27.228C187.43 29.4053 186.128 31.8667 184.85 34.612C183.572 37.3573 182.483 40.1737 181.584 43.061ZM220.392 34.328C219.634 34.328 218.948 34.1387 218.333 33.76C217.765 33.3813 217.481 32.7897 217.481 31.985C217.481 30.991 218.049 30.139 219.185 29.429C220.368 28.6717 221.528 28.293 222.664 28.293C223.374 28.293 223.942 28.4587 224.368 28.79C224.794 29.1213 225.007 29.6893 225.007 30.494C225.007 31.3933 224.51 32.269 223.516 33.121C222.569 33.9257 221.528 34.328 220.392 34.328ZM211.872 66.846C210.026 66.846 208.653 66.2543 207.754 65.071C206.854 63.935 206.405 62.5387 206.405 60.882C206.405 59.7933 206.594 58.4207 206.973 56.764C207.399 55.1073 207.943 53.3797 208.606 51.581C209.268 49.735 210.026 48.0073 210.878 46.398C211.777 44.7887 212.724 43.487 213.718 42.493C214.712 41.4517 215.682 40.931 216.629 40.931C217.055 40.931 217.41 41.073 217.694 41.357C218.025 41.5937 218.191 41.9723 218.191 42.493C218.191 43.061 217.812 43.984 217.055 45.262C216.345 46.54 215.493 48.0073 214.499 49.664C213.505 51.3207 212.629 53.072 211.872 54.918C211.162 56.7167 210.807 58.4443 210.807 60.101C210.807 61.805 211.091 62.941 211.659 63.509C212.227 64.077 213.102 64.361 214.286 64.361C215.895 64.361 217.599 63.5563 219.398 61.947C221.244 60.3377 223.184 57.5213 225.22 53.498L225.859 54.208C224.486 58.2787 222.498 61.4027 219.895 63.58C217.339 65.7573 214.664 66.846 211.872 66.846ZM243.908 67.769C242.44 67.769 241.423 67.0827 240.855 65.71C240.334 64.3847 240.074 62.7753 240.074 60.882C240.074 59.9353 240.121 58.9177 240.216 57.829C240.31 56.693 240.429 55.5807 240.571 54.492C239.529 56.5747 238.393 58.5863 237.163 60.527C235.979 62.4677 234.725 64.0533 233.4 65.284C232.074 66.5147 230.678 67.13 229.211 67.13C227.649 67.13 226.371 66.42 225.377 65C224.383 63.58 223.886 61.8997 223.886 59.959C223.886 58.5863 224.099 57.0007 224.525 55.202C224.998 53.4033 225.566 51.6283 226.229 49.877C226.891 48.1257 227.578 46.682 228.288 45.546C228.998 44.41 229.613 43.842 230.134 43.842C230.37 43.842 230.867 43.984 231.625 44.268C232.382 44.5047 232.761 44.836 232.761 45.262C232.24 46.0667 231.601 47.2973 230.844 48.954C230.086 50.6107 229.424 52.4093 228.856 54.35C228.288 56.2433 228.004 57.971 228.004 59.533C228.004 59.9117 228.051 60.5033 228.146 61.308C228.24 62.0653 228.453 62.7517 228.785 63.367C229.163 63.9823 229.731 64.29 230.489 64.29C231.577 64.29 232.737 63.6037 233.968 62.231C235.198 60.8583 236.429 59.1307 237.66 57.048C238.89 54.9653 240.05 52.859 241.139 50.729C241.517 48.7883 241.825 47.3683 242.062 46.469C242.346 45.5697 242.63 45.0017 242.914 44.765C243.198 44.481 243.553 44.339 243.979 44.339C244.594 44.339 245.091 44.481 245.47 44.765C245.848 45.0017 246.038 45.3803 246.038 45.901C246.038 46.043 245.99 46.3033 245.896 46.682C245.564 47.818 245.233 49.2617 244.902 51.013C244.618 52.717 244.381 54.492 244.192 56.338C244.002 58.184 243.908 59.9117 243.908 61.521C243.908 63.8403 244.428 65 245.47 65C246.18 65 247.008 64.574 247.955 63.722C248.901 62.8227 249.872 61.663 250.866 60.243C251.907 58.7757 252.901 57.19 253.848 55.486C254.842 53.782 255.717 52.1017 256.475 50.445C256.475 47.9837 256.64 46.114 256.972 44.836C257.35 43.5107 257.8 42.6113 258.321 42.138C258.889 41.6647 259.457 41.428 260.025 41.428C260.924 41.428 261.563 41.7593 261.942 42.422C262.368 43.0373 262.581 43.6053 262.581 44.126C262.581 44.4573 262.51 44.8123 262.368 45.191C262.226 45.5223 262.036 45.901 261.8 46.327C261.421 47.037 261.042 47.96 260.664 49.096C260.285 50.1847 260.096 51.6993 260.096 53.64C260.096 54.3973 260.167 55.202 260.309 56.054C260.451 56.906 260.758 57.616 261.232 58.184C261.705 58.752 262.439 59.036 263.433 59.036C264.427 59.036 265.373 58.6573 266.273 57.9C267.219 57.0953 268.142 55.7227 269.042 53.782L269.965 54.492C268.923 56.8587 267.764 58.4443 266.486 59.249C265.255 60.0537 264.072 60.456 262.936 60.456C259.906 60.456 257.918 58.468 256.972 54.492C255.788 56.6693 254.463 58.7757 252.996 60.811C251.528 62.8463 250.014 64.503 248.452 65.781C246.89 67.1063 245.375 67.769 243.908 67.769ZM271.114 68.337C269.647 68.337 268.416 67.84 267.422 66.846C266.381 65.8993 265.86 64.432 265.86 62.444C265.86 60.74 266.239 58.9177 266.996 56.977C267.753 54.989 268.795 53.0483 270.12 51.155C271.445 49.2143 272.936 47.463 274.593 45.901C276.297 44.2917 278.072 43.0137 279.918 42.067C281.811 41.1203 283.681 40.647 285.527 40.647C287.373 40.647 288.911 41.144 290.142 42.138C291.373 43.0847 291.988 44.3627 291.988 45.972C291.988 47.1553 291.657 47.96 290.994 48.386C290.379 48.812 289.55 49.025 288.509 49.025C288.746 48.173 288.864 47.3447 288.864 46.54C288.864 45.4513 288.604 44.5283 288.083 43.771C287.562 42.9663 286.663 42.564 285.385 42.564C284.06 42.564 282.711 43.0373 281.338 43.984C279.965 44.8833 278.64 46.114 277.362 47.676C276.084 49.1907 274.948 50.8473 273.954 52.646C272.96 54.4447 272.179 56.2197 271.611 57.971C271.043 59.7223 270.759 61.2843 270.759 62.657C270.759 64.503 271.398 65.426 272.676 65.426C273.765 65.426 274.948 64.929 276.226 63.935C277.504 62.8937 278.806 61.592 280.131 60.03C281.504 58.4207 282.805 56.764 284.036 55.06C285.267 53.356 286.355 51.794 287.302 50.374C287.491 50.09 287.61 49.948 287.657 49.948C288.083 49.9953 288.651 50.1847 289.361 50.516C290.071 50.8 290.426 51.2023 290.426 51.723C290.426 52.149 290.213 52.7407 289.787 53.498C289.361 54.208 288.888 55.0363 288.367 55.983C287.846 56.9297 287.373 57.9 286.947 58.894C286.521 59.8407 286.308 60.74 286.308 61.592C286.308 62.302 286.497 63.012 286.876 63.722C287.255 64.3847 287.87 64.716 288.722 64.716C290 64.716 291.68 63.793 293.763 61.947C295.846 60.0537 297.952 57.2373 300.082 53.498L300.792 54.208C299.798 56.764 298.52 59.0123 296.958 60.953C295.396 62.8937 293.716 64.4083 291.917 65.497C290.166 66.5857 288.438 67.13 286.734 67.13C284.983 67.13 283.681 66.6093 282.829 65.568C282.024 64.5267 281.622 63.3907 281.622 62.16C281.622 61.5447 281.693 60.8583 281.835 60.101C279.8 62.8463 277.93 64.9053 276.226 66.278C274.569 67.6507 272.865 68.337 271.114 68.337ZM299.127 71.248C298.701 71.0113 298.393 70.6563 298.204 70.183C298.015 69.7097 297.92 69.189 297.92 68.621C297.92 67.6743 298.133 66.5857 298.559 65.355C298.985 64.1717 299.529 63.154 300.192 62.302C300.855 61.45 301.541 61.024 302.251 61.024C302.724 61.024 303.127 61.237 303.458 61.663C303.837 62.0417 304.026 62.4913 304.026 63.012C302.701 64.3847 301.707 65.7573 301.044 67.13C300.429 68.5027 299.79 69.8753 299.127 71.248ZM351.032 67.769C349.564 67.769 348.547 67.0827 347.979 65.71C347.458 64.3847 347.198 62.7753 347.198 60.882C347.198 59.9353 347.245 58.9177 347.34 57.829C347.434 56.693 347.553 55.5807 347.695 54.492C346.653 56.5747 345.517 58.5863 344.287 60.527C343.103 62.4677 341.849 64.0533 340.524 65.284C339.198 66.5147 337.802 67.13 336.335 67.13C334.773 67.13 333.495 66.42 332.501 65C331.507 63.58 331.01 61.8997 331.01 59.959C331.01 58.5863 331.223 57.0007 331.649 55.202C332.122 53.4033 332.69 51.6283 333.353 49.877C334.015 48.1257 334.702 46.682 335.412 45.546C336.122 44.41 336.737 43.842 337.258 43.842C337.494 43.842 337.991 43.984 338.749 44.268C339.506 44.5047 339.885 44.836 339.885 45.262C339.364 46.0667 338.725 47.2973 337.968 48.954C337.21 50.6107 336.548 52.4093 335.98 54.35C335.412 56.2433 335.128 57.971 335.128 59.533C335.128 59.9117 335.175 60.5033 335.27 61.308C335.364 62.0653 335.577 62.7517 335.909 63.367C336.287 63.9823 336.855 64.29 337.613 64.29C338.701 64.29 339.861 63.6037 341.092 62.231C342.322 60.8583 343.553 59.1307 344.784 57.048C346.014 54.9653 347.174 52.859 348.263 50.729C348.641 48.7883 348.949 47.3683 349.186 46.469C349.47 45.5697 349.754 45.0017 350.038 44.765C350.322 44.481 350.677 44.339 351.103 44.339C351.718 44.339 352.215 44.481 352.594 44.765C352.972 45.0017 353.162 45.3803 353.162 45.901C353.162 46.043 353.114 46.3033 353.02 46.682C352.688 47.818 352.357 49.2617 352.026 51.013C351.742 52.717 351.505 54.492 351.316 56.338C351.126 58.184 351.032 59.9117 351.032 61.521C351.032 63.8403 351.552 65 352.594 65C353.304 65 354.132 64.574 355.079 63.722C356.025 62.8227 356.996 61.663 357.99 60.243C359.031 58.7757 360.025 57.19 360.972 55.486C361.966 53.782 362.841 52.1017 363.599 50.445C363.599 47.9837 363.764 46.114 364.096 44.836C364.474 43.5107 364.924 42.6113 365.445 42.138C366.013 41.6647 366.581 41.428 367.149 41.428C368.048 41.428 368.687 41.7593 369.066 42.422C369.492 43.0373 369.705 43.6053 369.705 44.126C369.705 44.4573 369.634 44.8123 369.492 45.191C369.35 45.5223 369.16 45.901 368.924 46.327C368.545 47.037 368.166 47.96 367.788 49.096C367.409 50.1847 367.22 51.6993 367.22 53.64C367.22 54.3973 367.291 55.202 367.433 56.054C367.575 56.906 367.882 57.616 368.356 58.184C368.829 58.752 369.563 59.036 370.557 59.036C371.551 59.036 372.497 58.6573 373.397 57.9C374.343 57.0953 375.266 55.7227 376.166 53.782L377.089 54.492C376.047 56.8587 374.888 58.4443 373.61 59.249C372.379 60.0537 371.196 60.456 370.06 60.456C367.03 60.456 365.042 58.468 364.096 54.492C362.912 56.6693 361.587 58.7757 360.12 60.811C358.652 62.8463 357.138 64.503 355.576 65.781C354.014 67.1063 352.499 67.769 351.032 67.769ZM378.238 68.337C376.771 68.337 375.54 67.84 374.546 66.846C373.505 65.8993 372.984 64.432 372.984 62.444C372.984 60.74 373.363 58.9177 374.12 56.977C374.877 54.989 375.919 53.0483 377.244 51.155C378.569 49.2143 380.06 47.463 381.717 45.901C383.421 44.2917 385.196 43.0137 387.042 42.067C388.935 41.1203 390.805 40.647 392.651 40.647C394.497 40.647 396.035 41.144 397.266 42.138C398.497 43.0847 399.112 44.3627 399.112 45.972C399.112 47.1553 398.781 47.96 398.118 48.386C397.503 48.812 396.674 49.025 395.633 49.025C395.87 48.173 395.988 47.3447 395.988 46.54C395.988 45.4513 395.728 44.5283 395.207 43.771C394.686 42.9663 393.787 42.564 392.509 42.564C391.184 42.564 389.835 43.0373 388.462 43.984C387.089 44.8833 385.764 46.114 384.486 47.676C383.208 49.1907 382.072 50.8473 381.078 52.646C380.084 54.4447 379.303 56.2197 378.735 57.971C378.167 59.7223 377.883 61.2843 377.883 62.657C377.883 64.503 378.522 65.426 379.8 65.426C380.889 65.426 382.072 64.929 383.35 63.935C384.628 62.8937 385.93 61.592 387.255 60.03C388.628 58.4207 389.929 56.764 391.16 55.06C392.391 53.356 393.479 51.794 394.426 50.374C394.615 50.09 394.734 49.948 394.781 49.948C395.207 49.9953 395.775 50.1847 396.485 50.516C397.195 50.8 397.55 51.2023 397.55 51.723C397.55 52.149 397.337 52.7407 396.911 53.498C396.485 54.208 396.012 55.0363 395.491 55.983C394.97 56.9297 394.497 57.9 394.071 58.894C393.645 59.8407 393.432 60.74 393.432 61.592C393.432 62.302 393.621 63.012 394 63.722C394.379 64.3847 394.994 64.716 395.846 64.716C397.124 64.716 398.804 63.793 400.887 61.947C402.97 60.0537 405.076 57.2373 407.206 53.498L407.916 54.208C406.922 56.764 405.644 59.0123 404.082 60.953C402.52 62.8937 400.84 64.4083 399.041 65.497C397.29 66.5857 395.562 67.13 393.858 67.13C392.107 67.13 390.805 66.6093 389.953 65.568C389.148 64.5267 388.746 63.3907 388.746 62.16C388.746 61.5447 388.817 60.8583 388.959 60.101C386.924 62.8463 385.054 64.9053 383.35 66.278C381.693 67.6507 379.989 68.337 378.238 68.337ZM411.789 68.266C407.576 68.266 405.47 65.923 405.47 61.237C405.47 59.1543 405.849 56.5983 406.606 53.569C407.411 50.4923 408.405 47.3447 409.588 44.126C409.115 44.0313 408.665 43.9603 408.239 43.913C407.813 43.8183 407.411 43.7 407.032 43.558V42.28C407.411 42.3273 407.86 42.3747 408.381 42.422C408.902 42.4693 409.493 42.5167 410.156 42.564C411.15 40.008 412.215 37.5467 413.351 35.18C414.487 32.766 415.599 30.636 416.688 28.79C417.824 26.8967 418.889 25.4057 419.883 24.317C420.924 23.181 421.8 22.613 422.51 22.613C422.889 22.613 423.22 22.755 423.504 23.039C423.835 23.2757 424.001 23.6543 424.001 24.175C424.001 24.9797 423.504 26.305 422.51 28.151C421.516 29.9497 420.285 32.1033 418.818 34.612C417.351 37.1207 415.931 39.8423 414.558 42.777H417.185C418.747 42.777 420.38 42.7533 422.084 42.706C423.835 42.6587 425.587 42.5403 427.338 42.351V43.629C422.179 44.197 418.013 44.481 414.842 44.481H413.777C412.688 46.9897 411.765 49.5693 411.008 52.22C410.251 54.8707 409.872 57.4503 409.872 59.959C409.872 61.9943 410.18 63.4617 410.795 64.361C411.41 65.213 412.428 65.639 413.848 65.639C416.309 65.639 418.723 64.5503 421.09 62.373C423.457 60.1957 425.539 57.2373 427.338 53.498L428.261 54.208C427.125 56.8587 425.681 59.249 423.93 61.379C422.226 63.509 420.333 65.1893 418.25 66.42C416.167 67.6507 414.014 68.266 411.789 68.266ZM429.408 68.337C427.941 68.337 426.71 67.84 425.716 66.846C424.675 65.8993 424.154 64.432 424.154 62.444C424.154 60.74 424.533 58.9177 425.29 56.977C426.047 54.989 427.089 53.0483 428.414 51.155C429.739 49.2143 431.23 47.463 432.887 45.901C434.591 44.2917 436.366 43.0137 438.212 42.067C440.105 41.1203 441.975 40.647 443.821 40.647C445.667 40.647 447.205 41.144 448.436 42.138C449.667 43.0847 450.282 44.3627 450.282 45.972C450.282 47.1553 449.951 47.96 449.288 48.386C448.673 48.812 447.844 49.025 446.803 49.025C447.04 48.173 447.158 47.3447 447.158 46.54C447.158 45.4513 446.898 44.5283 446.377 43.771C445.856 42.9663 444.957 42.564 443.679 42.564C442.354 42.564 441.005 43.0373 439.632 43.984C438.259 44.8833 436.934 46.114 435.656 47.676C434.378 49.1907 433.242 50.8473 432.248 52.646C431.254 54.4447 430.473 56.2197 429.905 57.971C429.337 59.7223 429.053 61.2843 429.053 62.657C429.053 64.503 429.692 65.426 430.97 65.426C432.059 65.426 433.242 64.929 434.52 63.935C435.798 62.8937 437.1 61.592 438.425 60.03C439.798 58.4207 441.099 56.764 442.33 55.06C443.561 53.356 444.649 51.794 445.596 50.374C445.785 50.09 445.904 49.948 445.951 49.948C446.377 49.9953 446.945 50.1847 447.655 50.516C448.365 50.8 448.72 51.2023 448.72 51.723C448.72 52.149 448.507 52.7407 448.081 53.498C447.655 54.208 447.182 55.0363 446.661 55.983C446.14 56.9297 445.667 57.9 445.241 58.894C444.815 59.8407 444.602 60.74 444.602 61.592C444.602 62.302 444.791 63.012 445.17 63.722C445.549 64.3847 446.164 64.716 447.016 64.716C448.294 64.716 449.974 63.793 452.057 61.947C454.14 60.0537 456.246 57.2373 458.376 53.498L459.086 54.208C458.092 56.764 456.814 59.0123 455.252 60.953C453.69 62.8937 452.01 64.4083 450.211 65.497C448.46 66.5857 446.732 67.13 445.028 67.13C443.277 67.13 441.975 66.6093 441.123 65.568C440.318 64.5267 439.916 63.3907 439.916 62.16C439.916 61.5447 439.987 60.8583 440.129 60.101C438.094 62.8463 436.224 64.9053 434.52 66.278C432.863 67.6507 431.159 68.337 429.408 68.337ZM464.379 68.621C462.154 68.621 460.379 68.124 459.054 67.13C457.776 66.1833 456.876 65 456.356 63.58C455.788 62.16 455.504 60.74 455.504 59.32C455.504 57.9 455.693 56.8113 456.072 56.054C456.45 55.2967 456.9 54.7287 457.421 54.35C457.989 53.9713 458.509 53.6873 458.983 53.498C459.503 53.3087 459.858 53.1193 460.048 52.93C461.468 51.368 462.769 49.735 463.953 48.031C465.136 46.327 466.177 44.5283 467.077 42.635V41.783C467.077 40.0317 467.361 38.801 467.929 38.091C468.544 37.3337 469.183 36.955 469.846 36.955C470.603 36.955 470.982 37.2627 470.982 37.878C470.982 38.1147 470.911 38.4933 470.769 39.014C470.627 39.5347 470.556 40.1973 470.556 41.002C470.556 42.564 470.863 44.268 471.479 46.114C472.094 47.9127 472.709 49.8297 473.325 51.865C473.94 53.853 474.248 55.9357 474.248 58.113C474.248 59.3437 474.106 60.5033 473.822 61.592C475.478 61.308 477.04 60.5743 478.508 59.391C479.975 58.1603 481.395 56.2197 482.768 53.569L483.407 54.279C482.507 56.8823 481.158 58.8703 479.36 60.243C477.561 61.5683 475.597 62.3967 473.467 62.728C472.709 64.7633 471.502 66.2543 469.846 67.201C468.236 68.1477 466.414 68.621 464.379 68.621ZM469.349 61.521C469.443 61.0477 469.514 60.5507 469.562 60.03C469.609 59.5093 469.633 58.894 469.633 58.184C469.633 55.9593 469.349 53.7583 468.781 51.581C468.26 49.3563 467.81 47.2737 467.432 45.333C466.343 47.1317 465.183 48.8593 463.953 50.516C462.769 52.1253 461.633 53.4743 460.545 54.563C461.255 56.0777 462.343 57.4977 463.811 58.823C465.325 60.1483 467.171 61.0477 469.349 61.521ZM464.521 66.136C465.089 66.136 465.846 65.9467 466.793 65.568C467.739 65.1893 468.473 64.219 468.994 62.657C467.006 62.2783 465.231 61.4973 463.669 60.314C462.154 59.1307 461.018 57.9473 460.261 56.764C459.219 56.8113 458.699 57.6397 458.699 59.249C458.699 60.953 459.196 62.5387 460.19 64.006C461.231 65.426 462.675 66.136 464.521 66.136ZM484.736 67.698C483.837 67.698 483.127 66.9407 482.606 65.426C482.086 63.9113 481.825 62.2073 481.825 60.314C481.825 58.042 482.204 55.344 482.961 52.22C483.719 49.096 484.713 45.8063 485.943 42.351C487.174 38.8957 488.547 35.5113 490.061 32.198C491.623 28.8847 493.209 25.879 494.818 23.181C496.428 20.483 497.942 18.3293 499.362 16.72C500.782 15.1107 502.013 14.306 503.054 14.306C503.906 14.306 504.498 14.8267 504.829 15.868C505.208 16.862 505.397 17.8323 505.397 18.779C505.397 20.1043 505.09 21.7137 504.474 23.607C503.906 25.5003 503.102 27.5357 502.06 29.713C501.019 31.843 499.812 33.9493 498.439 36.032C497.067 38.1147 495.576 40.0317 493.966 41.783C492.357 43.487 490.724 44.836 489.067 45.83C488.499 47.2027 488.002 48.741 487.576 50.445C487.198 52.149 486.914 53.8293 486.724 55.486C486.535 57.0953 486.44 58.539 486.44 59.817C486.44 60.3377 486.44 60.7873 486.44 61.166C486.488 61.5447 486.535 61.8997 486.582 62.231C487.718 58.965 488.996 55.9357 490.416 53.143C491.836 50.3503 493.422 48.102 495.173 46.398C496.972 44.694 498.913 43.842 500.995 43.842C502.936 43.842 504.309 44.5283 505.113 45.901C505.965 47.2263 506.391 48.67 506.391 50.232C506.391 51.6993 506.131 53.1193 505.61 54.492C505.137 55.8647 504.64 57.19 504.119 58.468C503.599 59.746 503.338 60.9767 503.338 62.16C503.338 63.1067 503.528 63.793 503.906 64.219C504.332 64.645 504.853 64.858 505.468 64.858C506.557 64.858 507.764 64.3373 509.089 63.296C510.462 62.2547 511.811 60.882 513.136 59.178C514.462 57.4267 515.598 55.5333 516.544 53.498L517.467 54.35C516.473 56.6693 515.266 58.7757 513.846 60.669C512.426 62.515 510.864 63.9823 509.16 65.071C507.456 66.1597 505.681 66.704 503.835 66.704C502.226 66.704 500.995 66.278 500.143 65.426C499.339 64.574 498.936 63.509 498.936 62.231C498.936 61.237 499.126 60.1247 499.504 58.894C499.883 57.6633 500.238 56.409 500.569 55.131C500.948 53.853 501.137 52.646 501.137 51.51C501.137 50.2793 500.877 49.4037 500.356 48.883C499.836 48.3623 499.197 48.102 498.439 48.102C497.256 48.102 496.191 48.5753 495.244 49.522C494.298 50.4687 493.422 51.6993 492.617 53.214C491.86 54.6813 491.126 56.2433 490.416 57.9C489.754 59.5567 489.115 61.1423 488.499 62.657C487.884 64.1243 487.269 65.3313 486.653 66.278C486.038 67.2247 485.399 67.698 484.736 67.698ZM489.99 43.061C491.316 42.0197 492.594 40.6943 493.824 39.085C495.102 37.4757 496.286 35.7717 497.374 33.973C498.463 32.127 499.433 30.3283 500.285 28.577C501.137 26.8257 501.8 25.24 502.273 23.82C502.747 22.4 502.983 21.335 502.983 20.625C502.983 20.2463 502.889 20.057 502.699 20.057C502.368 20.057 501.682 20.7197 500.64 22.045C499.646 23.323 498.487 25.0507 497.161 27.228C495.836 29.4053 494.534 31.8667 493.256 34.612C491.978 37.3573 490.89 40.1737 489.99 43.061ZM528.798 34.328C528.041 34.328 527.354 34.1387 526.739 33.76C526.171 33.3813 525.887 32.7897 525.887 31.985C525.887 30.991 526.455 30.139 527.591 29.429C528.774 28.6717 529.934 28.293 531.07 28.293C531.78 28.293 532.348 28.4587 532.774 28.79C533.2 29.1213 533.413 29.6893 533.413 30.494C533.413 31.3933 532.916 32.269 531.922 33.121C530.975 33.9257 529.934 34.328 528.798 34.328ZM520.278 66.846C518.432 66.846 517.059 66.2543 516.16 65.071C515.261 63.935 514.811 62.5387 514.811 60.882C514.811 59.7933 515 58.4207 515.379 56.764C515.805 55.1073 516.349 53.3797 517.012 51.581C517.675 49.735 518.432 48.0073 519.284 46.398C520.183 44.7887 521.13 43.487 522.124 42.493C523.118 41.4517 524.088 40.931 525.035 40.931C525.461 40.931 525.816 41.073 526.1 41.357C526.431 41.5937 526.597 41.9723 526.597 42.493C526.597 43.061 526.218 43.984 525.461 45.262C524.751 46.54 523.899 48.0073 522.905 49.664C521.911 51.3207 521.035 53.072 520.278 54.918C519.568 56.7167 519.213 58.4443 519.213 60.101C519.213 61.805 519.497 62.941 520.065 63.509C520.633 64.077 521.509 64.361 522.692 64.361C524.301 64.361 526.005 63.5563 527.804 61.947C529.65 60.3377 531.591 57.5213 533.626 53.498L534.265 54.208C532.892 58.2787 530.904 61.4027 528.301 63.58C525.745 65.7573 523.071 66.846 520.278 66.846ZM570.757 67.769C569.29 67.769 568.272 67.0827 567.704 65.71C567.184 64.3847 566.923 62.7753 566.923 60.882C566.923 59.9353 566.971 58.9177 567.065 57.829C567.16 56.693 567.278 55.5807 567.42 54.492C566.379 56.5747 565.243 58.5863 564.012 60.527C562.829 62.4677 561.575 64.0533 560.249 65.284C558.924 66.5147 557.528 67.13 556.06 67.13C554.498 67.13 553.22 66.42 552.226 65C551.232 63.58 550.735 61.8997 550.735 59.959C550.735 58.5863 550.948 57.0007 551.374 55.202C551.848 53.4033 552.416 51.6283 553.078 49.877C553.741 48.1257 554.427 46.682 555.137 45.546C555.847 44.41 556.463 43.842 556.983 43.842C557.22 43.842 557.717 43.984 558.474 44.268C559.232 44.5047 559.61 44.836 559.61 45.262C559.09 46.0667 558.451 47.2973 557.693 48.954C556.936 50.6107 556.273 52.4093 555.705 54.35C555.137 56.2433 554.853 57.971 554.853 59.533C554.853 59.9117 554.901 60.5033 554.995 61.308C555.09 62.0653 555.303 62.7517 555.634 63.367C556.013 63.9823 556.581 64.29 557.338 64.29C558.427 64.29 559.587 63.6037 560.817 62.231C562.048 60.8583 563.279 59.1307 564.509 57.048C565.74 54.9653 566.9 52.859 567.988 50.729C568.367 48.7883 568.675 47.3683 568.911 46.469C569.195 45.5697 569.479 45.0017 569.763 44.765C570.047 44.481 570.402 44.339 570.828 44.339C571.444 44.339 571.941 44.481 572.319 44.765C572.698 45.0017 572.887 45.3803 572.887 45.901C572.887 46.043 572.84 46.3033 572.745 46.682C572.414 47.818 572.083 49.2617 571.751 51.013C571.467 52.717 571.231 54.492 571.041 56.338C570.852 58.184 570.757 59.9117 570.757 61.521C570.757 63.8403 571.278 65 572.319 65C573.029 65 573.858 64.574 574.804 63.722C575.751 62.8227 576.721 61.663 577.715 60.243C578.757 58.7757 579.751 57.19 580.697 55.486C581.691 53.782 582.567 52.1017 583.324 50.445C583.324 47.9837 583.49 46.114 583.821 44.836C584.2 43.5107 584.65 42.6113 585.17 42.138C585.738 41.6647 586.306 41.428 586.874 41.428C587.774 41.428 588.413 41.7593 588.791 42.422C589.217 43.0373 589.43 43.6053 589.43 44.126C589.43 44.4573 589.359 44.8123 589.217 45.191C589.075 45.5223 588.886 45.901 588.649 46.327C588.271 47.037 587.892 47.96 587.513 49.096C587.135 50.1847 586.945 51.6993 586.945 53.64C586.945 54.3973 587.016 55.202 587.158 56.054C587.3 56.906 587.608 57.616 588.081 58.184C588.555 58.752 589.288 59.036 590.282 59.036C591.276 59.036 592.223 58.6573 593.122 57.9C594.069 57.0953 594.992 55.7227 595.891 53.782L596.814 54.492C595.773 56.8587 594.613 58.4443 593.335 59.249C592.105 60.0537 590.921 60.456 589.785 60.456C586.756 60.456 584.768 58.468 583.821 54.492C582.638 56.6693 581.313 58.7757 579.845 60.811C578.378 62.8463 576.863 64.503 575.301 65.781C573.739 67.1063 572.225 67.769 570.757 67.769ZM597.964 68.337C596.496 68.337 595.266 67.84 594.272 66.846C593.23 65.8993 592.71 64.432 592.71 62.444C592.71 60.74 593.088 58.9177 593.846 56.977C594.603 54.989 595.644 53.0483 596.97 51.155C598.295 49.2143 599.786 47.463 601.443 45.901C603.147 44.2917 604.922 43.0137 606.768 42.067C608.661 41.1203 610.531 40.647 612.377 40.647C614.223 40.647 615.761 41.144 616.992 42.138C618.222 43.0847 618.838 44.3627 618.838 45.972C618.838 47.1553 618.506 47.96 617.844 48.386C617.228 48.812 616.4 49.025 615.359 49.025C615.595 48.173 615.714 47.3447 615.714 46.54C615.714 45.4513 615.453 44.5283 614.933 43.771C614.412 42.9663 613.513 42.564 612.235 42.564C610.909 42.564 609.56 43.0373 608.188 43.984C606.815 44.8833 605.49 46.114 604.212 47.676C602.934 49.1907 601.798 50.8473 600.804 52.646C599.81 54.4447 599.029 56.2197 598.461 57.971C597.893 59.7223 597.609 61.2843 597.609 62.657C597.609 64.503 598.248 65.426 599.526 65.426C600.614 65.426 601.798 64.929 603.076 63.935C604.354 62.8937 605.655 61.592 606.981 60.03C608.353 58.4207 609.655 56.764 610.886 55.06C612.116 53.356 613.205 51.794 614.152 50.374C614.341 50.09 614.459 49.948 614.507 49.948C614.933 49.9953 615.501 50.1847 616.211 50.516C616.921 50.8 617.276 51.2023 617.276 51.723C617.276 52.149 617.063 52.7407 616.637 53.498C616.211 54.208 615.737 55.0363 615.217 55.983C614.696 56.9297 614.223 57.9 613.797 58.894C613.371 59.8407 613.158 60.74 613.158 61.592C613.158 62.302 613.347 63.012 613.726 63.722C614.104 64.3847 614.72 64.716 615.572 64.716C616.85 64.716 618.53 63.793 620.613 61.947C622.695 60.0537 624.802 57.2373 626.932 53.498L627.642 54.208C626.648 56.764 625.37 59.0123 623.808 60.953C622.246 62.8937 620.565 64.4083 618.767 65.497C617.015 66.5857 615.288 67.13 613.584 67.13C611.832 67.13 610.531 66.6093 609.679 65.568C608.874 64.5267 608.472 63.3907 608.472 62.16C608.472 61.5447 608.543 60.8583 608.685 60.101C606.649 62.8463 604.78 64.9053 603.076 66.278C601.419 67.6507 599.715 68.337 597.964 68.337ZM659.472 71.177C656.111 71.177 653.39 70.325 651.307 68.621C649.272 66.9643 647.781 64.8107 646.834 62.16C645.935 59.5093 645.485 56.7403 645.485 53.853C645.485 50.1137 646.053 46.3507 647.189 42.564C648.325 38.7773 649.863 35.18 651.804 31.772C653.792 28.3167 656.04 25.2637 658.549 22.613C661.058 19.915 663.685 17.8087 666.43 16.294C669.223 14.732 671.968 13.951 674.666 13.951C676.607 13.951 678.169 14.4243 679.352 15.371C680.583 16.2703 681.198 17.8323 681.198 20.057C681.198 21.4297 680.961 22.9917 680.488 24.743C680.015 26.447 679.376 28.1037 678.571 29.713C677.766 31.275 676.867 32.5767 675.873 33.618C674.926 34.6593 673.956 35.18 672.962 35.18C672.583 35.18 672.181 35.0617 671.755 34.825C671.376 34.5883 671.045 34.1623 670.761 33.547C671.471 32.7423 672.252 31.7483 673.104 30.565C674.003 29.3343 674.855 28.0563 675.66 26.731C676.465 25.3583 677.104 24.033 677.577 22.755C678.098 21.4297 678.358 20.27 678.358 19.276C678.358 18.3293 678.074 17.572 677.506 17.004C676.985 16.3887 676.11 16.081 674.879 16.081C672.844 16.081 670.714 16.9093 668.489 18.566C666.312 20.2227 664.182 22.4473 662.099 25.24C660.064 27.9853 658.218 31.062 656.561 34.47C654.904 37.878 653.579 41.357 652.585 44.907C651.638 48.457 651.165 51.8413 651.165 55.06C651.165 57.3793 651.496 59.604 652.159 61.734C652.822 63.8167 653.887 65.497 655.354 66.775C656.869 68.1003 658.809 68.763 661.176 68.763C663.685 68.763 666.17 68.053 668.631 66.633C671.14 65.213 673.435 63.3433 675.518 61.024C677.601 58.7047 679.257 56.196 680.488 53.498L681.482 54.208C679.92 57.2847 678.027 60.1247 675.802 62.728C673.577 65.284 671.092 67.3193 668.347 68.834C665.602 70.396 662.643 71.177 659.472 71.177ZM683.906 67.272C681.871 67.272 680.427 66.633 679.575 65.355C678.723 64.1243 678.297 62.6097 678.297 60.811C678.297 59.3437 678.534 57.829 679.007 56.267C679.48 54.705 680.096 53.2377 680.853 51.865C681.658 50.4923 682.533 49.38 683.48 48.528C684.474 47.676 685.468 47.25 686.462 47.25C686.888 47.25 687.385 47.3683 687.953 47.605C687.527 47.9837 687.006 48.6937 686.391 49.735C685.823 50.729 685.279 51.8887 684.758 53.214C684.237 54.492 683.788 55.77 683.409 57.048C683.078 58.326 682.912 59.4147 682.912 60.314C682.912 61.734 683.149 62.7753 683.622 63.438C684.095 64.0533 684.711 64.361 685.468 64.361C686.462 64.361 687.645 63.8403 689.018 62.799C690.391 61.7103 691.74 60.3377 693.065 58.681C691.74 57.5923 690.698 56.1723 689.941 54.421C689.231 52.6223 688.876 50.8 688.876 48.954C688.876 47.392 689.136 45.9247 689.657 44.552C690.225 43.1793 691.03 42.0907 692.071 41.286C693.112 40.434 694.367 40.008 695.834 40.008C697.775 40.008 699.076 40.5287 699.739 41.57C700.402 42.6113 700.733 43.913 700.733 45.475C700.733 47.321 700.283 49.38 699.384 51.652C698.485 53.8767 697.349 56.0303 695.976 58.113C696.828 58.5863 697.727 58.823 698.674 58.823C699.763 58.823 701.088 58.468 702.65 57.758C704.212 57.0007 705.419 55.6517 706.271 53.711L707.123 54.421C706.176 56.6457 704.827 58.2313 703.076 59.178C701.372 60.0773 699.739 60.527 698.177 60.527C696.899 60.527 695.763 60.2903 694.769 59.817C693.16 61.947 691.385 63.722 689.444 65.142C687.551 66.562 685.705 67.272 683.906 67.272ZM694.343 56.835C695.526 55.0837 696.497 53.2613 697.254 51.368C698.059 49.4273 698.461 47.605 698.461 45.901C698.461 44.5283 698.248 43.5343 697.822 42.919C697.443 42.2563 696.946 41.925 696.331 41.925C695.384 41.925 694.414 42.6113 693.42 43.984C692.426 45.3567 691.929 47.0843 691.929 49.167C691.929 50.5397 692.118 51.936 692.497 53.356C692.923 54.7287 693.538 55.8883 694.343 56.835ZM740.722 67.201C739.066 67.201 737.859 66.6803 737.101 65.639C736.344 64.645 735.965 63.438 735.965 62.018C735.965 60.8347 736.131 59.6513 736.462 58.468C736.841 57.2847 737.196 56.125 737.527 54.989C737.906 53.853 738.095 52.8353 738.095 51.936C738.095 50.9893 737.882 50.3267 737.456 49.948C737.03 49.5693 736.557 49.38 736.036 49.38C734.853 49.38 733.551 50.303 732.131 52.149C730.759 53.995 728.96 56.5983 726.735 59.959C725.978 61.095 725.339 62.2547 724.818 63.438C724.298 64.574 723.801 65.6153 723.327 66.562C722.949 66.562 722.475 66.5147 721.907 66.42C721.339 66.3253 720.819 66.1597 720.345 65.923C719.919 65.7337 719.706 65.4733 719.706 65.142C719.706 64.8107 719.919 64.0297 720.345 62.799C720.819 61.521 721.339 60.0537 721.907 58.397C722.523 56.693 723.043 54.989 723.469 53.285C723.943 51.5337 724.179 50.0427 724.179 48.812C724.179 48.0073 724.037 47.3683 723.753 46.895C723.517 46.3743 723.067 46.114 722.404 46.114C721.363 46.114 720.109 46.753 718.641 48.031C717.174 49.2617 715.659 50.8947 714.097 52.93C712.535 54.9653 711.044 57.2137 709.624 59.675C708.252 62.089 707.139 64.503 706.287 66.917C705.625 66.917 704.82 66.7513 703.873 66.42C702.927 66.0887 702.453 65.7573 702.453 65.426C702.453 65.142 702.714 64.3137 703.234 62.941C703.708 61.521 704.276 59.8407 704.938 57.9C705.554 55.912 706.098 53.9003 706.571 51.865C707.092 49.8297 707.352 48.031 707.352 46.469C707.636 46.1377 708.086 45.8063 708.701 45.475C709.317 45.1437 709.956 44.978 710.618 44.978C711.896 44.978 712.535 45.5933 712.535 46.824C712.535 47.4393 712.346 48.5043 711.967 50.019C711.636 51.4863 711.21 53.1193 710.689 54.918C711.636 53.4033 712.701 51.865 713.884 50.303C715.115 48.6937 716.393 47.2263 717.718 45.901C719.044 44.5757 720.369 43.5107 721.694 42.706C723.067 41.854 724.392 41.428 725.67 41.428C727.138 41.428 728.132 41.9723 728.652 43.061C729.22 44.1023 729.504 45.3567 729.504 46.824C729.504 48.0073 729.362 49.2617 729.078 50.587C728.842 51.865 728.558 53.072 728.226 54.208C727.895 55.2967 727.587 56.1723 727.303 56.835C728.297 55.0363 729.386 53.3087 730.569 51.652C731.8 49.948 733.125 48.5753 734.545 47.534C735.965 46.4453 737.48 45.901 739.089 45.901C740.604 45.901 741.645 46.3507 742.213 47.25C742.829 48.1493 743.136 49.2143 743.136 50.445C743.136 51.6757 742.923 53.0247 742.497 54.492C742.071 55.9593 741.622 57.3793 741.148 58.752C740.722 60.1247 740.509 61.308 740.509 62.302C740.509 62.9173 740.651 63.4853 740.935 64.006C741.267 64.4793 741.835 64.716 742.639 64.716C743.965 64.716 745.195 64.1243 746.331 62.941C747.515 61.7103 748.603 60.243 749.597 58.539C750.591 56.7877 751.443 55.1073 752.153 53.498L753.005 54.492C752.248 56.48 751.278 58.468 750.094 60.456C748.911 62.3967 747.515 64.006 745.905 65.284C744.343 66.562 742.616 67.201 740.722 67.201ZM746.366 84.88C745.987 84.88 745.632 84.667 745.301 84.241C744.922 83.8623 744.638 83.4363 744.449 82.963C744.26 82.537 744.165 82.2767 744.165 82.182C744.828 79.8627 745.49 77.78 746.153 75.934C746.768 74.1353 747.407 72.2657 748.07 70.325C748.685 68.4317 749.301 66.207 749.916 63.651C750.531 61.0477 751.17 57.829 751.833 53.995C752.496 50.161 753.158 45.404 753.821 39.724C753.868 39.298 753.963 38.9903 754.105 38.801C754.247 38.6117 754.602 38.517 755.17 38.517C756.401 38.517 757.276 38.872 757.797 39.582C758.318 40.2447 758.578 40.9783 758.578 41.783C758.578 42.4457 758.436 43.629 758.152 45.333C757.868 47.037 757.466 49.0487 756.945 51.368C757.75 49.806 758.744 48.2203 759.927 46.611C761.158 45.0017 762.554 43.6527 764.116 42.564C765.678 41.4753 767.382 40.931 769.228 40.931C771.311 40.931 773.015 41.6883 774.34 43.203C775.713 44.6703 776.399 46.611 776.399 49.025C776.399 50.871 775.973 52.8353 775.121 54.918C774.316 56.9533 773.157 58.894 771.642 60.74C770.175 62.5387 768.423 64.006 766.388 65.142C764.353 66.278 762.104 66.846 759.643 66.846C758.412 66.846 757.418 66.704 756.661 66.42C755.904 66.136 755.525 65.852 755.525 65.568C755.525 65.3787 755.691 65.2603 756.022 65.213C756.401 65.213 756.827 65.213 757.3 65.213C759.193 65.213 760.992 64.7633 762.696 63.864C764.447 62.9173 766.009 61.6867 767.382 60.172C768.755 58.6573 769.82 56.977 770.577 55.131C771.382 53.285 771.784 51.4627 771.784 49.664C771.784 48.1493 771.453 46.8713 770.79 45.83C770.175 44.7413 769.157 44.197 767.737 44.197C766.506 44.197 765.276 44.5993 764.045 45.404C762.862 46.1613 761.726 47.1553 760.637 48.386C759.596 49.5693 758.649 50.8237 757.797 52.149C756.992 53.427 756.377 54.5867 755.951 55.628C755.099 59.178 754.247 62.586 753.395 65.852C752.543 69.1653 751.715 72.1473 750.91 74.798C750.153 77.496 749.466 79.697 748.851 81.401C748.188 83.105 747.644 84.1463 747.218 84.525C746.981 84.7617 746.697 84.88 746.366 84.88ZM781.981 68.337C780.514 68.337 779.283 67.84 778.289 66.846C777.248 65.8993 776.727 64.432 776.727 62.444C776.727 60.74 777.106 58.9177 777.863 56.977C778.621 54.989 779.662 53.0483 780.987 51.155C782.313 49.2143 783.804 47.463 785.46 45.901C787.164 44.2917 788.939 43.0137 790.785 42.067C792.679 41.1203 794.548 40.647 796.394 40.647C798.24 40.647 799.779 41.144 801.009 42.138C802.24 43.0847 802.855 44.3627 802.855 45.972C802.855 47.1553 802.524 47.96 801.861 48.386C801.246 48.812 800.418 49.025 799.376 49.025C799.613 48.173 799.731 47.3447 799.731 46.54C799.731 45.4513 799.471 44.5283 798.95 43.771C798.43 42.9663 797.53 42.564 796.252 42.564C794.927 42.564 793.578 43.0373 792.205 43.984C790.833 44.8833 789.507 46.114 788.229 47.676C786.951 49.1907 785.815 50.8473 784.821 52.646C783.827 54.4447 783.046 56.2197 782.478 57.971C781.91 59.7223 781.626 61.2843 781.626 62.657C781.626 64.503 782.265 65.426 783.543 65.426C784.632 65.426 785.815 64.929 787.093 63.935C788.371 62.8937 789.673 61.592 790.998 60.03C792.371 58.4207 793.673 56.764 794.903 55.06C796.134 53.356 797.223 51.794 798.169 50.374C798.359 50.09 798.477 49.948 798.524 49.948C798.95 49.9953 799.518 50.1847 800.228 50.516C800.938 50.8 801.293 51.2023 801.293 51.723C801.293 52.149 801.08 52.7407 800.654 53.498C800.228 54.208 799.755 55.0363 799.234 55.983C798.714 56.9297 798.24 57.9 797.814 58.894C797.388 59.8407 797.175 60.74 797.175 61.592C797.175 62.302 797.365 63.012 797.743 63.722C798.122 64.3847 798.737 64.716 799.589 64.716C800.867 64.716 802.548 63.793 804.63 61.947C806.713 60.0537 808.819 57.2373 810.949 53.498L811.659 54.208C810.665 56.764 809.387 59.0123 807.825 60.953C806.263 62.8937 804.583 64.4083 802.784 65.497C801.033 66.5857 799.305 67.13 797.601 67.13C795.85 67.13 794.548 66.6093 793.696 65.568C792.892 64.5267 792.489 63.3907 792.489 62.16C792.489 61.5447 792.56 60.8583 792.702 60.101C790.667 62.8463 788.797 64.9053 787.093 66.278C785.437 67.6507 783.733 68.337 781.981 68.337ZM821.78 66.846C820.171 66.846 818.893 66.42 817.946 65.568C817.047 64.716 816.597 63.6037 816.597 62.231C816.597 60.811 816.928 59.32 817.591 57.758C818.254 56.196 818.893 54.6577 819.508 53.143C820.171 51.581 820.502 50.1847 820.502 48.954C820.502 47.4393 820.052 46.327 819.153 45.617C818.301 44.8597 817.425 44.1733 816.526 43.558C815.437 46.3507 814.301 49.0013 813.118 51.51C811.935 54.0187 810.964 55.912 810.207 57.19L809.568 55.983C810.231 54.7523 811.083 52.9537 812.124 50.587C813.213 48.2203 814.278 45.5223 815.319 42.493C814.846 42.0197 814.609 41.4517 814.609 40.789C814.609 39.369 815.011 38.2093 815.816 37.31C816.621 36.4107 817.212 35.961 817.591 35.961C818.112 35.961 818.396 36.1977 818.443 36.671C818.538 37.097 818.585 37.4283 818.585 37.665C818.585 37.9017 818.443 38.375 818.159 39.085C817.922 39.7477 817.804 40.15 817.804 40.292C817.804 40.9547 818.159 41.57 818.869 42.138C819.626 42.6587 820.478 43.274 821.425 43.984C822.372 44.6467 823.2 45.475 823.91 46.469C824.667 47.4157 825.046 48.6463 825.046 50.161C825.046 51.581 824.738 53.0247 824.123 54.492C823.555 55.9593 822.963 57.3557 822.348 58.681C821.78 60.0063 821.496 61.166 821.496 62.16C821.496 63.012 821.709 63.58 822.135 63.864C822.561 64.148 823.058 64.29 823.626 64.29C824.762 64.29 825.922 63.935 827.105 63.225C828.336 62.515 829.519 61.6157 830.655 60.527C831.791 59.4383 832.809 58.3023 833.708 57.119C834.607 55.8883 835.27 54.7523 835.696 53.711L836.619 54.421C835.72 56.409 834.489 58.3733 832.927 60.314C831.365 62.2073 829.614 63.7693 827.673 65C825.78 66.2307 823.815 66.846 821.78 66.846ZM839.08 67.272C837.044 67.272 835.601 66.633 834.749 65.355C833.897 64.1243 833.471 62.6097 833.471 60.811C833.471 59.3437 833.707 57.829 834.181 56.267C834.654 54.705 835.269 53.2377 836.027 51.865C836.831 50.4923 837.707 49.38 838.654 48.528C839.648 47.676 840.642 47.25 841.636 47.25C842.062 47.25 842.559 47.3683 843.127 47.605C842.701 47.9837 842.18 48.6937 841.565 49.735C840.997 50.729 840.452 51.8887 839.932 53.214C839.411 54.492 838.961 55.77 838.583 57.048C838.251 58.326 838.086 59.4147 838.086 60.314C838.086 61.734 838.322 62.7753 838.796 63.438C839.269 64.0533 839.884 64.361 840.642 64.361C841.636 64.361 842.819 63.8403 844.192 62.799C845.564 61.7103 846.913 60.3377 848.239 58.681C846.913 57.5923 845.872 56.1723 845.115 54.421C844.405 52.6223 844.05 50.8 844.05 48.954C844.05 47.392 844.31 45.9247 844.831 44.552C845.399 43.1793 846.203 42.0907 847.245 41.286C848.286 40.434 849.54 40.008 851.008 40.008C852.948 40.008 854.25 40.5287 854.913 41.57C855.575 42.6113 855.907 43.913 855.907 45.475C855.907 47.321 855.457 49.38 854.558 51.652C853.658 53.8767 852.522 56.0303 851.15 58.113C852.002 58.5863 852.901 58.823 853.848 58.823C854.936 58.823 856.262 58.468 857.824 57.758C859.386 57.0007 860.593 55.6517 861.445 53.711L862.297 54.421C861.35 56.6457 860.001 58.2313 858.25 59.178C856.546 60.0773 854.913 60.527 853.351 60.527C852.073 60.527 850.937 60.2903 849.943 59.817C848.333 61.947 846.558 63.722 844.618 65.142C842.724 66.562 840.878 67.272 839.08 67.272ZM849.517 56.835C850.7 55.0837 851.67 53.2613 852.428 51.368C853.232 49.4273 853.635 47.605 853.635 45.901C853.635 44.5283 853.422 43.5343 852.996 42.919C852.617 42.2563 852.12 41.925 851.505 41.925C850.558 41.925 849.588 42.6113 848.594 43.984C847.6 45.3567 847.103 47.0843 847.103 49.167C847.103 50.5397 847.292 51.936 847.671 53.356C848.097 54.7287 848.712 55.8883 849.517 56.835ZM866.147 68.266C861.935 68.266 859.828 65.923 859.828 61.237C859.828 59.1543 860.207 56.5983 860.964 53.569C861.769 50.4923 862.763 47.3447 863.946 44.126C863.473 44.0313 863.023 43.9603 862.597 43.913C862.171 43.8183 861.769 43.7 861.39 43.558V42.28C861.769 42.3273 862.219 42.3747 862.739 42.422C863.26 42.4693 863.852 42.5167 864.514 42.564C865.508 40.008 866.573 37.5467 867.709 35.18C868.845 32.766 869.958 30.636 871.046 28.79C872.182 26.8967 873.247 25.4057 874.241 24.317C875.283 23.181 876.158 22.613 876.868 22.613C877.247 22.613 877.578 22.755 877.862 23.039C878.194 23.2757 878.359 23.6543 878.359 24.175C878.359 24.9797 877.862 26.305 876.868 28.151C875.874 29.9497 874.644 32.1033 873.176 34.612C871.709 37.1207 870.289 39.8423 868.916 42.777H871.543C873.105 42.777 874.738 42.7533 876.442 42.706C878.194 42.6587 879.945 42.5403 881.696 42.351V43.629C876.537 44.197 872.372 44.481 869.2 44.481H868.135C867.047 46.9897 866.124 49.5693 865.366 52.22C864.609 54.8707 864.23 57.4503 864.23 59.959C864.23 61.9943 864.538 63.4617 865.153 64.361C865.769 65.213 866.786 65.639 868.206 65.639C870.668 65.639 873.082 64.5503 875.448 62.373C877.815 60.1957 879.898 57.2373 881.696 53.498L882.619 54.208C881.483 56.8587 880.04 59.249 878.288 61.379C876.584 63.509 874.691 65.1893 872.608 66.42C870.526 67.6507 868.372 68.266 866.147 68.266ZM886.393 68.266C882.181 68.266 880.074 65.923 880.074 61.237C880.074 59.1543 880.453 56.5983 881.21 53.569C882.015 50.4923 883.009 47.3447 884.192 44.126C883.719 44.0313 883.269 43.9603 882.843 43.913C882.417 43.8183 882.015 43.7 881.636 43.558V42.28C882.015 42.3273 882.465 42.3747 882.985 42.422C883.506 42.4693 884.098 42.5167 884.76 42.564C885.754 40.008 886.819 37.5467 887.955 35.18C889.091 32.766 890.204 30.636 891.292 28.79C892.428 26.8967 893.493 25.4057 894.487 24.317C895.529 23.181 896.404 22.613 897.114 22.613C897.493 22.613 897.824 22.755 898.108 23.039C898.44 23.2757 898.605 23.6543 898.605 24.175C898.605 24.9797 898.108 26.305 897.114 28.151C896.12 29.9497 894.89 32.1033 893.422 34.612C891.955 37.1207 890.535 39.8423 889.162 42.777H891.789C893.351 42.777 894.984 42.7533 896.688 42.706C898.44 42.6587 900.191 42.5403 901.942 42.351V43.629C896.783 44.197 892.618 44.481 889.446 44.481H888.381C887.293 46.9897 886.37 49.5693 885.612 52.22C884.855 54.8707 884.476 57.4503 884.476 59.959C884.476 61.9943 884.784 63.4617 885.399 64.361C886.015 65.213 887.032 65.639 888.452 65.639C890.914 65.639 893.328 64.5503 895.694 62.373C898.061 60.1957 900.144 57.2373 901.942 53.498L902.865 54.208C901.729 56.8587 900.286 59.249 898.534 61.379C896.83 63.509 894.937 65.1893 892.854 66.42C890.772 67.6507 888.618 68.266 886.393 68.266ZM905.503 67.272C903.468 67.272 902.024 66.633 901.172 65.355C900.32 64.1243 899.894 62.6097 899.894 60.811C899.894 59.3437 900.131 57.829 900.604 56.267C901.078 54.705 901.693 53.2377 902.45 51.865C903.255 50.4923 904.131 49.38 905.077 48.528C906.071 47.676 907.065 47.25 908.059 47.25C908.485 47.25 908.982 47.3683 909.55 47.605C909.124 47.9837 908.604 48.6937 907.988 49.735C907.42 50.729 906.876 51.8887 906.355 53.214C905.835 54.492 905.385 55.77 905.006 57.048C904.675 58.326 904.509 59.4147 904.509 60.314C904.509 61.734 904.746 62.7753 905.219 63.438C905.693 64.0533 906.308 64.361 907.065 64.361C908.059 64.361 909.243 63.8403 910.615 62.799C911.988 61.7103 913.337 60.3377 914.662 58.681C913.337 57.5923 912.296 56.1723 911.538 54.421C910.828 52.6223 910.473 50.8 910.473 48.954C910.473 47.392 910.734 45.9247 911.254 44.552C911.822 43.1793 912.627 42.0907 913.668 41.286C914.71 40.434 915.964 40.008 917.431 40.008C919.372 40.008 920.674 40.5287 921.336 41.57C921.999 42.6113 922.33 43.913 922.33 45.475C922.33 47.321 921.881 49.38 920.981 51.652C920.082 53.8767 918.946 56.0303 917.573 58.113C918.425 58.5863 919.325 58.823 920.271 58.823C921.36 58.823 922.685 58.468 924.247 57.758C925.809 57.0007 927.016 55.6517 927.868 53.711L928.72 54.421C927.774 56.6457 926.425 58.2313 924.673 59.178C922.969 60.0773 921.336 60.527 919.774 60.527C918.496 60.527 917.36 60.2903 916.366 59.817C914.757 61.947 912.982 63.722 911.041 65.142C909.148 66.562 907.302 67.272 905.503 67.272ZM915.94 56.835C917.124 55.0837 918.094 53.2613 918.851 51.368C919.656 49.4273 920.058 47.605 920.058 45.901C920.058 44.5283 919.845 43.5343 919.419 42.919C919.041 42.2563 918.544 41.925 917.928 41.925C916.982 41.925 916.011 42.6113 915.017 43.984C914.023 45.3567 913.526 47.0843 913.526 49.167C913.526 50.5397 913.716 51.936 914.094 53.356C914.52 54.7287 915.136 55.8883 915.94 56.835ZM943.772 71.177C944.056 70.5143 944.837 68.763 946.115 65.923C947.393 63.1303 949.05 59.4857 951.085 54.989C953.168 50.445 955.487 45.3093 958.043 39.582C960.647 33.8073 963.392 27.7013 966.279 21.264C966.421 20.9327 966.563 20.5067 966.705 19.986C966.895 19.418 966.989 18.8737 966.989 18.353C966.989 17.8323 966.824 17.4063 966.492 17.075C966.208 16.6963 965.569 16.507 964.575 16.507C962.587 16.507 960.931 17.1933 959.605 18.566C958.327 19.8913 957.357 21.548 956.694 23.536C956.079 25.524 955.771 27.4883 955.771 29.429C955.771 29.9023 955.771 30.3047 955.771 30.636C955.819 30.9673 955.866 31.2987 955.913 31.63C955.014 31.63 954.28 31.3223 953.712 30.707C953.192 30.0443 952.789 29.2633 952.505 28.364C952.269 27.4173 952.15 26.5653 952.15 25.808C952.15 24.246 952.576 22.755 953.428 21.335C954.28 19.915 955.369 18.637 956.694 17.501C958.067 16.365 959.558 15.4893 961.167 14.874C962.824 14.2113 964.433 13.88 965.995 13.88C967.557 13.88 968.859 14.3297 969.9 15.229C970.989 16.081 971.794 17.643 972.314 19.915C972.882 22.187 973.166 25.4767 973.166 29.784C973.166 32.7187 973.048 35.8427 972.811 39.156C972.622 42.4693 972.409 45.7353 972.172 48.954C971.936 52.1727 971.77 55.1073 971.675 57.758C972.433 54.8707 973.498 51.794 974.87 48.528C976.29 45.262 977.829 42.0197 979.485 38.801C981.189 35.535 982.87 32.482 984.526 29.642C986.183 26.802 987.674 24.3407 988.999 22.258C990.325 20.1753 991.295 18.6607 991.91 17.714C992.573 16.7673 993.141 16.0573 993.614 15.584C994.088 15.0633 994.703 14.803 995.46 14.803C996.123 14.803 996.88 14.9687 997.732 15.3C997.401 16.152 996.928 17.43 996.312 19.134C995.744 20.7907 995.153 22.826 994.537 25.24C993.78 28.1273 993.023 31.417 992.265 35.109C991.508 38.7537 990.798 42.4693 990.135 46.256C989.52 50.0427 989.023 53.6163 988.644 56.977C988.266 60.2903 988.076 63.083 988.076 65.355C988.076 66.3963 988.124 67.201 988.218 67.769C988.313 68.337 988.431 68.834 988.573 69.26C988.763 69.7333 988.952 70.3723 989.141 71.177C986.68 71.177 985.094 70.5617 984.384 69.331C983.674 68.1477 983.319 66.1123 983.319 63.225C983.319 57.5923 984.029 51.5573 985.449 45.12C986.917 38.6353 988.573 31.914 990.419 24.956C989.047 26.7073 987.603 28.932 986.088 31.63C984.621 34.2807 983.13 37.168 981.615 40.292C980.148 43.3687 978.728 46.469 977.355 49.593C976.03 52.6697 974.847 55.5333 973.805 58.184C972.764 60.8347 971.959 63.0357 971.391 64.787C971.107 64.8817 970.918 64.9527 970.823 65C970.729 65.0473 970.563 65.071 970.326 65.071C969.048 65.071 968.196 64.3137 967.77 62.799C967.392 61.2843 967.202 59.1543 967.202 56.409C967.202 54.4683 967.25 52.1727 967.344 49.522C967.486 46.824 967.628 44.055 967.77 41.215C967.912 38.375 968.031 35.6533 968.125 33.05C968.267 30.3993 968.338 28.1273 968.338 26.234C968.338 25.2873 968.315 24.5063 968.267 23.891C968.267 23.2757 968.244 22.7313 968.196 22.258C964.41 31.062 961.238 38.588 958.682 44.836C956.126 51.0367 953.973 56.0777 952.221 59.959C950.517 63.8403 949.003 66.6803 947.677 68.479C946.352 70.2777 945.05 71.177 943.772 71.177ZM1000.81 68.337C999.338 68.337 998.107 67.84 997.113 66.846C996.072 65.8993 995.551 64.432 995.551 62.444C995.551 60.74 995.93 58.9177 996.687 56.977C997.445 54.989 998.486 53.0483 999.811 51.155C1001.14 49.2143 1002.63 47.463 1004.28 45.901C1005.99 44.2917 1007.76 43.0137 1009.61 42.067C1011.5 41.1203 1013.37 40.647 1015.22 40.647C1017.06 40.647 1018.6 41.144 1019.83 42.138C1021.06 43.0847 1021.68 44.3627 1021.68 45.972C1021.68 47.1553 1021.35 47.96 1020.69 48.386C1020.07 48.812 1019.24 49.025 1018.2 49.025C1018.44 48.173 1018.56 47.3447 1018.56 46.54C1018.56 45.4513 1018.3 44.5283 1017.77 43.771C1017.25 42.9663 1016.35 42.564 1015.08 42.564C1013.75 42.564 1012.4 43.0373 1011.03 43.984C1009.66 44.8833 1008.33 46.114 1007.05 47.676C1005.78 49.1907 1004.64 50.8473 1003.65 52.646C1002.65 54.4447 1001.87 56.2197 1001.3 57.971C1000.73 59.7223 1000.45 61.2843 1000.45 62.657C1000.45 64.503 1001.09 65.426 1002.37 65.426C1003.46 65.426 1004.64 64.929 1005.92 63.935C1007.2 62.8937 1008.5 61.592 1009.82 60.03C1011.2 58.4207 1012.5 56.764 1013.73 55.06C1014.96 53.356 1016.05 51.794 1016.99 50.374C1017.18 50.09 1017.3 49.948 1017.35 49.948C1017.77 49.9953 1018.34 50.1847 1019.05 50.516C1019.76 50.8 1020.12 51.2023 1020.12 51.723C1020.12 52.149 1019.9 52.7407 1019.48 53.498C1019.05 54.208 1018.58 55.0363 1018.06 55.983C1017.54 56.9297 1017.06 57.9 1016.64 58.894C1016.21 59.8407 1016 60.74 1016 61.592C1016 62.302 1016.19 63.012 1016.57 63.722C1016.95 64.3847 1017.56 64.716 1018.41 64.716C1019.69 64.716 1021.37 63.793 1023.45 61.947C1025.54 60.0537 1027.64 57.2373 1029.77 53.498L1030.48 54.208C1029.49 56.764 1028.21 59.0123 1026.65 60.953C1025.09 62.8937 1023.41 64.4083 1021.61 65.497C1019.86 66.5857 1018.13 67.13 1016.43 67.13C1014.67 67.13 1013.37 66.6093 1012.52 65.568C1011.72 64.5267 1011.31 63.3907 1011.31 62.16C1011.31 61.5447 1011.38 60.8583 1011.53 60.101C1009.49 62.8463 1007.62 64.9053 1005.92 66.278C1004.26 67.6507 1002.56 68.337 1000.81 68.337ZM1034.36 68.266C1030.14 68.266 1028.04 65.923 1028.04 61.237C1028.04 59.817 1028.23 58.113 1028.61 56.125C1029.03 54.137 1029.58 52.0307 1030.24 49.806C1030.95 47.534 1031.71 45.333 1032.51 43.203C1032.04 43.1083 1031.59 42.9663 1031.16 42.777C1030.74 42.5403 1030.33 42.351 1029.95 42.209V40.931C1030.33 40.9783 1030.78 41.0967 1031.3 41.286C1031.82 41.4753 1032.42 41.5937 1033.08 41.641C1034.4 38.233 1035.8 35.0853 1037.27 32.198C1038.78 29.3107 1040.23 26.9913 1041.6 25.24C1042.97 23.4887 1044.13 22.613 1045.08 22.613C1045.46 22.613 1045.79 22.755 1046.07 23.039C1046.4 23.2757 1046.57 23.6543 1046.57 24.175C1046.57 24.9797 1046.07 26.305 1045.08 28.151C1044.08 29.9497 1042.85 32.1033 1041.39 34.612C1039.92 37.1207 1038.5 39.8423 1037.13 42.777C1038.31 42.9663 1039.44 43.132 1040.53 43.274C1041.67 43.416 1042.83 43.487 1044.01 43.487C1046.47 43.487 1049.53 43.1083 1053.17 42.351C1054.4 38.9903 1055.77 35.6533 1057.29 32.34C1058.85 29.0267 1060.41 26.021 1061.98 23.323C1063.58 20.5777 1065.1 18.4003 1066.52 16.791C1067.99 15.1343 1069.24 14.306 1070.28 14.306C1071.13 14.306 1071.73 14.8267 1072.06 15.868C1072.44 16.862 1072.63 17.8323 1072.63 18.779C1072.63 20.4357 1072.2 22.4 1071.35 24.672C1070.54 26.8967 1069.43 29.216 1068.01 31.63C1066.59 33.9967 1064.93 36.2213 1063.04 38.304C1061.19 40.3393 1059.23 41.996 1057.15 43.274C1056.39 45.0727 1055.7 47.1553 1055.09 49.522C1054.52 51.8887 1054.12 54.2317 1053.88 56.551C1053.64 58.823 1053.62 60.7163 1053.81 62.231C1054.95 58.965 1056.22 55.9357 1057.64 53.143C1059.06 50.3503 1060.65 48.102 1062.4 46.398C1064.2 44.694 1066.14 43.842 1068.22 43.842C1070.16 43.842 1071.54 44.5283 1072.34 45.901C1073.19 47.2263 1073.62 48.67 1073.62 50.232C1073.62 51.6993 1073.36 53.1193 1072.84 54.492C1072.36 55.8647 1071.87 57.19 1071.35 58.468C1070.83 59.746 1070.57 60.9767 1070.57 62.16C1070.57 63.1067 1070.76 63.793 1071.13 64.219C1071.56 64.645 1072.08 64.858 1072.7 64.858C1073.78 64.858 1074.99 64.3373 1076.32 63.296C1077.69 62.2547 1079.04 60.882 1080.36 59.178C1081.69 57.4267 1082.83 55.5333 1083.77 53.498L1084.7 54.35C1083.7 56.6693 1082.49 58.7757 1081.07 60.669C1079.65 62.515 1078.09 63.9823 1076.39 65.071C1074.68 66.1597 1072.91 66.704 1071.06 66.704C1069.45 66.704 1068.22 66.278 1067.37 65.426C1066.57 64.574 1066.16 63.509 1066.16 62.231C1066.16 61.237 1066.35 60.1247 1066.73 58.894C1067.11 57.6633 1067.47 56.409 1067.8 55.131C1068.18 53.853 1068.37 52.646 1068.37 51.51C1068.37 50.2793 1068.1 49.4037 1067.58 48.883C1067.06 48.3623 1066.42 48.102 1065.67 48.102C1064.48 48.102 1063.42 48.5753 1062.47 49.522C1061.53 50.4687 1060.65 51.6993 1059.85 53.214C1059.09 54.6813 1058.35 56.2433 1057.64 57.9C1056.98 59.5567 1056.34 61.1423 1055.73 62.657C1055.11 64.1243 1054.5 65.3313 1053.88 66.278C1053.27 67.2247 1052.63 67.698 1051.96 67.698C1050.88 67.698 1050.05 66.704 1049.48 64.716C1048.96 62.728 1048.89 60.2903 1049.27 57.403C1047.47 60.5743 1045.24 63.1777 1042.59 65.213C1039.99 67.2483 1037.24 68.266 1034.36 68.266ZM1058.07 40.505C1059.73 39.1797 1061.27 37.594 1062.69 35.748C1064.15 33.8547 1065.45 31.9377 1066.59 29.997C1067.73 28.009 1068.6 26.1867 1069.22 24.53C1069.88 22.826 1070.21 21.5243 1070.21 20.625C1070.21 20.2463 1070.12 20.057 1069.93 20.057C1069.6 20.057 1068.96 20.5777 1068.01 21.619C1067.06 22.6603 1065.97 24.104 1064.74 25.95C1063.56 27.796 1062.38 29.9733 1061.19 32.482C1060.01 34.9433 1058.97 37.6177 1058.07 40.505ZM1036.42 65.639C1038.88 65.639 1041.29 64.5503 1043.66 62.373C1046.02 60.1957 1048.11 57.2373 1049.91 53.498C1050.24 51.936 1050.57 50.445 1050.9 49.025C1051.28 47.605 1051.77 46.0193 1052.39 44.268C1050.78 44.6467 1049.24 44.907 1047.78 45.049C1046.36 45.191 1044.98 45.262 1043.66 45.262C1042.33 45.262 1041.08 45.191 1039.89 45.049C1038.71 44.8597 1037.53 44.6703 1036.34 44.481C1035.26 46.9897 1034.33 49.5693 1033.58 52.22C1032.82 54.8707 1032.44 57.4503 1032.44 59.959C1032.44 61.9943 1032.75 63.4617 1033.36 64.361C1033.98 65.213 1035 65.639 1036.42 65.639ZM1090.07 68.124C1087.18 68.124 1085.01 67.3193 1083.54 65.71C1082.12 64.148 1081.41 62.2073 1081.41 59.888C1081.41 57.758 1081.93 55.5097 1082.97 53.143C1084.06 50.7763 1085.48 48.5517 1087.23 46.469C1089.03 44.3863 1090.99 42.706 1093.12 41.428C1095.25 40.1027 1097.36 39.44 1099.44 39.44C1100.53 39.44 1101.53 39.724 1102.43 40.292C1103.37 40.86 1103.85 42.0197 1103.85 43.771C1103.85 45.5697 1103.3 47.2737 1102.21 48.883C1101.17 50.445 1099.77 51.8413 1098.02 53.072C1096.32 54.3027 1094.43 55.3203 1092.34 56.125C1090.31 56.8823 1088.27 57.3557 1086.24 57.545C1086.14 58.0183 1086.07 58.468 1086.02 58.894C1085.98 59.32 1085.95 59.7223 1085.95 60.101C1085.95 61.5683 1086.33 62.941 1087.09 64.219C1087.89 65.4497 1089.38 66.065 1091.56 66.065C1093.6 66.065 1095.61 65.497 1097.6 64.361C1099.59 63.1777 1101.43 61.6393 1103.14 59.746C1104.84 57.8527 1106.28 55.77 1107.47 53.498L1108.32 54.137C1107.04 56.977 1105.41 59.4383 1103.42 61.521C1101.48 63.6037 1099.35 65.213 1097.03 66.349C1094.76 67.5323 1092.44 68.124 1090.07 68.124ZM1086.59 56.196C1087.87 55.77 1089.31 55.1547 1090.92 54.35C1092.53 53.498 1094.07 52.504 1095.54 51.368C1097.05 50.232 1098.28 48.9777 1099.23 47.605C1100.22 46.2323 1100.72 44.7887 1100.72 43.274C1100.72 42.7533 1100.63 42.351 1100.44 42.067C1100.25 41.783 1099.85 41.641 1099.23 41.641C1098.09 41.641 1096.89 42.0907 1095.61 42.99C1094.33 43.842 1093.1 44.978 1091.92 46.398C1090.73 47.818 1089.67 49.38 1088.72 51.084C1087.78 52.788 1087.07 54.492 1086.59 56.196ZM1111.37 67.13C1109.76 67.13 1108.46 66.42 1107.47 65C1106.52 63.5327 1106.05 61.8523 1106.05 59.959C1106.05 58.5863 1106.26 57.0007 1106.69 55.202C1107.16 53.4033 1107.73 51.6283 1108.39 49.877C1109.05 48.1257 1109.74 46.682 1110.45 45.546C1111.16 44.41 1111.77 43.842 1112.29 43.842C1112.53 43.842 1112.93 43.984 1113.5 44.268C1114.07 44.5047 1114.54 44.836 1114.92 45.262C1114.4 46.0667 1113.76 47.2973 1113 48.954C1112.25 50.6107 1111.58 52.3857 1111.02 54.279C1110.45 56.1723 1110.16 57.9237 1110.16 59.533C1110.16 59.9117 1110.21 60.5033 1110.31 61.308C1110.4 62.0653 1110.64 62.7517 1111.02 63.367C1111.4 63.9823 1111.96 64.29 1112.72 64.29C1113.62 64.29 1114.54 63.8403 1115.49 62.941C1116.44 61.9943 1117.38 60.7873 1118.33 59.32C1119.32 57.8527 1120.27 56.267 1121.17 54.563C1122.07 52.859 1122.9 51.226 1123.65 49.664C1124.46 48.102 1125.12 46.8003 1125.64 45.759C1125.93 45.8063 1126.33 45.901 1126.85 46.043C1127.42 46.185 1127.91 46.3743 1128.34 46.611C1128.81 46.8477 1129.05 47.179 1129.05 47.605C1129.05 47.7943 1128.81 48.4333 1128.34 49.522C1127.87 50.5633 1127.3 51.865 1126.64 53.427C1126.02 54.9417 1125.48 56.48 1125 58.042C1124.53 59.604 1124.29 60.9767 1124.29 62.16C1124.29 63.012 1124.46 63.6983 1124.79 64.219C1125.17 64.7397 1125.78 65 1126.64 65C1127.63 65 1128.84 64.5503 1130.26 63.651C1131.68 62.7517 1133.12 61.45 1134.59 59.746C1136.06 57.9947 1137.36 55.912 1138.49 53.498L1139.42 54.137C1138.42 56.693 1137.12 58.965 1135.51 60.953C1133.9 62.8937 1132.2 64.4083 1130.4 65.497C1128.6 66.5857 1126.85 67.13 1125.15 67.13C1123.25 67.13 1121.95 66.6093 1121.24 65.568C1120.53 64.574 1120.18 63.3433 1120.18 61.876C1120.18 61.308 1120.22 60.74 1120.32 60.172C1120.41 59.5567 1120.53 58.9413 1120.67 58.326C1119.35 60.6453 1117.9 62.7043 1116.34 64.503C1114.83 66.2543 1113.17 67.13 1111.37 67.13ZM1144.63 68.621C1142.41 68.621 1140.63 68.124 1139.31 67.13C1138.03 66.1833 1137.13 65 1136.61 63.58C1136.04 62.16 1135.76 60.74 1135.76 59.32C1135.76 57.9 1135.95 56.8113 1136.33 56.054C1136.71 55.2967 1137.16 54.7287 1137.68 54.35C1138.24 53.9713 1138.76 53.6873 1139.24 53.498C1139.76 53.3087 1140.11 53.1193 1140.3 52.93C1141.72 51.368 1143.02 49.735 1144.21 48.031C1145.39 46.327 1146.43 44.5283 1147.33 42.635V41.783C1147.33 40.0317 1147.62 38.801 1148.18 38.091C1148.8 37.3337 1149.44 36.955 1150.1 36.955C1150.86 36.955 1151.24 37.2627 1151.24 37.878C1151.24 38.1147 1151.17 38.4933 1151.02 39.014C1150.88 39.5347 1150.81 40.1973 1150.81 41.002C1150.81 42.564 1151.12 44.268 1151.73 46.114C1152.35 47.9127 1152.96 49.8297 1153.58 51.865C1154.2 53.853 1154.5 55.9357 1154.5 58.113C1154.5 59.3437 1154.36 60.5033 1154.08 61.592C1155.73 61.308 1157.3 60.5743 1158.76 59.391C1160.23 58.1603 1161.65 56.2197 1163.02 53.569L1163.66 54.279C1162.76 56.8823 1161.41 58.8703 1159.61 60.243C1157.82 61.5683 1155.85 62.3967 1153.72 62.728C1152.96 64.7633 1151.76 66.2543 1150.1 67.201C1148.49 68.1477 1146.67 68.621 1144.63 68.621ZM1149.6 61.521C1149.7 61.0477 1149.77 60.5507 1149.82 60.03C1149.86 59.5093 1149.89 58.894 1149.89 58.184C1149.89 55.9593 1149.6 53.7583 1149.04 51.581C1148.52 49.3563 1148.07 47.2737 1147.69 45.333C1146.6 47.1317 1145.44 48.8593 1144.21 50.516C1143.02 52.1253 1141.89 53.4743 1140.8 54.563C1141.51 56.0777 1142.6 57.4977 1144.07 58.823C1145.58 60.1483 1147.43 61.0477 1149.6 61.521ZM1144.78 66.136C1145.34 66.136 1146.1 65.9467 1147.05 65.568C1147.99 65.1893 1148.73 64.219 1149.25 62.657C1147.26 62.2783 1145.49 61.4973 1143.92 60.314C1142.41 59.1307 1141.27 57.9473 1140.52 56.764C1139.47 56.8113 1138.95 57.6397 1138.95 59.249C1138.95 60.953 1139.45 62.5387 1140.44 64.006C1141.49 65.426 1142.93 66.136 1144.78 66.136ZM1167.05 54.776C1167.57 53.356 1169.09 52.433 1171.6 52.007C1174.11 51.5337 1177.06 51.297 1180.47 51.297C1182.98 51.297 1185.32 51.3917 1187.5 51.581C1189.73 51.723 1191.36 51.8413 1192.4 51.936C1190.55 53.1193 1188.8 53.7583 1187.15 53.853C1185.54 53.9477 1183.9 53.995 1182.25 53.995H1175.08C1173.85 53.995 1172.59 54.066 1171.31 54.208C1170.04 54.35 1168.62 54.5393 1167.05 54.776ZM1206.34 68.621C1204.12 68.621 1202.34 68.124 1201.02 67.13C1199.74 66.1833 1198.84 65 1198.32 63.58C1197.75 62.16 1197.47 60.74 1197.47 59.32C1197.47 57.9 1197.66 56.8113 1198.04 56.054C1198.41 55.2967 1198.86 54.7287 1199.38 54.35C1199.95 53.9713 1200.47 53.6873 1200.95 53.498C1201.47 53.3087 1201.82 53.1193 1202.01 52.93C1203.43 51.368 1204.73 49.735 1205.92 48.031C1207.1 46.327 1208.14 44.5283 1209.04 42.635V41.783C1209.04 40.0317 1209.32 38.801 1209.89 38.091C1210.51 37.3337 1211.15 36.955 1211.81 36.955C1212.57 36.955 1212.95 37.2627 1212.95 37.878C1212.95 38.1147 1212.87 38.4933 1212.73 39.014C1212.59 39.5347 1212.52 40.1973 1212.52 41.002C1212.52 42.564 1212.83 44.268 1213.44 46.114C1214.06 47.9127 1214.67 49.8297 1215.29 51.865C1215.9 53.853 1216.21 55.9357 1216.21 58.113C1216.21 59.3437 1216.07 60.5033 1215.79 61.592C1217.44 61.308 1219 60.5743 1220.47 59.391C1221.94 58.1603 1223.36 56.2197 1224.73 53.569L1225.37 54.279C1224.47 56.8823 1223.12 58.8703 1221.32 60.243C1219.53 61.5683 1217.56 62.3967 1215.43 62.728C1214.67 64.7633 1213.47 66.2543 1211.81 67.201C1210.2 68.1477 1208.38 68.621 1206.34 68.621ZM1211.31 61.521C1211.41 61.0477 1211.48 60.5507 1211.53 60.03C1211.57 59.5093 1211.6 58.894 1211.6 58.184C1211.6 55.9593 1211.31 53.7583 1210.74 51.581C1210.22 49.3563 1209.77 47.2737 1209.4 45.333C1208.31 47.1317 1207.15 48.8593 1205.92 50.516C1204.73 52.1253 1203.6 53.4743 1202.51 54.563C1203.22 56.0777 1204.31 57.4977 1205.77 58.823C1207.29 60.1483 1209.14 61.0477 1211.31 61.521ZM1206.48 66.136C1207.05 66.136 1207.81 65.9467 1208.76 65.568C1209.7 65.1893 1210.44 64.219 1210.96 62.657C1208.97 62.2783 1207.19 61.4973 1205.63 60.314C1204.12 59.1307 1202.98 57.9473 1202.22 56.764C1201.18 56.8113 1200.66 57.6397 1200.66 59.249C1200.66 60.953 1201.16 62.5387 1202.15 64.006C1203.2 65.426 1204.64 66.136 1206.48 66.136ZM1226.77 68.337C1225.3 68.337 1224.07 67.84 1223.08 66.846C1222.04 65.8993 1221.52 64.432 1221.52 62.444C1221.52 60.74 1221.9 58.9177 1222.65 56.977C1223.41 54.989 1224.45 53.0483 1225.78 51.155C1227.1 49.2143 1228.59 47.463 1230.25 45.901C1231.95 44.2917 1233.73 43.0137 1235.58 42.067C1237.47 41.1203 1239.34 40.647 1241.18 40.647C1243.03 40.647 1244.57 41.144 1245.8 42.138C1247.03 43.0847 1247.65 44.3627 1247.65 45.972C1247.65 47.1553 1247.31 47.96 1246.65 48.386C1246.04 48.812 1245.21 49.025 1244.17 49.025C1244.4 48.173 1244.52 47.3447 1244.52 46.54C1244.52 45.4513 1244.26 44.5283 1243.74 43.771C1243.22 42.9663 1242.32 42.564 1241.04 42.564C1239.72 42.564 1238.37 43.0373 1237 43.984C1235.62 44.8833 1234.3 46.114 1233.02 47.676C1231.74 49.1907 1230.61 50.8473 1229.61 52.646C1228.62 54.4447 1227.84 56.2197 1227.27 57.971C1226.7 59.7223 1226.42 61.2843 1226.42 62.657C1226.42 64.503 1227.06 65.426 1228.33 65.426C1229.42 65.426 1230.61 64.929 1231.88 63.935C1233.16 62.8937 1234.46 61.592 1235.79 60.03C1237.16 58.4207 1238.46 56.764 1239.69 55.06C1240.92 53.356 1242.01 51.794 1242.96 50.374C1243.15 50.09 1243.27 49.948 1243.31 49.948C1243.74 49.9953 1244.31 50.1847 1245.02 50.516C1245.73 50.8 1246.08 51.2023 1246.08 51.723C1246.08 52.149 1245.87 52.7407 1245.44 53.498C1245.02 54.208 1244.54 55.0363 1244.02 55.983C1243.5 56.9297 1243.03 57.9 1242.6 58.894C1242.18 59.8407 1241.97 60.74 1241.97 61.592C1241.97 62.302 1242.15 63.012 1242.53 63.722C1242.91 64.3847 1243.53 64.716 1244.38 64.716C1245.66 64.716 1247.34 63.793 1249.42 61.947C1251.5 60.0537 1253.61 57.2373 1255.74 53.498L1256.45 54.208C1255.46 56.764 1254.18 59.0123 1252.62 60.953C1251.05 62.8937 1249.37 64.4083 1247.57 65.497C1245.82 66.5857 1244.1 67.13 1242.39 67.13C1240.64 67.13 1239.34 66.6093 1238.49 65.568C1237.68 64.5267 1237.28 63.3907 1237.28 62.16C1237.28 61.5447 1237.35 60.8583 1237.49 60.101C1235.46 62.8463 1233.59 64.9053 1231.88 66.278C1230.23 67.6507 1228.52 68.337 1226.77 68.337ZM1290.07 67.201C1288.41 67.201 1287.21 66.6803 1286.45 65.639C1285.69 64.645 1285.31 63.438 1285.31 62.018C1285.31 60.8347 1285.48 59.6513 1285.81 58.468C1286.19 57.2847 1286.54 56.125 1286.88 54.989C1287.25 53.853 1287.44 52.8353 1287.44 51.936C1287.44 50.9893 1287.23 50.3267 1286.81 49.948C1286.38 49.5693 1285.91 49.38 1285.39 49.38C1284.2 49.38 1282.9 50.303 1281.48 52.149C1280.11 53.995 1278.31 56.5983 1276.08 59.959C1275.33 61.095 1274.69 62.2547 1274.17 63.438C1273.65 64.574 1273.15 65.6153 1272.68 66.562C1272.3 66.562 1271.82 66.5147 1271.26 66.42C1270.69 66.3253 1270.17 66.1597 1269.69 65.923C1269.27 65.7337 1269.06 65.4733 1269.06 65.142C1269.06 64.8107 1269.27 64.0297 1269.69 62.799C1270.17 61.521 1270.69 60.0537 1271.26 58.397C1271.87 56.693 1272.39 54.989 1272.82 53.285C1273.29 51.5337 1273.53 50.0427 1273.53 48.812C1273.53 48.0073 1273.39 47.3683 1273.1 46.895C1272.87 46.3743 1272.42 46.114 1271.75 46.114C1270.71 46.114 1269.46 46.753 1267.99 48.031C1266.52 49.2617 1265.01 50.8947 1263.45 52.93C1261.88 54.9653 1260.39 57.2137 1258.97 59.675C1257.6 62.089 1256.49 64.503 1255.64 66.917C1254.97 66.917 1254.17 66.7513 1253.22 66.42C1252.28 66.0887 1251.8 65.7573 1251.8 65.426C1251.8 65.142 1252.06 64.3137 1252.58 62.941C1253.06 61.521 1253.62 59.8407 1254.29 57.9C1254.9 55.912 1255.45 53.9003 1255.92 51.865C1256.44 49.8297 1256.7 48.031 1256.7 46.469C1256.99 46.1377 1257.43 45.8063 1258.05 45.475C1258.67 45.1437 1259.3 44.978 1259.97 44.978C1261.25 44.978 1261.88 45.5933 1261.88 46.824C1261.88 47.4393 1261.69 48.5043 1261.32 50.019C1260.98 51.4863 1260.56 53.1193 1260.04 54.918C1260.98 53.4033 1262.05 51.865 1263.23 50.303C1264.46 48.6937 1265.74 47.2263 1267.07 45.901C1268.39 44.5757 1269.72 43.5107 1271.04 42.706C1272.42 41.854 1273.74 41.428 1275.02 41.428C1276.49 41.428 1277.48 41.9723 1278 43.061C1278.57 44.1023 1278.85 45.3567 1278.85 46.824C1278.85 48.0073 1278.71 49.2617 1278.43 50.587C1278.19 51.865 1277.91 53.072 1277.58 54.208C1277.24 55.2967 1276.94 56.1723 1276.65 56.835C1277.65 55.0363 1278.73 53.3087 1279.92 51.652C1281.15 49.948 1282.47 48.5753 1283.89 47.534C1285.31 46.4453 1286.83 45.901 1288.44 45.901C1289.95 45.901 1290.99 46.3507 1291.56 47.25C1292.18 48.1493 1292.49 49.2143 1292.49 50.445C1292.49 51.6757 1292.27 53.0247 1291.85 54.492C1291.42 55.9593 1290.97 57.3793 1290.5 58.752C1290.07 60.1247 1289.86 61.308 1289.86 62.302C1289.86 62.9173 1290 63.4853 1290.28 64.006C1290.62 64.4793 1291.18 64.716 1291.99 64.716C1293.31 64.716 1294.54 64.1243 1295.68 62.941C1296.86 61.7103 1297.95 60.243 1298.95 58.539C1299.94 56.7877 1300.79 55.1073 1301.5 53.498L1302.35 54.492C1301.6 56.48 1300.63 58.468 1299.44 60.456C1298.26 62.3967 1296.86 64.006 1295.25 65.284C1293.69 66.562 1291.96 67.201 1290.07 67.201ZM1303.6 68.337C1302.13 68.337 1300.9 67.84 1299.9 66.846C1298.86 65.8993 1298.34 64.432 1298.34 62.444C1298.34 60.74 1298.72 58.9177 1299.48 56.977C1300.23 54.989 1301.28 53.0483 1302.6 51.155C1303.93 49.2143 1305.42 47.463 1307.07 45.901C1308.78 44.2917 1310.55 43.0137 1312.4 42.067C1314.29 41.1203 1316.16 40.647 1318.01 40.647C1319.85 40.647 1321.39 41.144 1322.62 42.138C1323.85 43.0847 1324.47 44.3627 1324.47 45.972C1324.47 47.1553 1324.14 47.96 1323.48 48.386C1322.86 48.812 1322.03 49.025 1320.99 49.025C1321.23 48.173 1321.35 47.3447 1321.35 46.54C1321.35 45.4513 1321.09 44.5283 1320.56 43.771C1320.04 42.9663 1319.14 42.564 1317.87 42.564C1316.54 42.564 1315.19 43.0373 1313.82 43.984C1312.45 44.8833 1311.12 46.114 1309.84 47.676C1308.57 49.1907 1307.43 50.8473 1306.44 52.646C1305.44 54.4447 1304.66 56.2197 1304.09 57.971C1303.52 59.7223 1303.24 61.2843 1303.24 62.657C1303.24 64.503 1303.88 65.426 1305.16 65.426C1306.25 65.426 1307.43 64.929 1308.71 63.935C1309.99 62.8937 1311.29 61.592 1312.61 60.03C1313.99 58.4207 1315.29 56.764 1316.52 55.06C1317.75 53.356 1318.84 51.794 1319.78 50.374C1319.97 50.09 1320.09 49.948 1320.14 49.948C1320.56 49.9953 1321.13 50.1847 1321.84 50.516C1322.55 50.8 1322.91 51.2023 1322.91 51.723C1322.91 52.149 1322.69 52.7407 1322.27 53.498C1321.84 54.208 1321.37 55.0363 1320.85 55.983C1320.33 56.9297 1319.85 57.9 1319.43 58.894C1319 59.8407 1318.79 60.74 1318.79 61.592C1318.79 62.302 1318.98 63.012 1319.36 63.722C1319.74 64.3847 1320.35 64.716 1321.2 64.716C1322.48 64.716 1324.16 63.793 1326.24 61.947C1328.33 60.0537 1330.43 57.2373 1332.56 53.498L1333.27 54.208C1332.28 56.764 1331 59.0123 1329.44 60.953C1327.88 62.8937 1326.2 64.4083 1324.4 65.497C1322.65 66.5857 1320.92 67.13 1319.22 67.13C1317.46 67.13 1316.16 66.6093 1315.31 65.568C1314.51 64.5267 1314.1 63.3907 1314.1 62.16C1314.1 61.5447 1314.17 60.8583 1314.32 60.101C1312.28 62.8463 1310.41 64.9053 1308.71 66.278C1307.05 67.6507 1305.35 68.337 1303.6 68.337ZM1337.71 44.339C1338.52 42.351 1339.42 40.0553 1340.41 37.452C1341.41 34.8013 1342.47 32.1033 1343.61 29.358C1344.74 26.6127 1345.88 24.0803 1347.02 21.761C1348.2 19.3943 1349.33 17.501 1350.42 16.081C1351.51 14.6137 1352.51 13.88 1353.41 13.88C1353.78 13.88 1354.12 14.0457 1354.4 14.377C1354.68 14.661 1354.83 15.0397 1354.83 15.513C1354.83 16.1757 1354.47 17.4063 1353.76 19.205C1353.1 20.9563 1352.17 23.11 1350.99 25.666C1349.86 28.1747 1348.55 30.8727 1347.09 33.76C1345.67 36.6473 1344.18 39.582 1342.61 42.564C1341.05 45.4987 1339.51 48.2913 1338 50.942C1336.53 53.5453 1335.18 55.8173 1333.95 57.758C1333.9 57.7107 1333.86 57.687 1333.81 57.687C1333.81 57.6397 1333.79 57.5923 1333.74 57.545C1334.4 54.3263 1335.13 51.581 1335.94 49.309C1336.74 46.9897 1337.34 45.333 1337.71 44.339ZM1331.89 65.71C1331.28 65.71 1330.76 65.5443 1330.33 65.213C1329.86 64.929 1329.62 64.4557 1329.62 63.793C1329.62 62.9883 1330.09 62.302 1331.04 61.734C1331.94 61.166 1332.84 60.882 1333.74 60.882C1334.97 60.882 1335.58 61.45 1335.58 62.586C1335.58 63.296 1335.21 64.006 1334.45 64.716C1333.69 65.3787 1332.84 65.71 1331.89 65.71ZM1406.41 72.029C1404.66 72.029 1403.26 71.2717 1402.22 69.757C1401.18 68.2897 1400.66 66.5383 1400.66 64.503C1400.66 63.8403 1400.71 62.9647 1400.8 61.876C1400.94 60.74 1401.11 59.462 1401.3 58.042C1399.55 61.9233 1397.42 65.071 1394.91 67.485C1392.4 69.9463 1389.42 71.177 1385.96 71.177C1382.93 71.177 1380.64 70.254 1379.07 68.408C1377.51 66.562 1376.73 64.2663 1376.73 61.521C1376.73 59.675 1377.02 57.4977 1377.58 54.989C1378.2 52.433 1378.96 49.7113 1379.86 46.824C1380.75 43.8893 1381.63 40.931 1382.48 37.949C1383.38 34.967 1384.12 32.127 1384.68 29.429C1385.3 26.6837 1385.61 24.246 1385.61 22.116C1385.61 17.9507 1384.28 15.868 1381.63 15.868C1380.35 15.868 1379.24 16.294 1378.29 17.146C1377.35 17.9507 1376.57 18.992 1375.95 20.27C1375.33 21.548 1374.86 22.897 1374.53 24.317C1374.25 25.737 1374.1 27.015 1374.1 28.151C1374.1 29.571 1374.29 30.7307 1374.67 31.63C1372.87 31.63 1371.6 31.1567 1370.84 30.21C1370.13 29.216 1369.77 28.0563 1369.77 26.731C1369.77 25.2637 1370.13 23.7727 1370.84 22.258C1371.55 20.7433 1372.52 19.3707 1373.75 18.14C1375.03 16.862 1376.47 15.8443 1378.08 15.087C1379.74 14.2823 1381.49 13.88 1383.33 13.88C1385.94 13.88 1387.81 14.661 1388.94 16.223C1390.08 17.785 1390.65 19.8677 1390.65 22.471C1390.65 25.0743 1390.17 28.08 1389.23 31.488C1388.33 34.8487 1387.33 38.2803 1386.25 41.783C1385.16 45.2383 1384.16 48.599 1383.26 51.865C1382.36 55.0837 1381.91 57.9237 1381.91 60.385C1381.91 62.5623 1382.36 64.432 1383.26 65.994C1384.21 67.556 1385.75 68.337 1387.88 68.337C1389.82 68.337 1391.59 67.698 1393.2 66.42C1394.81 65.1893 1396.23 63.58 1397.46 61.592C1398.69 59.604 1399.74 57.4977 1400.59 55.273C1401.44 53.0483 1402.1 50.9893 1402.58 49.096C1403.24 46.256 1403.97 43.2503 1404.78 40.079C1405.58 36.8603 1406.41 33.7127 1407.26 30.636C1408.16 27.512 1409.04 24.6957 1409.89 22.187C1410.79 19.6783 1411.66 17.6667 1412.52 16.152C1413.37 14.6373 1414.17 13.88 1414.93 13.88C1415.88 13.88 1417.06 14.6373 1418.48 16.152C1418.1 16.436 1417.51 17.4537 1416.7 19.205C1415.9 20.909 1415 23.11 1414.01 25.808C1413.01 28.506 1412.02 31.488 1411.02 34.754C1410.03 37.9727 1409.11 41.2623 1408.26 44.623C1407.4 47.9363 1406.72 51.1077 1406.2 54.137C1405.68 57.1663 1405.42 59.7933 1405.42 62.018C1405.42 65.284 1405.84 67.485 1406.69 68.621C1407.59 69.757 1409.06 70.325 1411.1 70.325C1410.2 70.9403 1409.34 71.3663 1408.54 71.603C1407.78 71.887 1407.07 72.029 1406.41 72.029ZM1435.52 67.769C1434.05 67.769 1433.03 67.0827 1432.46 65.71C1431.94 64.3847 1431.68 62.7753 1431.68 60.882C1431.68 59.9353 1431.73 58.9177 1431.82 57.829C1431.92 56.693 1432.04 55.5807 1432.18 54.492C1431.14 56.5747 1430 58.5863 1428.77 60.527C1427.59 62.4677 1426.33 64.0533 1425.01 65.284C1423.68 66.5147 1422.29 67.13 1420.82 67.13C1419.26 67.13 1417.98 66.42 1416.98 65C1415.99 63.58 1415.49 61.8997 1415.49 59.959C1415.49 58.5863 1415.71 57.0007 1416.13 55.202C1416.61 53.4033 1417.17 51.6283 1417.84 49.877C1418.5 48.1257 1419.19 46.682 1419.9 45.546C1420.61 44.41 1421.22 43.842 1421.74 43.842C1421.98 43.842 1422.47 43.984 1423.23 44.268C1423.99 44.5047 1424.37 44.836 1424.37 45.262C1423.85 46.0667 1423.21 47.2973 1422.45 48.954C1421.69 50.6107 1421.03 52.4093 1420.46 54.35C1419.9 56.2433 1419.61 57.971 1419.61 59.533C1419.61 59.9117 1419.66 60.5033 1419.75 61.308C1419.85 62.0653 1420.06 62.7517 1420.39 63.367C1420.77 63.9823 1421.34 64.29 1422.1 64.29C1423.18 64.29 1424.34 63.6037 1425.58 62.231C1426.81 60.8583 1428.04 59.1307 1429.27 57.048C1430.5 54.9653 1431.66 52.859 1432.75 50.729C1433.12 48.7883 1433.43 47.3683 1433.67 46.469C1433.95 45.5697 1434.24 45.0017 1434.52 44.765C1434.81 44.481 1435.16 44.339 1435.59 44.339C1436.2 44.339 1436.7 44.481 1437.08 44.765C1437.46 45.0017 1437.65 45.3803 1437.65 45.901C1437.65 46.043 1437.6 46.3033 1437.5 46.682C1437.17 47.818 1436.84 49.2617 1436.51 51.013C1436.23 52.717 1435.99 54.492 1435.8 56.338C1435.61 58.184 1435.52 59.9117 1435.52 61.521C1435.52 63.8403 1436.04 65 1437.08 65C1437.79 65 1438.62 64.574 1439.56 63.722C1440.51 62.8227 1441.48 61.663 1442.47 60.243C1443.51 58.7757 1444.51 57.19 1445.46 55.486C1446.45 53.782 1447.32 52.1017 1448.08 50.445C1448.08 47.9837 1448.25 46.114 1448.58 44.836C1448.96 43.5107 1449.41 42.6113 1449.93 42.138C1450.5 41.6647 1451.06 41.428 1451.63 41.428C1452.53 41.428 1453.17 41.7593 1453.55 42.422C1453.98 43.0373 1454.19 43.6053 1454.19 44.126C1454.19 44.4573 1454.12 44.8123 1453.98 45.191C1453.83 45.5223 1453.64 45.901 1453.41 46.327C1453.03 47.037 1452.65 47.96 1452.27 49.096C1451.89 50.1847 1451.7 51.6993 1451.7 53.64C1451.7 54.3973 1451.77 55.202 1451.92 56.054C1452.06 56.906 1452.37 57.616 1452.84 58.184C1453.31 58.752 1454.05 59.036 1455.04 59.036C1456.03 59.036 1456.98 58.6573 1457.88 57.9C1458.83 57.0953 1459.75 55.7227 1460.65 53.782L1461.57 54.492C1460.53 56.8587 1459.37 58.4443 1458.09 59.249C1456.86 60.0537 1455.68 60.456 1454.54 60.456C1451.51 60.456 1449.53 58.468 1448.58 54.492C1447.4 56.6693 1446.07 58.7757 1444.6 60.811C1443.14 62.8463 1441.62 64.503 1440.06 65.781C1438.5 67.1063 1436.98 67.769 1435.52 67.769ZM1497.72 72.029C1495.97 72.029 1494.58 71.2717 1493.54 69.757C1492.49 68.2897 1491.97 66.5383 1491.97 64.503C1491.97 63.8403 1492.02 62.9647 1492.12 61.876C1492.26 60.74 1492.42 59.462 1492.61 58.042C1490.86 61.9233 1488.73 65.071 1486.22 67.485C1483.71 69.9463 1480.73 71.177 1477.28 71.177C1474.25 71.177 1471.95 70.254 1470.39 68.408C1468.83 66.562 1468.05 64.2663 1468.05 61.521C1468.05 59.675 1468.33 57.4977 1468.9 54.989C1469.51 52.433 1470.27 49.7113 1471.17 46.824C1472.07 43.8893 1472.95 40.931 1473.8 37.949C1474.7 34.967 1475.43 32.127 1476 29.429C1476.61 26.6837 1476.92 24.246 1476.92 22.116C1476.92 17.9507 1475.6 15.868 1472.95 15.868C1471.67 15.868 1470.56 16.294 1469.61 17.146C1468.66 17.9507 1467.88 18.992 1467.27 20.27C1466.65 21.548 1466.18 22.897 1465.85 24.317C1465.56 25.737 1465.42 27.015 1465.42 28.151C1465.42 29.571 1465.61 30.7307 1465.99 31.63C1464.19 31.63 1462.91 31.1567 1462.15 30.21C1461.44 29.216 1461.09 28.0563 1461.09 26.731C1461.09 25.2637 1461.44 23.7727 1462.15 22.258C1462.86 20.7433 1463.83 19.3707 1465.06 18.14C1466.34 16.862 1467.79 15.8443 1469.4 15.087C1471.05 14.2823 1472.8 13.88 1474.65 13.88C1477.25 13.88 1479.12 14.661 1480.26 16.223C1481.39 17.785 1481.96 19.8677 1481.96 22.471C1481.96 25.0743 1481.49 28.08 1480.54 31.488C1479.64 34.8487 1478.65 38.2803 1477.56 41.783C1476.47 45.2383 1475.48 48.599 1474.58 51.865C1473.68 55.0837 1473.23 57.9237 1473.23 60.385C1473.23 62.5623 1473.68 64.432 1474.58 65.994C1475.53 67.556 1477.06 68.337 1479.19 68.337C1481.13 68.337 1482.91 67.698 1484.52 66.42C1486.13 65.1893 1487.55 63.58 1488.78 61.592C1490.01 59.604 1491.05 57.4977 1491.9 55.273C1492.75 53.0483 1493.42 50.9893 1493.89 49.096C1494.55 46.256 1495.29 43.2503 1496.09 40.079C1496.9 36.8603 1497.72 33.7127 1498.58 30.636C1499.48 27.512 1500.35 24.6957 1501.2 22.187C1502.1 19.6783 1502.98 17.6667 1503.83 16.152C1504.68 14.6373 1505.49 13.88 1506.24 13.88C1507.19 13.88 1508.37 14.6373 1509.79 16.152C1509.42 16.436 1508.82 17.4537 1508.02 19.205C1507.21 20.909 1506.32 23.11 1505.32 25.808C1504.33 28.506 1503.33 31.488 1502.34 34.754C1501.35 37.9727 1500.42 41.2623 1499.57 44.623C1498.72 47.9363 1498.03 51.1077 1497.51 54.137C1496.99 57.1663 1496.73 59.7933 1496.73 62.018C1496.73 65.284 1497.16 67.485 1498.01 68.621C1498.91 69.757 1500.38 70.325 1502.41 70.325C1501.51 70.9403 1500.66 71.3663 1499.85 71.603C1499.1 71.887 1498.39 72.029 1497.72 72.029Z" fill="#6272A4"/>
</g>
</g>
<defs>
<filter id="filter0_d" x="2.13" y="13.88" width="1509.66" height="73" filterUnits="userSpaceOnUse" color-interpolation-filters="sRGB">
<feFlood flood-opacity="0" result="BackgroundImageFix"/>
<feColorMatrix in="SourceAlpha" type="matrix" values="0 0 0 0 0 0 0 0 0 0 0 0 0 0 0 0 0 0 127 0" result="hardAlpha"/>
<feOffset dx="2" dy="2"/>
<feComposite in2="hardAlpha" operator="out"/>
<feColorMatrix type="matrix" values="0 0 0 0 0.266667 0 0 0 0 0.278431 0 0 0 0 0.352941 0 0 0 1 0"/>
<feBlend mode="normal" in2="BackgroundImageFix" result="effect1_dropShadow"/>
<feBlend mode="normal" in="SourceGraphic" in2="effect1_dropShadow" result="shape"/>
</filter>
<clipPath id="clip0">
<rect width="1531" height="86" fill="white"/>
</clipPath>
</defs>
</svg>
