<svg width="1577" height="86" viewBox="0 0 1577 86" fill="none" xmlns="http://www.w3.org/2000/svg">
<g clip-path="url(#clip0)">
<path d="M39.024 72.264C37.872 72.264 36.552 71.664 35.064 70.464C33.624 69.312 32.064 67.776 30.384 65.856C28.752 63.936 27.144 61.824 25.56 59.52C23.976 57.216 22.464 54.912 21.024 52.608C19.632 50.256 18.432 48.12 17.424 46.2L10.872 67.368C10.536 68.52 9.912 69.336 9 69.816C8.136 70.344 7.176 70.656 6.12 70.752C5.064 70.896 4.056 70.968 3.096 70.968C3.768 69.48 4.44 67.872 5.112 66.144C5.784 64.464 6.528 62.424 7.344 60.024C8.16 57.624 9.144 54.72 10.296 51.312C11.496 47.904 12.936 43.776 14.616 38.928C16.296 34.08 18.336 28.32 20.736 21.648C20.832 21.312 21 20.856 21.24 20.28C21.48 19.656 21.6 19.08 21.6 18.552C21.6 17.64 21.12 17.184 20.16 17.184C19.008 17.184 17.928 17.64 16.92 18.552C15.912 19.416 15 20.52 14.184 21.864C13.368 23.16 12.72 24.504 12.24 25.896C11.808 27.288 11.592 28.512 11.592 29.568C11.592 30.672 11.832 31.776 12.312 32.88C10.248 32.88 8.76 32.448 7.848 31.584C6.984 30.672 6.552 29.544 6.552 28.2C6.552 26.568 7.056 24.936 8.064 23.304C9.072 21.624 10.344 20.112 11.88 18.768C13.464 17.376 15.12 16.272 16.848 15.456C18.624 14.592 20.256 14.16 21.744 14.16C23.376 14.16 24.432 14.616 24.912 15.528C25.44 16.392 25.704 17.328 25.704 18.336C25.704 18.864 25.656 19.368 25.56 19.848C25.464 20.328 25.344 20.784 25.2 21.216L19.872 38.496C20.4 38.16 21 37.728 21.672 37.2C22.392 36.672 23.448 35.88 24.84 34.824C28.872 31.704 32.64 28.32 36.144 24.672C39.696 21.024 42.648 17.448 45 13.944C45.576 14.472 45.96 15.144 46.152 15.96C46.344 16.728 46.44 17.352 46.44 17.832C46.44 19.32 45.816 20.952 44.568 22.728C43.368 24.456 41.76 26.256 39.744 28.128C37.776 30 35.616 31.848 33.264 33.672C30.912 35.496 28.56 37.2 26.208 38.784C23.856 40.368 21.744 41.76 19.872 42.96C21.408 45.312 22.872 47.544 24.264 49.656C25.704 51.768 27.288 53.856 29.016 55.92C30.744 57.936 32.76 60.048 35.064 62.256C37.416 64.416 40.224 66.744 43.488 69.24C43.056 70.056 42.408 70.752 41.544 71.328C40.68 71.952 39.84 72.264 39.024 72.264ZM49.8926 68.304C47.7326 68.304 46.2446 67.584 45.4286 66.144C44.6606 64.752 44.2766 63.216 44.2766 61.536C44.2766 60 44.5166 58.44 44.9966 56.856C45.4766 55.224 46.1246 53.712 46.9406 52.32C47.8046 50.928 48.7406 49.824 49.7486 49.008C50.8046 48.144 51.8606 47.712 52.9166 47.712C53.2526 47.712 53.6366 47.784 54.0686 47.928C54.5486 48.024 54.8846 48.192 55.0766 48.432C54.3086 49.392 53.5166 50.64 52.7006 52.176C51.9326 53.664 51.2846 55.224 50.7566 56.856C50.2766 58.488 50.0366 59.976 50.0366 61.32C50.0366 62.28 50.2046 63.072 50.5406 63.696C50.9246 64.32 51.5726 64.632 52.4846 64.632C53.3966 64.632 54.4766 64.128 55.7246 63.12C57.0206 62.064 58.2446 60.864 59.3966 59.52C57.8606 58.128 56.7566 56.616 56.0846 54.984C55.4126 53.304 55.0766 51.288 55.0766 48.936C55.0766 47.928 55.3166 46.776 55.7966 45.48C56.3246 44.184 57.1406 43.056 58.2446 42.096C59.3966 41.136 60.9326 40.656 62.8526 40.656C64.9166 40.656 66.3566 41.232 67.1726 42.384C68.0366 43.536 68.4686 44.904 68.4686 46.488C68.4686 48.264 67.9886 50.256 67.0286 52.464C66.1166 54.672 65.0126 56.76 63.7166 58.728C64.2926 59.016 64.9646 59.16 65.7326 59.16C66.4526 59.16 67.3166 58.992 68.3246 58.656C69.3326 58.32 70.3166 57.768 71.2766 57C72.2366 56.184 73.0046 55.104 73.5806 53.76L74.8766 54.696C73.8206 57.144 72.4046 58.944 70.6286 60.096C68.9006 61.2 67.1966 61.752 65.5166 61.752C64.8926 61.752 64.2686 61.704 63.6446 61.608C63.0206 61.464 62.4446 61.296 61.9166 61.104C60.2846 63.024 58.4126 64.704 56.3006 66.144C54.1886 67.584 52.0526 68.304 49.8926 68.304ZM61.2686 57.216C62.4206 55.536 63.4046 53.736 64.2206 51.816C65.0366 49.896 65.4446 48.12 65.4446 46.488C65.4446 44.376 64.7726 43.32 63.4286 43.32C62.5166 43.32 61.5806 43.968 60.6206 45.264C59.6606 46.56 59.1806 48.192 59.1806 50.16C59.1806 51.168 59.3486 52.392 59.6846 53.832C60.0686 55.272 60.5966 56.4 61.2686 57.216ZM96.1937 67.44C94.3217 67.44 92.8817 66.96 91.8737 66C90.9137 65.088 90.4337 63.912 90.4337 62.472C90.4337 61.512 90.6017 60.504 90.9377 59.448C91.2737 58.344 91.6097 57.24 91.9457 56.136C92.2817 55.032 92.4497 53.976 92.4497 52.968C92.4497 51.912 92.1857 51.192 91.6577 50.808C91.1777 50.376 90.6017 50.16 89.9297 50.16C88.4897 50.16 87.0017 50.76 85.4657 51.96C83.9777 53.112 82.5137 54.576 81.0737 56.352C79.6817 58.128 78.3617 59.976 77.1137 61.896C75.8657 63.816 74.7857 65.544 73.8737 67.08C72.9617 67.08 72.0977 66.912 71.2817 66.576C70.4657 66.288 69.7697 65.76 69.1937 64.992C69.2417 64.752 69.5297 64.032 70.0577 62.832C70.5377 61.584 71.0897 60.12 71.7137 58.44C72.3377 56.712 72.8897 54.912 73.3697 53.04C73.8497 51.168 74.0897 49.464 74.0897 47.928C74.4257 47.544 74.9297 47.16 75.6017 46.776C76.3217 46.392 77.0657 46.2 77.8337 46.2C79.5137 46.2 80.3537 46.92 80.3537 48.36C80.3537 49.656 79.9457 51.792 79.1297 54.768C80.3777 53.088 81.7457 51.504 83.2337 50.016C84.7217 48.528 86.2577 47.328 87.8417 46.416C89.4737 45.456 91.1057 44.976 92.7377 44.976C94.8017 44.976 96.3137 45.672 97.2737 47.064C98.2817 48.456 98.7857 49.992 98.7857 51.672C98.7857 53.112 98.5457 54.456 98.0657 55.704C97.5857 56.952 97.1057 58.128 96.6257 59.232C96.1937 60.336 95.9777 61.416 95.9777 62.472C95.9777 63.24 96.1457 63.792 96.4817 64.128C96.8657 64.416 97.2737 64.56 97.7057 64.56C98.8577 64.56 100.058 64.008 101.306 62.904C102.554 61.8 103.73 60.408 104.834 58.728C105.986 57 106.994 55.272 107.858 53.544L109.082 54.552C108.074 56.904 106.922 59.064 105.626 61.032C104.378 62.952 102.962 64.512 101.378 65.712C99.8417 66.864 98.1137 67.44 96.1937 67.44ZM130.225 67.44C128.353 67.44 126.913 66.96 125.905 66C124.945 65.088 124.465 63.912 124.465 62.472C124.465 61.512 124.633 60.504 124.969 59.448C125.305 58.344 125.641 57.24 125.977 56.136C126.313 55.032 126.481 53.976 126.481 52.968C126.481 51.912 126.217 51.192 125.689 50.808C125.209 50.376 124.633 50.16 123.961 50.16C122.521 50.16 121.033 50.76 119.497 51.96C118.009 53.112 116.545 54.576 115.105 56.352C113.713 58.128 112.393 59.976 111.145 61.896C109.897 63.816 108.817 65.544 107.905 67.08C106.993 67.08 106.129 66.912 105.313 66.576C104.497 66.288 103.801 65.76 103.225 64.992C103.273 64.752 103.561 64.032 104.089 62.832C104.569 61.584 105.121 60.12 105.745 58.44C106.369 56.712 106.921 54.912 107.401 53.04C107.881 51.168 108.121 49.464 108.121 47.928C108.457 47.544 108.961 47.16 109.633 46.776C110.353 46.392 111.097 46.2 111.865 46.2C113.545 46.2 114.385 46.92 114.385 48.36C114.385 49.656 113.977 51.792 113.161 54.768C114.409 53.088 115.777 51.504 117.265 50.016C118.753 48.528 120.289 47.328 121.873 46.416C123.505 45.456 125.137 44.976 126.769 44.976C128.833 44.976 130.345 45.672 131.305 47.064C132.313 48.456 132.817 49.992 132.817 51.672C132.817 53.112 132.577 54.456 132.097 55.704C131.617 56.952 131.137 58.128 130.657 59.232C130.225 60.336 130.009 61.416 130.009 62.472C130.009 63.24 130.177 63.792 130.513 64.128C130.897 64.416 131.305 64.56 131.737 64.56C132.889 64.56 134.089 64.008 135.337 62.904C136.585 61.8 137.761 60.408 138.865 58.728C140.017 57 141.025 55.272 141.889 53.544L143.113 54.552C142.105 56.904 140.953 59.064 139.657 61.032C138.409 62.952 136.993 64.512 135.409 65.712C133.873 66.864 132.145 67.44 130.225 67.44ZM154.248 35.688C153.336 35.688 152.496 35.472 151.728 35.04C151.008 34.56 150.648 33.84 150.648 32.88C150.648 31.728 151.272 30.744 152.52 29.928C153.768 29.112 155.064 28.704 156.408 28.704C157.272 28.704 157.992 28.896 158.568 29.28C159.192 29.664 159.504 30.36 159.504 31.368C159.504 32.376 158.952 33.36 157.848 34.32C156.744 35.232 155.544 35.688 154.248 35.688ZM145.752 68.16C143.64 68.16 142.056 67.536 141 66.288C139.944 65.04 139.416 63.528 139.416 61.752C139.416 60.648 139.608 59.256 139.992 57.576C140.376 55.896 140.904 54.144 141.576 52.32C142.296 50.448 143.112 48.696 144.024 47.064C144.936 45.432 145.92 44.112 146.976 43.104C148.032 42.048 149.088 41.52 150.144 41.52C150.72 41.52 151.224 41.712 151.656 42.096C152.088 42.432 152.304 42.936 152.304 43.608C152.304 44.232 151.92 45.168 151.152 46.416C150.432 47.664 149.568 49.104 148.56 50.736C147.6 52.368 146.736 54.072 145.968 55.848C145.248 57.576 144.888 59.232 144.888 60.816C144.888 62.352 145.152 63.384 145.68 63.912C146.256 64.392 147.072 64.632 148.128 64.632C149.76 64.632 151.536 63.816 153.456 62.184C155.376 60.552 157.368 57.696 159.432 53.616L160.512 54.768C158.832 58.992 156.696 62.28 154.104 64.632C151.512 66.984 148.728 68.16 145.752 68.16ZM165.706 70.032C163.21 70.032 161.146 69.24 159.514 67.656C157.93 66.12 157.138 63.744 157.138 60.528C157.138 58.176 157.594 55.872 158.506 53.616C159.418 51.36 160.642 49.344 162.178 47.568C163.714 45.744 165.418 44.304 167.29 43.248C169.21 42.192 171.154 41.664 173.122 41.664C175.138 41.664 176.578 42.168 177.442 43.176C178.354 44.184 178.81 45.36 178.81 46.704C178.81 48.048 178.474 49.368 177.802 50.664C177.178 51.912 176.314 52.536 175.21 52.536C174.298 52.536 173.554 52.08 172.978 51.168C173.458 50.832 173.962 50.208 174.49 49.296C175.018 48.384 175.282 47.208 175.282 45.768C175.282 44.952 174.826 44.544 173.914 44.544C172.714 44.544 171.442 45.096 170.098 46.2C168.802 47.256 167.578 48.648 166.426 50.376C165.322 52.056 164.41 53.856 163.69 55.776C163.018 57.648 162.682 59.376 162.682 60.96C162.682 62.304 163.018 63.552 163.69 64.704C164.41 65.808 165.778 66.36 167.794 66.36C169.618 66.36 171.514 65.832 173.482 64.776C175.45 63.72 177.298 62.256 179.026 60.384C180.754 58.464 182.146 56.184 183.202 53.544L184.642 54.84C183.49 57.768 181.882 60.384 179.818 62.688C177.802 64.944 175.546 66.72 173.05 68.016C170.602 69.36 168.154 70.032 165.706 70.032ZM184.859 68.736C183.803 68.736 183.035 67.92 182.555 66.288C182.123 64.656 181.907 62.76 181.907 60.6C181.907 58.392 182.267 55.728 182.987 52.608C183.755 49.488 184.763 46.2 186.011 42.744C187.307 39.288 188.723 35.904 190.259 32.592C191.843 29.28 193.451 26.28 195.083 23.592C196.763 20.856 198.347 18.672 199.835 17.04C201.371 15.408 202.715 14.592 203.867 14.592C204.875 14.592 205.643 15.144 206.171 16.248C206.699 17.352 206.963 18.504 206.963 19.704C206.963 21 206.651 22.608 206.027 24.528C205.451 26.4 204.635 28.416 203.579 30.576C202.523 32.736 201.275 34.872 199.835 36.984C198.443 39.048 196.907 40.944 195.227 42.672C193.595 44.4 191.891 45.792 190.115 46.848C189.203 49.344 188.555 51.576 188.171 53.544C187.835 55.464 187.667 57.312 187.667 59.088C187.667 59.328 187.667 59.592 187.667 59.88C187.715 60.12 187.739 60.36 187.739 60.6C187.931 60.312 188.243 59.568 188.675 58.368C189.107 57.168 189.683 55.776 190.403 54.192C191.171 52.56 192.107 50.976 193.211 49.44C194.315 47.856 195.611 46.56 197.099 45.552C198.587 44.496 200.291 43.968 202.211 43.968C203.843 43.968 205.115 44.352 206.027 45.12C206.939 45.84 207.587 46.752 207.971 47.856C208.355 48.912 208.547 49.992 208.547 51.096C208.547 52.632 208.283 54.072 207.755 55.416C207.275 56.76 206.771 58.032 206.243 59.232C205.763 60.384 205.523 61.488 205.523 62.544C205.523 63.408 205.715 64.008 206.099 64.344C206.483 64.68 206.939 64.848 207.467 64.848C208.523 64.848 209.747 64.32 211.139 63.264C212.579 62.208 213.995 60.816 215.387 59.088C216.827 57.312 218.051 55.368 219.059 53.256L220.211 54.48C219.107 56.88 217.811 59.088 216.323 61.104C214.835 63.12 213.203 64.728 211.427 65.928C209.651 67.128 207.731 67.728 205.667 67.728C203.843 67.728 202.451 67.248 201.491 66.288C200.531 65.328 200.051 64.128 200.051 62.688C200.051 61.68 200.219 60.576 200.555 59.376C200.939 58.128 201.299 56.88 201.635 55.632C201.971 54.384 202.139 53.256 202.139 52.248C202.139 51.096 201.875 50.304 201.347 49.872C200.867 49.44 200.267 49.224 199.547 49.224C198.347 49.224 197.267 49.704 196.307 50.664C195.347 51.576 194.483 52.776 193.715 54.264C192.947 55.752 192.227 57.336 191.555 59.016C190.883 60.648 190.211 62.208 189.539 63.696C188.867 65.184 188.147 66.384 187.379 67.296C186.659 68.256 185.819 68.736 184.859 68.736ZM191.627 42.24C193.163 40.848 194.627 39.168 196.019 37.2C197.459 35.184 198.731 33.144 199.835 31.08C200.939 29.016 201.803 27.144 202.427 25.464C203.099 23.736 203.459 22.44 203.507 21.576V21.36C203.219 21.36 202.595 21.96 201.635 23.16C200.723 24.312 199.643 25.896 198.395 27.912C197.195 29.88 195.971 32.112 194.723 34.608C193.523 37.104 192.491 39.648 191.627 42.24ZM231.381 35.688C230.469 35.688 229.629 35.472 228.861 35.04C228.141 34.56 227.781 33.84 227.781 32.88C227.781 31.728 228.405 30.744 229.653 29.928C230.901 29.112 232.197 28.704 233.541 28.704C234.405 28.704 235.125 28.896 235.701 29.28C236.325 29.664 236.637 30.36 236.637 31.368C236.637 32.376 236.085 33.36 234.981 34.32C233.877 35.232 232.677 35.688 231.381 35.688ZM222.885 68.16C220.773 68.16 219.189 67.536 218.133 66.288C217.077 65.04 216.549 63.528 216.549 61.752C216.549 60.648 216.741 59.256 217.125 57.576C217.509 55.896 218.037 54.144 218.709 52.32C219.429 50.448 220.245 48.696 221.157 47.064C222.069 45.432 223.053 44.112 224.109 43.104C225.165 42.048 226.221 41.52 227.277 41.52C227.853 41.52 228.357 41.712 228.789 42.096C229.221 42.432 229.437 42.936 229.437 43.608C229.437 44.232 229.053 45.168 228.285 46.416C227.565 47.664 226.701 49.104 225.693 50.736C224.733 52.368 223.869 54.072 223.101 55.848C222.381 57.576 222.021 59.232 222.021 60.816C222.021 62.352 222.285 63.384 222.813 63.912C223.389 64.392 224.205 64.632 225.261 64.632C226.893 64.632 228.669 63.816 230.589 62.184C232.509 60.552 234.501 57.696 236.565 53.616L237.645 54.768C235.965 58.992 233.829 62.28 231.237 64.632C228.645 66.984 225.861 68.16 222.885 68.16ZM255.655 68.736C254.023 68.736 252.919 68.016 252.343 66.576C251.815 65.184 251.503 63.504 251.407 61.536C251.455 60.96 251.479 60.168 251.479 59.16C251.527 58.152 251.575 57.312 251.623 56.64C250.615 58.464 249.511 60.264 248.311 62.04C247.111 63.816 245.839 65.28 244.495 66.432C243.151 67.584 241.735 68.16 240.247 68.16C238.615 68.16 237.271 67.44 236.215 66C235.159 64.512 234.631 62.736 234.631 60.672C234.631 59.28 234.847 57.672 235.279 55.848C235.759 54.024 236.335 52.248 237.007 50.52C237.727 48.792 238.447 47.352 239.167 46.2C239.935 45.048 240.607 44.472 241.183 44.472C241.519 44.472 242.095 44.664 242.911 45.048C243.775 45.432 244.303 45.936 244.495 46.56C243.967 47.328 243.319 48.504 242.551 50.088C241.831 51.672 241.183 53.376 240.607 55.2C240.079 56.976 239.815 58.608 239.815 60.096C239.815 60.384 239.839 60.888 239.887 61.608C239.983 62.28 240.199 62.904 240.535 63.48C240.871 64.056 241.375 64.344 242.047 64.344C243.103 64.344 244.207 63.696 245.359 62.4C246.559 61.104 247.759 59.472 248.959 57.504C250.159 55.536 251.287 53.52 252.343 51.456C252.775 49.392 253.135 47.904 253.423 46.992C253.711 46.08 253.999 45.504 254.287 45.264C254.623 45.024 255.007 44.904 255.439 44.904C257.359 44.904 258.319 45.6 258.319 46.992C258.319 47.04 258.271 47.256 258.175 47.64C258.079 47.976 258.007 48.192 257.959 48.288C257.479 49.776 257.095 51.72 256.807 54.12C256.519 56.472 256.375 58.872 256.375 61.32C256.375 62.472 256.447 63.384 256.591 64.056C256.735 64.68 257.095 64.992 257.671 64.992C258.583 64.992 259.663 64.296 260.911 62.904C262.159 61.512 263.431 59.76 264.727 57.648C266.071 55.536 267.247 53.4 268.255 51.24C268.255 48.744 268.423 46.848 268.759 45.552C269.143 44.256 269.623 43.368 270.199 42.888C270.823 42.36 271.495 42.096 272.215 42.096C273.415 42.096 274.231 42.48 274.663 43.248C275.143 44.016 275.383 44.664 275.383 45.192C275.383 45.672 275.263 46.128 275.023 46.56C274.783 46.944 274.591 47.304 274.447 47.64C274.111 48.36 273.775 49.224 273.439 50.232C273.151 51.24 273.007 52.512 273.007 54.048C273.007 55.296 273.199 56.496 273.583 57.648C273.967 58.8 274.831 59.376 276.175 59.376C277.039 59.376 277.903 58.992 278.767 58.224C279.679 57.456 280.663 56.016 281.719 53.904L283.087 54.984C282.031 57.48 280.831 59.208 279.487 60.168C278.143 61.08 276.847 61.536 275.599 61.536C274.015 61.536 272.671 60.96 271.567 59.808C270.463 58.656 269.599 57.24 268.975 55.56C267.775 57.624 266.431 59.688 264.943 61.752C263.503 63.768 261.991 65.424 260.407 66.72C258.823 68.064 257.239 68.736 255.655 68.736ZM284.157 69.384C282.573 69.384 281.205 68.856 280.053 67.8C278.853 66.744 278.253 65.16 278.253 63.048C278.253 61.368 278.637 59.544 279.405 57.576C280.173 55.608 281.229 53.664 282.573 51.744C283.917 49.824 285.453 48.096 287.181 46.56C288.909 44.976 290.757 43.704 292.725 42.744C294.693 41.784 296.661 41.304 298.629 41.304C300.693 41.304 302.445 41.832 303.885 42.888C305.325 43.944 306.045 45.336 306.045 47.064C306.045 48.36 305.589 49.296 304.677 49.872C303.765 50.448 302.685 50.616 301.437 50.376C301.533 49.944 301.605 49.512 301.653 49.08C301.749 48.648 301.797 48.192 301.797 47.712C301.797 46.752 301.605 45.888 301.221 45.12C300.837 44.352 300.021 43.968 298.773 43.968C297.429 43.968 296.061 44.424 294.669 45.336C293.277 46.248 291.933 47.448 290.637 48.936C289.389 50.376 288.261 51.984 287.253 53.76C286.245 55.488 285.453 57.192 284.877 58.872C284.301 60.552 284.013 62.064 284.013 63.408C284.013 64.944 284.565 65.712 285.669 65.712C286.773 65.712 287.997 65.184 289.341 64.128C290.685 63.024 292.029 61.656 293.373 60.024C294.765 58.392 296.085 56.736 297.333 55.056C298.581 53.328 299.661 51.864 300.573 50.664C300.717 50.424 300.909 50.304 301.149 50.304C301.341 50.352 301.701 50.472 302.229 50.664C302.805 50.808 303.333 51.048 303.813 51.384C304.293 51.72 304.533 52.152 304.533 52.68C304.533 53.304 304.197 54.168 303.525 55.272C302.853 56.328 302.157 57.48 301.437 58.728C300.765 59.976 300.429 61.128 300.429 62.184C300.429 62.808 300.597 63.408 300.933 63.984C301.269 64.512 301.821 64.776 302.589 64.776C303.741 64.776 305.349 63.936 307.413 62.256C309.525 60.528 311.661 57.624 313.821 53.544L315.189 54.912C313.413 58.848 311.205 62.04 308.565 64.488C305.925 66.936 303.261 68.16 300.573 68.16C298.605 68.16 297.141 67.536 296.181 66.288C295.221 65.04 294.693 63.696 294.597 62.256V61.896C292.677 64.2 290.901 66.024 289.269 67.368C287.685 68.712 285.981 69.384 284.157 69.384ZM314.421 72.336C313.125 71.52 312.477 70.464 312.477 69.168C312.477 68.208 312.693 67.152 313.125 66C313.557 64.848 314.109 63.864 314.781 63.048C315.501 62.184 316.245 61.752 317.013 61.752C317.637 61.752 318.165 61.992 318.597 62.472C319.077 62.952 319.317 63.504 319.317 64.128C318.165 65.424 317.277 66.672 316.653 67.872C316.029 69.072 315.285 70.56 314.421 72.336ZM367.311 68.736C365.679 68.736 364.575 68.016 363.999 66.576C363.471 65.184 363.159 63.504 363.063 61.536C363.111 60.96 363.135 60.168 363.135 59.16C363.183 58.152 363.231 57.312 363.279 56.64C362.271 58.464 361.167 60.264 359.967 62.04C358.767 63.816 357.495 65.28 356.151 66.432C354.807 67.584 353.391 68.16 351.903 68.16C350.271 68.16 348.927 67.44 347.871 66C346.815 64.512 346.287 62.736 346.287 60.672C346.287 59.28 346.503 57.672 346.935 55.848C347.415 54.024 347.991 52.248 348.663 50.52C349.383 48.792 350.103 47.352 350.823 46.2C351.591 45.048 352.263 44.472 352.839 44.472C353.175 44.472 353.751 44.664 354.567 45.048C355.431 45.432 355.959 45.936 356.151 46.56C355.623 47.328 354.975 48.504 354.207 50.088C353.487 51.672 352.839 53.376 352.263 55.2C351.735 56.976 351.471 58.608 351.471 60.096C351.471 60.384 351.495 60.888 351.543 61.608C351.639 62.28 351.855 62.904 352.191 63.48C352.527 64.056 353.031 64.344 353.703 64.344C354.759 64.344 355.863 63.696 357.015 62.4C358.215 61.104 359.415 59.472 360.615 57.504C361.815 55.536 362.943 53.52 363.999 51.456C364.431 49.392 364.791 47.904 365.079 46.992C365.367 46.08 365.655 45.504 365.943 45.264C366.279 45.024 366.663 44.904 367.095 44.904C369.015 44.904 369.975 45.6 369.975 46.992C369.975 47.04 369.927 47.256 369.831 47.64C369.735 47.976 369.663 48.192 369.615 48.288C369.135 49.776 368.751 51.72 368.463 54.12C368.175 56.472 368.031 58.872 368.031 61.32C368.031 62.472 368.103 63.384 368.247 64.056C368.391 64.68 368.751 64.992 369.327 64.992C370.239 64.992 371.319 64.296 372.567 62.904C373.815 61.512 375.087 59.76 376.383 57.648C377.727 55.536 378.903 53.4 379.911 51.24C379.911 48.744 380.079 46.848 380.415 45.552C380.799 44.256 381.279 43.368 381.855 42.888C382.479 42.36 383.151 42.096 383.871 42.096C385.071 42.096 385.887 42.48 386.319 43.248C386.799 44.016 387.039 44.664 387.039 45.192C387.039 45.672 386.919 46.128 386.679 46.56C386.439 46.944 386.247 47.304 386.103 47.64C385.767 48.36 385.431 49.224 385.095 50.232C384.807 51.24 384.663 52.512 384.663 54.048C384.663 55.296 384.855 56.496 385.239 57.648C385.623 58.8 386.487 59.376 387.831 59.376C388.695 59.376 389.559 58.992 390.423 58.224C391.335 57.456 392.319 56.016 393.375 53.904L394.743 54.984C393.687 57.48 392.487 59.208 391.143 60.168C389.799 61.08 388.503 61.536 387.255 61.536C385.671 61.536 384.327 60.96 383.223 59.808C382.119 58.656 381.255 57.24 380.631 55.56C379.431 57.624 378.087 59.688 376.599 61.752C375.159 63.768 373.647 65.424 372.063 66.72C370.479 68.064 368.895 68.736 367.311 68.736ZM395.813 69.384C394.229 69.384 392.861 68.856 391.709 67.8C390.509 66.744 389.909 65.16 389.909 63.048C389.909 61.368 390.293 59.544 391.061 57.576C391.829 55.608 392.885 53.664 394.229 51.744C395.573 49.824 397.109 48.096 398.837 46.56C400.565 44.976 402.413 43.704 404.381 42.744C406.349 41.784 408.317 41.304 410.285 41.304C412.349 41.304 414.101 41.832 415.541 42.888C416.981 43.944 417.701 45.336 417.701 47.064C417.701 48.36 417.245 49.296 416.333 49.872C415.421 50.448 414.341 50.616 413.093 50.376C413.189 49.944 413.261 49.512 413.309 49.08C413.405 48.648 413.453 48.192 413.453 47.712C413.453 46.752 413.261 45.888 412.877 45.12C412.493 44.352 411.677 43.968 410.429 43.968C409.085 43.968 407.717 44.424 406.325 45.336C404.933 46.248 403.589 47.448 402.293 48.936C401.045 50.376 399.917 51.984 398.909 53.76C397.901 55.488 397.109 57.192 396.533 58.872C395.957 60.552 395.669 62.064 395.669 63.408C395.669 64.944 396.221 65.712 397.325 65.712C398.429 65.712 399.653 65.184 400.997 64.128C402.341 63.024 403.685 61.656 405.029 60.024C406.421 58.392 407.741 56.736 408.989 55.056C410.237 53.328 411.317 51.864 412.229 50.664C412.373 50.424 412.565 50.304 412.805 50.304C412.997 50.352 413.357 50.472 413.885 50.664C414.461 50.808 414.989 51.048 415.469 51.384C415.949 51.72 416.189 52.152 416.189 52.68C416.189 53.304 415.853 54.168 415.181 55.272C414.509 56.328 413.813 57.48 413.093 58.728C412.421 59.976 412.085 61.128 412.085 62.184C412.085 62.808 412.253 63.408 412.589 63.984C412.925 64.512 413.477 64.776 414.245 64.776C415.397 64.776 417.005 63.936 419.069 62.256C421.181 60.528 423.317 57.624 425.477 53.544L426.845 54.912C425.069 58.848 422.861 62.04 420.221 64.488C417.581 66.936 414.917 68.16 412.229 68.16C410.261 68.16 408.797 67.536 407.837 66.288C406.877 65.04 406.349 63.696 406.253 62.256V61.896C404.333 64.2 402.557 66.024 400.925 67.368C399.341 68.712 397.637 69.384 395.813 69.384ZM430.325 69.312C428.213 69.312 426.509 68.688 425.213 67.44C423.917 66.192 423.269 64.296 423.269 61.752C423.269 59.784 423.629 57.336 424.349 54.408C425.117 51.48 426.077 48.456 427.229 45.336C426.893 45.24 426.485 45.168 426.005 45.12C425.573 45.024 425.141 44.88 424.709 44.688V42.456C425.477 42.552 426.101 42.624 426.581 42.672C427.109 42.72 427.637 42.768 428.165 42.816C429.173 40.272 430.253 37.824 431.405 35.472C432.605 33.072 433.781 30.936 434.933 29.064C436.133 27.192 437.261 25.728 438.317 24.672C439.373 23.568 440.309 23.016 441.125 23.016C441.605 23.016 442.061 23.208 442.493 23.592C442.925 23.928 443.141 24.432 443.141 25.104C443.141 26.064 442.637 27.432 441.629 29.208C440.669 30.984 439.469 33.072 438.029 35.472C436.589 37.824 435.197 40.344 433.853 43.032H436.085C438.197 43.032 440.093 43.008 441.773 42.96C443.501 42.864 445.253 42.72 447.029 42.528V44.904C444.389 45.144 441.965 45.336 439.757 45.48C437.549 45.624 435.437 45.72 433.421 45.768H432.557C431.549 48.12 430.661 50.544 429.893 53.04C429.173 55.488 428.813 57.888 428.813 60.24C428.813 62.208 429.125 63.6 429.749 64.416C430.373 65.232 431.357 65.64 432.701 65.64C435.101 65.64 437.549 64.56 440.045 62.4C442.589 60.192 444.797 57.216 446.669 53.472L447.677 54.192C446.429 57.024 444.869 59.592 442.997 61.896C441.173 64.2 439.181 66 437.021 67.296C434.861 68.64 432.629 69.312 430.325 69.312ZM448.548 69.384C446.964 69.384 445.596 68.856 444.444 67.8C443.244 66.744 442.644 65.16 442.644 63.048C442.644 61.368 443.028 59.544 443.796 57.576C444.564 55.608 445.62 53.664 446.964 51.744C448.308 49.824 449.844 48.096 451.572 46.56C453.3 44.976 455.148 43.704 457.116 42.744C459.084 41.784 461.052 41.304 463.02 41.304C465.084 41.304 466.836 41.832 468.276 42.888C469.716 43.944 470.436 45.336 470.436 47.064C470.436 48.36 469.98 49.296 469.068 49.872C468.156 50.448 467.076 50.616 465.828 50.376C465.924 49.944 465.996 49.512 466.044 49.08C466.14 48.648 466.188 48.192 466.188 47.712C466.188 46.752 465.996 45.888 465.612 45.12C465.228 44.352 464.412 43.968 463.164 43.968C461.82 43.968 460.452 44.424 459.06 45.336C457.668 46.248 456.324 47.448 455.028 48.936C453.78 50.376 452.652 51.984 451.644 53.76C450.636 55.488 449.844 57.192 449.268 58.872C448.692 60.552 448.404 62.064 448.404 63.408C448.404 64.944 448.956 65.712 450.06 65.712C451.164 65.712 452.388 65.184 453.732 64.128C455.076 63.024 456.42 61.656 457.764 60.024C459.156 58.392 460.476 56.736 461.724 55.056C462.972 53.328 464.052 51.864 464.964 50.664C465.108 50.424 465.3 50.304 465.54 50.304C465.732 50.352 466.092 50.472 466.62 50.664C467.196 50.808 467.724 51.048 468.204 51.384C468.684 51.72 468.924 52.152 468.924 52.68C468.924 53.304 468.588 54.168 467.916 55.272C467.244 56.328 466.548 57.48 465.828 58.728C465.156 59.976 464.82 61.128 464.82 62.184C464.82 62.808 464.988 63.408 465.324 63.984C465.66 64.512 466.212 64.776 466.98 64.776C468.132 64.776 469.74 63.936 471.804 62.256C473.916 60.528 476.052 57.624 478.212 53.544L479.58 54.912C477.804 58.848 475.596 62.04 472.956 64.488C470.316 66.936 467.652 68.16 464.964 68.16C462.996 68.16 461.532 67.536 460.572 66.288C459.612 65.04 459.084 63.696 458.988 62.256V61.896C457.068 64.2 455.292 66.024 453.66 67.368C452.076 68.712 450.372 69.384 448.548 69.384ZM484.932 69.672C482.532 69.672 480.588 69.168 479.1 68.16C477.66 67.2 476.628 65.976 476.004 64.488C475.38 62.952 475.068 61.392 475.068 59.808C475.068 58.416 475.26 57.336 475.644 56.568C476.028 55.8 476.508 55.248 477.084 54.912C477.66 54.528 478.188 54.24 478.668 54.048C479.196 53.856 479.58 53.64 479.82 53.4C481.02 52.152 482.244 50.712 483.492 49.08C484.788 47.4 485.892 45.552 486.804 43.536V42.816C486.804 40.896 487.116 39.552 487.74 38.784C488.412 37.968 489.18 37.56 490.044 37.56C490.62 37.56 491.028 37.704 491.268 37.992C491.556 38.28 491.724 38.616 491.772 39C491.772 39.288 491.7 39.624 491.556 40.008C491.46 40.392 491.412 40.92 491.412 41.592C491.412 43.032 491.748 44.688 492.42 46.56C493.14 48.384 493.836 50.328 494.508 52.392C495.228 54.456 495.588 56.568 495.588 58.728C495.588 59.304 495.564 59.832 495.516 60.312C495.468 60.792 495.396 61.248 495.3 61.68C496.788 61.296 498.252 60.48 499.692 59.232C501.132 57.936 502.5 56.04 503.796 53.544L504.66 54.192C503.748 56.928 502.428 59.136 500.7 60.816C498.972 62.448 496.956 63.456 494.652 63.84C493.884 65.808 492.612 67.272 490.836 68.232C489.108 69.192 487.14 69.672 484.932 69.672ZM489.612 61.536C489.708 61.2 489.756 60.816 489.756 60.384C489.804 59.904 489.828 59.544 489.828 59.304C489.78 57.144 489.492 55.008 488.964 52.896C488.436 50.784 487.908 48.624 487.38 46.416C486.516 47.904 485.508 49.512 484.356 51.24C483.204 52.968 482.124 54.36 481.116 55.416C481.884 56.712 483.012 57.936 484.5 59.088C485.988 60.24 487.692 61.056 489.612 61.536ZM484.428 66.504C485.388 66.504 486.276 66.264 487.092 65.784C487.908 65.304 488.556 64.608 489.036 63.696C487.068 63.264 485.292 62.496 483.708 61.392C482.124 60.288 480.9 59.16 480.036 58.008C479.364 58.152 479.028 58.8 479.028 59.952C479.028 61.536 479.484 63.024 480.396 64.416C481.308 65.808 482.652 66.504 484.428 66.504ZM505.062 68.736C504.006 68.736 503.238 67.92 502.758 66.288C502.326 64.656 502.11 62.76 502.11 60.6C502.11 58.392 502.47 55.728 503.19 52.608C503.958 49.488 504.966 46.2 506.214 42.744C507.51 39.288 508.926 35.904 510.462 32.592C512.046 29.28 513.654 26.28 515.286 23.592C516.966 20.856 518.55 18.672 520.038 17.04C521.574 15.408 522.918 14.592 524.07 14.592C525.078 14.592 525.846 15.144 526.374 16.248C526.902 17.352 527.166 18.504 527.166 19.704C527.166 21 526.854 22.608 526.23 24.528C525.654 26.4 524.838 28.416 523.782 30.576C522.726 32.736 521.478 34.872 520.038 36.984C518.646 39.048 517.11 40.944 515.43 42.672C513.798 44.4 512.094 45.792 510.318 46.848C509.406 49.344 508.758 51.576 508.374 53.544C508.038 55.464 507.87 57.312 507.87 59.088C507.87 59.328 507.87 59.592 507.87 59.88C507.918 60.12 507.942 60.36 507.942 60.6C508.134 60.312 508.446 59.568 508.878 58.368C509.31 57.168 509.886 55.776 510.606 54.192C511.374 52.56 512.31 50.976 513.414 49.44C514.518 47.856 515.814 46.56 517.302 45.552C518.79 44.496 520.494 43.968 522.414 43.968C524.046 43.968 525.318 44.352 526.23 45.12C527.142 45.84 527.79 46.752 528.174 47.856C528.558 48.912 528.75 49.992 528.75 51.096C528.75 52.632 528.486 54.072 527.958 55.416C527.478 56.76 526.974 58.032 526.446 59.232C525.966 60.384 525.726 61.488 525.726 62.544C525.726 63.408 525.918 64.008 526.302 64.344C526.686 64.68 527.142 64.848 527.67 64.848C528.726 64.848 529.95 64.32 531.342 63.264C532.782 62.208 534.198 60.816 535.59 59.088C537.03 57.312 538.254 55.368 539.262 53.256L540.414 54.48C539.31 56.88 538.014 59.088 536.526 61.104C535.038 63.12 533.406 64.728 531.63 65.928C529.854 67.128 527.934 67.728 525.87 67.728C524.046 67.728 522.654 67.248 521.694 66.288C520.734 65.328 520.254 64.128 520.254 62.688C520.254 61.68 520.422 60.576 520.758 59.376C521.142 58.128 521.502 56.88 521.838 55.632C522.174 54.384 522.342 53.256 522.342 52.248C522.342 51.096 522.078 50.304 521.55 49.872C521.07 49.44 520.47 49.224 519.75 49.224C518.55 49.224 517.47 49.704 516.51 50.664C515.55 51.576 514.686 52.776 513.918 54.264C513.15 55.752 512.43 57.336 511.758 59.016C511.086 60.648 510.414 62.208 509.742 63.696C509.07 65.184 508.35 66.384 507.582 67.296C506.862 68.256 506.022 68.736 505.062 68.736ZM511.83 42.24C513.366 40.848 514.83 39.168 516.222 37.2C517.662 35.184 518.934 33.144 520.038 31.08C521.142 29.016 522.006 27.144 522.63 25.464C523.302 23.736 523.662 22.44 523.71 21.576V21.36C523.422 21.36 522.798 21.96 521.838 23.16C520.926 24.312 519.846 25.896 518.598 27.912C517.398 29.88 516.174 32.112 514.926 34.608C513.726 37.104 512.694 39.648 511.83 42.24ZM551.584 35.688C550.672 35.688 549.832 35.472 549.064 35.04C548.344 34.56 547.984 33.84 547.984 32.88C547.984 31.728 548.608 30.744 549.856 29.928C551.104 29.112 552.4 28.704 553.744 28.704C554.608 28.704 555.328 28.896 555.904 29.28C556.528 29.664 556.84 30.36 556.84 31.368C556.84 32.376 556.288 33.36 555.184 34.32C554.08 35.232 552.88 35.688 551.584 35.688ZM543.088 68.16C540.976 68.16 539.392 67.536 538.336 66.288C537.28 65.04 536.752 63.528 536.752 61.752C536.752 60.648 536.944 59.256 537.328 57.576C537.712 55.896 538.24 54.144 538.912 52.32C539.632 50.448 540.448 48.696 541.36 47.064C542.272 45.432 543.256 44.112 544.312 43.104C545.368 42.048 546.424 41.52 547.48 41.52C548.056 41.52 548.56 41.712 548.992 42.096C549.424 42.432 549.64 42.936 549.64 43.608C549.64 44.232 549.256 45.168 548.488 46.416C547.768 47.664 546.904 49.104 545.896 50.736C544.936 52.368 544.072 54.072 543.304 55.848C542.584 57.576 542.224 59.232 542.224 60.816C542.224 62.352 542.488 63.384 543.016 63.912C543.592 64.392 544.408 64.632 545.464 64.632C547.096 64.632 548.872 63.816 550.792 62.184C552.712 60.552 554.704 57.696 556.768 53.616L557.848 54.768C556.168 58.992 554.032 62.28 551.44 64.632C548.848 66.984 546.064 68.16 543.088 68.16ZM594.561 68.736C592.929 68.736 591.825 68.016 591.249 66.576C590.721 65.184 590.409 63.504 590.313 61.536C590.361 60.96 590.385 60.168 590.385 59.16C590.433 58.152 590.481 57.312 590.529 56.64C589.521 58.464 588.417 60.264 587.217 62.04C586.017 63.816 584.745 65.28 583.401 66.432C582.057 67.584 580.641 68.16 579.153 68.16C577.521 68.16 576.177 67.44 575.121 66C574.065 64.512 573.537 62.736 573.537 60.672C573.537 59.28 573.753 57.672 574.185 55.848C574.665 54.024 575.241 52.248 575.913 50.52C576.633 48.792 577.353 47.352 578.073 46.2C578.841 45.048 579.513 44.472 580.089 44.472C580.425 44.472 581.001 44.664 581.817 45.048C582.681 45.432 583.209 45.936 583.401 46.56C582.873 47.328 582.225 48.504 581.457 50.088C580.737 51.672 580.089 53.376 579.513 55.2C578.985 56.976 578.721 58.608 578.721 60.096C578.721 60.384 578.745 60.888 578.793 61.608C578.889 62.28 579.105 62.904 579.441 63.48C579.777 64.056 580.281 64.344 580.953 64.344C582.009 64.344 583.113 63.696 584.265 62.4C585.465 61.104 586.665 59.472 587.865 57.504C589.065 55.536 590.193 53.52 591.249 51.456C591.681 49.392 592.041 47.904 592.329 46.992C592.617 46.08 592.905 45.504 593.193 45.264C593.529 45.024 593.913 44.904 594.345 44.904C596.265 44.904 597.225 45.6 597.225 46.992C597.225 47.04 597.177 47.256 597.081 47.64C596.985 47.976 596.913 48.192 596.865 48.288C596.385 49.776 596.001 51.72 595.713 54.12C595.425 56.472 595.281 58.872 595.281 61.32C595.281 62.472 595.353 63.384 595.497 64.056C595.641 64.68 596.001 64.992 596.577 64.992C597.489 64.992 598.569 64.296 599.817 62.904C601.065 61.512 602.337 59.76 603.633 57.648C604.977 55.536 606.153 53.4 607.161 51.24C607.161 48.744 607.329 46.848 607.665 45.552C608.049 44.256 608.529 43.368 609.105 42.888C609.729 42.36 610.401 42.096 611.121 42.096C612.321 42.096 613.137 42.48 613.569 43.248C614.049 44.016 614.289 44.664 614.289 45.192C614.289 45.672 614.169 46.128 613.929 46.56C613.689 46.944 613.497 47.304 613.353 47.64C613.017 48.36 612.681 49.224 612.345 50.232C612.057 51.24 611.913 52.512 611.913 54.048C611.913 55.296 612.105 56.496 612.489 57.648C612.873 58.8 613.737 59.376 615.081 59.376C615.945 59.376 616.809 58.992 617.673 58.224C618.585 57.456 619.569 56.016 620.625 53.904L621.993 54.984C620.937 57.48 619.737 59.208 618.393 60.168C617.049 61.08 615.753 61.536 614.505 61.536C612.921 61.536 611.577 60.96 610.473 59.808C609.369 58.656 608.505 57.24 607.881 55.56C606.681 57.624 605.337 59.688 603.849 61.752C602.409 63.768 600.897 65.424 599.313 66.72C597.729 68.064 596.145 68.736 594.561 68.736ZM623.063 69.384C621.479 69.384 620.111 68.856 618.959 67.8C617.759 66.744 617.159 65.16 617.159 63.048C617.159 61.368 617.543 59.544 618.311 57.576C619.079 55.608 620.135 53.664 621.479 51.744C622.823 49.824 624.359 48.096 626.087 46.56C627.815 44.976 629.663 43.704 631.631 42.744C633.599 41.784 635.567 41.304 637.535 41.304C639.599 41.304 641.351 41.832 642.791 42.888C644.231 43.944 644.951 45.336 644.951 47.064C644.951 48.36 644.495 49.296 643.583 49.872C642.671 50.448 641.591 50.616 640.343 50.376C640.439 49.944 640.511 49.512 640.559 49.08C640.655 48.648 640.703 48.192 640.703 47.712C640.703 46.752 640.511 45.888 640.127 45.12C639.743 44.352 638.927 43.968 637.679 43.968C636.335 43.968 634.967 44.424 633.575 45.336C632.183 46.248 630.839 47.448 629.543 48.936C628.295 50.376 627.167 51.984 626.159 53.76C625.151 55.488 624.359 57.192 623.783 58.872C623.207 60.552 622.919 62.064 622.919 63.408C622.919 64.944 623.471 65.712 624.575 65.712C625.679 65.712 626.903 65.184 628.247 64.128C629.591 63.024 630.935 61.656 632.279 60.024C633.671 58.392 634.991 56.736 636.239 55.056C637.487 53.328 638.567 51.864 639.479 50.664C639.623 50.424 639.815 50.304 640.055 50.304C640.247 50.352 640.607 50.472 641.135 50.664C641.711 50.808 642.239 51.048 642.719 51.384C643.199 51.72 643.439 52.152 643.439 52.68C643.439 53.304 643.103 54.168 642.431 55.272C641.759 56.328 641.063 57.48 640.343 58.728C639.671 59.976 639.335 61.128 639.335 62.184C639.335 62.808 639.503 63.408 639.839 63.984C640.175 64.512 640.727 64.776 641.495 64.776C642.647 64.776 644.255 63.936 646.319 62.256C648.431 60.528 650.567 57.624 652.727 53.544L654.095 54.912C652.319 58.848 650.111 62.04 647.471 64.488C644.831 66.936 642.167 68.16 639.479 68.16C637.511 68.16 636.047 67.536 635.087 66.288C634.127 65.04 633.599 63.696 633.503 62.256V61.896C631.583 64.2 629.807 66.024 628.175 67.368C626.591 68.712 624.887 69.384 623.063 69.384ZM687.727 72.264C684.079 72.264 681.079 71.4 678.727 69.672C676.423 67.944 674.719 65.712 673.615 62.976C672.559 60.24 672.031 57.408 672.031 54.48C672.031 50.688 672.607 46.896 673.759 43.104C674.911 39.264 676.495 35.616 678.511 32.16C680.575 28.704 682.903 25.632 685.495 22.944C688.087 20.256 690.847 18.144 693.775 16.608C696.751 15.024 699.703 14.232 702.631 14.232C704.743 14.232 706.519 14.736 707.959 15.744C709.399 16.704 710.119 18.384 710.119 20.784C710.119 22.224 709.855 23.832 709.327 25.608C708.847 27.384 708.175 29.112 707.311 30.792C706.495 32.424 705.559 33.768 704.503 34.824C703.447 35.88 702.367 36.408 701.263 36.408C700.783 36.408 700.279 36.24 699.751 35.904C699.223 35.568 698.743 34.992 698.311 34.176C699.031 33.36 699.847 32.376 700.759 31.224C701.671 30.024 702.535 28.776 703.351 27.48C704.167 26.136 704.839 24.84 705.367 23.592C705.895 22.296 706.159 21.168 706.159 20.208C706.159 19.344 705.919 18.672 705.439 18.192C704.959 17.664 704.119 17.4 702.919 17.4C700.807 17.4 698.623 18.192 696.367 19.776C694.159 21.36 692.023 23.496 689.959 26.184C687.895 28.824 686.023 31.8 684.343 35.112C682.711 38.376 681.415 41.76 680.455 45.264C679.495 48.72 679.015 52.008 679.015 55.128C679.015 57.432 679.351 59.64 680.023 61.752C680.743 63.816 681.871 65.496 683.407 66.792C684.943 68.136 686.959 68.808 689.455 68.808C692.047 68.808 694.615 68.088 697.159 66.648C699.751 65.208 702.103 63.312 704.215 60.96C706.375 58.608 708.103 56.088 709.399 53.4L711.271 54.624C709.591 57.84 707.575 60.792 705.223 63.48C702.871 66.12 700.207 68.232 697.231 69.816C694.303 71.448 691.135 72.264 687.727 72.264ZM712.447 68.304C710.287 68.304 708.799 67.584 707.983 66.144C707.215 64.752 706.831 63.216 706.831 61.536C706.831 60 707.071 58.44 707.551 56.856C708.031 55.224 708.679 53.712 709.495 52.32C710.359 50.928 711.295 49.824 712.303 49.008C713.359 48.144 714.415 47.712 715.471 47.712C715.807 47.712 716.191 47.784 716.623 47.928C717.103 48.024 717.439 48.192 717.631 48.432C716.863 49.392 716.071 50.64 715.255 52.176C714.487 53.664 713.839 55.224 713.311 56.856C712.831 58.488 712.591 59.976 712.591 61.32C712.591 62.28 712.759 63.072 713.095 63.696C713.479 64.32 714.127 64.632 715.039 64.632C715.951 64.632 717.031 64.128 718.279 63.12C719.575 62.064 720.799 60.864 721.951 59.52C720.415 58.128 719.311 56.616 718.639 54.984C717.967 53.304 717.631 51.288 717.631 48.936C717.631 47.928 717.871 46.776 718.351 45.48C718.879 44.184 719.695 43.056 720.799 42.096C721.951 41.136 723.487 40.656 725.407 40.656C727.471 40.656 728.911 41.232 729.727 42.384C730.591 43.536 731.023 44.904 731.023 46.488C731.023 48.264 730.543 50.256 729.583 52.464C728.671 54.672 727.567 56.76 726.271 58.728C726.847 59.016 727.519 59.16 728.287 59.16C729.007 59.16 729.871 58.992 730.879 58.656C731.887 58.32 732.871 57.768 733.831 57C734.791 56.184 735.559 55.104 736.135 53.76L737.431 54.696C736.375 57.144 734.959 58.944 733.183 60.096C731.455 61.2 729.751 61.752 728.071 61.752C727.447 61.752 726.823 61.704 726.199 61.608C725.575 61.464 724.999 61.296 724.471 61.104C722.839 63.024 720.967 64.704 718.855 66.144C716.743 67.584 714.607 68.304 712.447 68.304ZM723.823 57.216C724.975 55.536 725.959 53.736 726.775 51.816C727.591 49.896 727.999 48.12 727.999 46.488C727.999 44.376 727.327 43.32 725.983 43.32C725.071 43.32 724.135 43.968 723.175 45.264C722.215 46.56 721.735 48.192 721.735 50.16C721.735 51.168 721.903 52.392 722.239 53.832C722.623 55.272 723.151 56.4 723.823 57.216ZM772.14 68.232C770.268 68.232 768.876 67.68 767.964 66.576C767.052 65.472 766.596 64.152 766.596 62.616C766.596 61.512 766.764 60.408 767.1 59.304C767.436 58.2 767.772 57.12 768.108 56.064C768.444 54.96 768.612 53.976 768.612 53.112C768.612 52.296 768.444 51.744 768.108 51.456C767.82 51.12 767.436 50.952 766.956 50.952C765.852 50.952 764.556 51.792 763.068 53.472C761.628 55.152 759.828 57.6 757.668 60.816C756.9 61.968 756.18 63.192 755.508 64.488C754.836 65.736 754.236 66.792 753.708 67.656C753.276 67.656 752.7 67.584 751.98 67.44C751.308 67.296 750.708 67.08 750.18 66.792C749.652 66.552 749.388 66.216 749.388 65.784C749.388 65.352 749.628 64.512 750.108 63.264C750.588 62.016 751.14 60.576 751.764 58.944C752.388 57.264 752.94 55.632 753.42 54.048C753.9 52.416 754.14 51.048 754.14 49.944C754.14 48.504 753.636 47.784 752.628 47.784C751.62 47.784 750.396 48.384 748.956 49.584C747.564 50.784 746.076 52.368 744.492 54.336C742.956 56.256 741.492 58.416 740.1 60.816C738.756 63.168 737.652 65.544 736.788 67.944C736.26 67.944 735.612 67.824 734.844 67.584C734.076 67.392 733.404 67.128 732.828 66.792C732.252 66.504 731.964 66.24 731.964 66C731.964 65.952 732.132 65.28 732.468 63.984C732.804 62.64 733.212 60.984 733.692 59.016C734.172 57.048 734.676 55.032 735.204 52.968C735.732 50.904 736.188 49.104 736.572 47.568C736.716 47.04 737.244 46.584 738.156 46.2C739.068 45.768 739.86 45.552 740.532 45.552C741.204 45.552 741.78 45.768 742.26 46.2C742.74 46.632 742.98 47.208 742.98 47.928C742.98 48.408 742.884 49.104 742.692 50.016C742.5 50.928 742.26 51.96 741.972 53.112C743.316 51.288 744.756 49.536 746.292 47.856C747.876 46.176 749.484 44.808 751.116 43.752C752.796 42.648 754.428 42.096 756.012 42.096C757.788 42.096 758.988 42.744 759.612 44.04C760.236 45.288 760.548 46.656 760.548 48.144C760.548 49.104 760.428 50.016 760.188 50.88C759.996 51.696 759.708 52.704 759.324 53.904C760.716 51.888 762.276 50.16 764.004 48.72C765.78 47.232 767.7 46.488 769.764 46.488C771.636 46.488 772.932 47.064 773.652 48.216C774.372 49.32 774.732 50.544 774.732 51.888C774.732 53.136 774.516 54.456 774.084 55.848C773.7 57.192 773.292 58.488 772.86 59.736C772.476 60.936 772.284 61.968 772.284 62.832C772.284 63.312 772.404 63.768 772.644 64.2C772.884 64.584 773.364 64.776 774.084 64.776C775.38 64.776 776.628 64.176 777.828 62.976C779.028 61.776 780.132 60.312 781.14 58.584C782.196 56.808 783.084 55.128 783.804 53.544L785.028 55.056C784.26 57.024 783.252 59.04 782.004 61.104C780.804 63.12 779.388 64.8 777.756 66.144C776.124 67.536 774.252 68.232 772.14 68.232ZM777.984 86.16C777.408 86.16 776.808 85.944 776.184 85.512C775.512 85.08 775.152 84.696 775.104 84.36C776.304 80.856 777.336 77.808 778.2 75.216C779.016 72.672 779.712 70.248 780.288 67.944C780.864 65.688 781.392 63.336 781.872 60.888C782.304 58.392 782.736 55.56 783.168 52.392C783.648 49.176 784.176 45.312 784.752 40.8C784.848 40.224 784.968 39.816 785.112 39.576C785.256 39.288 785.712 39.144 786.48 39.144C787.968 39.144 789.048 39.552 789.72 40.368C790.392 41.136 790.728 42 790.728 42.96C790.728 44.112 790.392 46.368 789.72 49.728C790.632 48.336 791.664 47.016 792.816 45.768C794.016 44.52 795.336 43.512 796.776 42.744C798.216 41.928 799.776 41.52 801.456 41.52C803.808 41.52 805.752 42.312 807.288 43.896C808.824 45.48 809.592 47.568 809.592 50.16C809.592 52.032 809.16 54.024 808.296 56.136C807.48 58.2 806.304 60.168 804.768 62.04C803.232 63.864 801.384 65.352 799.224 66.504C797.064 67.704 794.688 68.304 792.096 68.304C790.56 68.304 789.336 68.112 788.424 67.728C787.512 67.344 787.056 66.912 787.056 66.432C787.056 66.096 787.224 65.904 787.56 65.856C787.944 65.76 788.352 65.712 788.784 65.712C791.04 65.664 793.08 65.184 794.904 64.272C796.776 63.36 798.384 62.184 799.728 60.744C801.072 59.256 802.104 57.672 802.824 55.992C803.544 54.312 803.904 52.656 803.904 51.024C803.904 49.584 803.568 48.336 802.896 47.28C802.272 46.224 801.264 45.696 799.872 45.696C798.672 45.696 797.448 46.08 796.2 46.848C795 47.616 793.872 48.6 792.816 49.8C791.76 50.952 790.824 52.176 790.008 53.472C789.192 54.72 788.568 55.824 788.136 56.784C787.224 59.952 786.384 63.096 785.616 66.216C784.896 69.384 784.2 72.312 783.528 75C782.856 77.688 782.184 79.968 781.512 81.84C780.792 83.712 780.024 84.984 779.208 85.656C778.824 85.992 778.416 86.16 777.984 86.16ZM815.79 69.384C814.206 69.384 812.838 68.856 811.686 67.8C810.486 66.744 809.886 65.16 809.886 63.048C809.886 61.368 810.27 59.544 811.038 57.576C811.806 55.608 812.862 53.664 814.206 51.744C815.55 49.824 817.086 48.096 818.814 46.56C820.542 44.976 822.39 43.704 824.358 42.744C826.326 41.784 828.294 41.304 830.262 41.304C832.326 41.304 834.078 41.832 835.518 42.888C836.958 43.944 837.678 45.336 837.678 47.064C837.678 48.36 837.222 49.296 836.31 49.872C835.398 50.448 834.318 50.616 833.07 50.376C833.166 49.944 833.238 49.512 833.286 49.08C833.382 48.648 833.43 48.192 833.43 47.712C833.43 46.752 833.238 45.888 832.854 45.12C832.47 44.352 831.654 43.968 830.406 43.968C829.062 43.968 827.694 44.424 826.302 45.336C824.91 46.248 823.566 47.448 822.27 48.936C821.022 50.376 819.894 51.984 818.886 53.76C817.878 55.488 817.086 57.192 816.51 58.872C815.934 60.552 815.646 62.064 815.646 63.408C815.646 64.944 816.198 65.712 817.302 65.712C818.406 65.712 819.63 65.184 820.974 64.128C822.318 63.024 823.662 61.656 825.006 60.024C826.398 58.392 827.718 56.736 828.966 55.056C830.214 53.328 831.294 51.864 832.206 50.664C832.35 50.424 832.542 50.304 832.782 50.304C832.974 50.352 833.334 50.472 833.862 50.664C834.438 50.808 834.966 51.048 835.446 51.384C835.926 51.72 836.166 52.152 836.166 52.68C836.166 53.304 835.83 54.168 835.158 55.272C834.486 56.328 833.79 57.48 833.07 58.728C832.398 59.976 832.062 61.128 832.062 62.184C832.062 62.808 832.23 63.408 832.566 63.984C832.902 64.512 833.454 64.776 834.222 64.776C835.374 64.776 836.982 63.936 839.046 62.256C841.158 60.528 843.294 57.624 845.454 53.544L846.822 54.912C845.046 58.848 842.838 62.04 840.198 64.488C837.558 66.936 834.894 68.16 832.206 68.16C830.238 68.16 828.774 67.536 827.814 66.288C826.854 65.04 826.326 63.696 826.23 62.256V61.896C824.31 64.2 822.534 66.024 820.902 67.368C819.318 68.712 817.614 69.384 815.79 69.384ZM857.07 67.872C855.294 67.872 853.854 67.392 852.75 66.432C851.646 65.52 851.094 64.272 851.094 62.688C851.094 61.344 851.43 59.904 852.102 58.368C852.774 56.832 853.446 55.32 854.118 53.832C854.838 52.344 855.198 51.024 855.198 49.872C855.198 48.768 854.838 47.856 854.118 47.136C853.398 46.368 852.558 45.744 851.598 45.264C850.542 47.904 849.342 50.472 847.998 52.968C846.702 55.416 845.646 57.336 844.83 58.728L843.75 56.64C844.422 55.392 845.31 53.616 846.414 51.312C847.518 49.008 848.574 46.44 849.582 43.608C849.102 43.128 848.862 42.48 848.862 41.664C848.862 40.416 849.246 39.24 850.014 38.136C850.782 37.032 851.526 36.48 852.246 36.48C852.822 36.48 853.23 36.816 853.47 37.488C853.758 38.112 853.902 38.544 853.902 38.784C853.902 39.024 853.782 39.456 853.542 40.08C853.35 40.704 853.206 41.16 853.11 41.448C853.158 41.976 853.566 42.504 854.334 43.032C855.15 43.512 856.062 44.088 857.07 44.76C858.078 45.432 858.966 46.272 859.734 47.28C860.502 48.288 860.886 49.56 860.886 51.096C860.886 52.488 860.574 53.904 859.95 55.344C859.326 56.784 858.702 58.128 858.078 59.376C857.454 60.624 857.142 61.704 857.142 62.616C857.142 63.288 857.31 63.744 857.646 63.984C858.03 64.176 858.462 64.272 858.942 64.272C860.094 64.272 861.294 63.936 862.542 63.264C863.79 62.544 865.014 61.632 866.214 60.528C867.414 59.424 868.47 58.272 869.382 57.072C870.294 55.824 870.99 54.696 871.47 53.688L873.198 54.984C872.286 57.048 870.966 59.088 869.238 61.104C867.51 63.072 865.59 64.704 863.478 66C861.366 67.248 859.23 67.872 857.07 67.872ZM874.658 68.304C872.498 68.304 871.01 67.584 870.194 66.144C869.426 64.752 869.042 63.216 869.042 61.536C869.042 60 869.282 58.44 869.762 56.856C870.242 55.224 870.89 53.712 871.706 52.32C872.57 50.928 873.506 49.824 874.514 49.008C875.57 48.144 876.626 47.712 877.682 47.712C878.018 47.712 878.402 47.784 878.834 47.928C879.314 48.024 879.65 48.192 879.842 48.432C879.074 49.392 878.282 50.64 877.466 52.176C876.698 53.664 876.05 55.224 875.522 56.856C875.042 58.488 874.802 59.976 874.802 61.32C874.802 62.28 874.97 63.072 875.306 63.696C875.69 64.32 876.338 64.632 877.25 64.632C878.162 64.632 879.242 64.128 880.49 63.12C881.786 62.064 883.01 60.864 884.162 59.52C882.626 58.128 881.522 56.616 880.85 54.984C880.178 53.304 879.842 51.288 879.842 48.936C879.842 47.928 880.082 46.776 880.562 45.48C881.09 44.184 881.906 43.056 883.01 42.096C884.162 41.136 885.698 40.656 887.618 40.656C889.682 40.656 891.122 41.232 891.938 42.384C892.802 43.536 893.234 44.904 893.234 46.488C893.234 48.264 892.754 50.256 891.794 52.464C890.882 54.672 889.778 56.76 888.482 58.728C889.058 59.016 889.73 59.16 890.498 59.16C891.218 59.16 892.082 58.992 893.09 58.656C894.098 58.32 895.082 57.768 896.042 57C897.002 56.184 897.77 55.104 898.346 53.76L899.642 54.696C898.586 57.144 897.17 58.944 895.394 60.096C893.666 61.2 891.962 61.752 890.282 61.752C889.658 61.752 889.034 61.704 888.41 61.608C887.786 61.464 887.21 61.296 886.682 61.104C885.05 63.024 883.178 64.704 881.066 66.144C878.954 67.584 876.818 68.304 874.658 68.304ZM886.034 57.216C887.186 55.536 888.17 53.736 888.986 51.816C889.802 49.896 890.21 48.12 890.21 46.488C890.21 44.376 889.538 43.32 888.194 43.32C887.282 43.32 886.346 43.968 885.386 45.264C884.426 46.56 883.946 48.192 883.946 50.16C883.946 51.168 884.114 52.392 884.45 53.832C884.834 55.272 885.362 56.4 886.034 57.216ZM903.247 69.312C901.135 69.312 899.431 68.688 898.135 67.44C896.839 66.192 896.191 64.296 896.191 61.752C896.191 59.784 896.551 57.336 897.271 54.408C898.039 51.48 898.999 48.456 900.151 45.336C899.815 45.24 899.407 45.168 898.927 45.12C898.495 45.024 898.063 44.88 897.631 44.688V42.456C898.399 42.552 899.023 42.624 899.503 42.672C900.031 42.72 900.559 42.768 901.087 42.816C902.095 40.272 903.175 37.824 904.327 35.472C905.527 33.072 906.703 30.936 907.855 29.064C909.055 27.192 910.183 25.728 911.239 24.672C912.295 23.568 913.231 23.016 914.047 23.016C914.527 23.016 914.983 23.208 915.415 23.592C915.847 23.928 916.063 24.432 916.063 25.104C916.063 26.064 915.559 27.432 914.551 29.208C913.591 30.984 912.391 33.072 910.951 35.472C909.511 37.824 908.119 40.344 906.775 43.032H909.007C911.119 43.032 913.015 43.008 914.695 42.96C916.423 42.864 918.175 42.72 919.951 42.528V44.904C917.311 45.144 914.887 45.336 912.679 45.48C910.471 45.624 908.359 45.72 906.343 45.768H905.479C904.471 48.12 903.583 50.544 902.815 53.04C902.095 55.488 901.735 57.888 901.735 60.24C901.735 62.208 902.047 63.6 902.671 64.416C903.295 65.232 904.279 65.64 905.623 65.64C908.023 65.64 910.471 64.56 912.967 62.4C915.511 60.192 917.719 57.216 919.591 53.472L920.599 54.192C919.351 57.024 917.791 59.592 915.919 61.896C914.095 64.2 912.103 66 909.943 67.296C907.783 68.64 905.551 69.312 903.247 69.312ZM923.99 69.312C921.878 69.312 920.174 68.688 918.878 67.44C917.582 66.192 916.933 64.296 916.933 61.752C916.933 59.784 917.293 57.336 918.014 54.408C918.782 51.48 919.742 48.456 920.894 45.336C920.558 45.24 920.15 45.168 919.67 45.12C919.238 45.024 918.806 44.88 918.374 44.688V42.456C919.142 42.552 919.766 42.624 920.246 42.672C920.774 42.72 921.302 42.768 921.83 42.816C922.838 40.272 923.918 37.824 925.07 35.472C926.27 33.072 927.446 30.936 928.598 29.064C929.798 27.192 930.926 25.728 931.982 24.672C933.038 23.568 933.974 23.016 934.79 23.016C935.27 23.016 935.726 23.208 936.158 23.592C936.59 23.928 936.806 24.432 936.806 25.104C936.806 26.064 936.302 27.432 935.294 29.208C934.334 30.984 933.134 33.072 931.694 35.472C930.254 37.824 928.862 40.344 927.518 43.032H929.75C931.862 43.032 933.758 43.008 935.438 42.96C937.166 42.864 938.918 42.72 940.694 42.528V44.904C938.054 45.144 935.63 45.336 933.422 45.48C931.214 45.624 929.102 45.72 927.086 45.768H926.222C925.214 48.12 924.326 50.544 923.558 53.04C922.838 55.488 922.478 57.888 922.478 60.24C922.478 62.208 922.79 63.6 923.414 64.416C924.038 65.232 925.022 65.64 926.366 65.64C928.766 65.64 931.214 64.56 933.71 62.4C936.254 60.192 938.462 57.216 940.334 53.472L941.342 54.192C940.094 57.024 938.534 59.592 936.662 61.896C934.838 64.2 932.846 66 930.686 67.296C928.526 68.64 926.294 69.312 923.99 69.312ZM942.932 68.304C940.772 68.304 939.284 67.584 938.468 66.144C937.7 64.752 937.316 63.216 937.316 61.536C937.316 60 937.556 58.44 938.036 56.856C938.516 55.224 939.164 53.712 939.98 52.32C940.844 50.928 941.78 49.824 942.788 49.008C943.844 48.144 944.9 47.712 945.956 47.712C946.292 47.712 946.676 47.784 947.108 47.928C947.588 48.024 947.924 48.192 948.116 48.432C947.348 49.392 946.556 50.64 945.74 52.176C944.972 53.664 944.324 55.224 943.796 56.856C943.316 58.488 943.076 59.976 943.076 61.32C943.076 62.28 943.244 63.072 943.58 63.696C943.964 64.32 944.612 64.632 945.524 64.632C946.436 64.632 947.516 64.128 948.764 63.12C950.06 62.064 951.284 60.864 952.436 59.52C950.9 58.128 949.796 56.616 949.124 54.984C948.452 53.304 948.116 51.288 948.116 48.936C948.116 47.928 948.356 46.776 948.836 45.48C949.364 44.184 950.18 43.056 951.284 42.096C952.436 41.136 953.972 40.656 955.892 40.656C957.956 40.656 959.396 41.232 960.212 42.384C961.076 43.536 961.508 44.904 961.508 46.488C961.508 48.264 961.028 50.256 960.068 52.464C959.156 54.672 958.052 56.76 956.756 58.728C957.332 59.016 958.004 59.16 958.772 59.16C959.492 59.16 960.356 58.992 961.364 58.656C962.372 58.32 963.356 57.768 964.316 57C965.276 56.184 966.044 55.104 966.62 53.76L967.916 54.696C966.86 57.144 965.444 58.944 963.668 60.096C961.94 61.2 960.236 61.752 958.556 61.752C957.932 61.752 957.308 61.704 956.684 61.608C956.06 61.464 955.484 61.296 954.956 61.104C953.324 63.024 951.452 64.704 949.34 66.144C947.228 67.584 945.092 68.304 942.932 68.304ZM954.308 57.216C955.46 55.536 956.444 53.736 957.26 51.816C958.076 49.896 958.484 48.12 958.484 46.488C958.484 44.376 957.812 43.32 956.468 43.32C955.556 43.32 954.62 43.968 953.66 45.264C952.7 46.56 952.22 48.192 952.22 50.16C952.22 51.168 952.388 52.392 952.724 53.832C953.108 55.272 953.636 56.4 954.308 57.216ZM983.312 72.264C983.648 71.256 984.776 68.664 986.696 64.488C988.664 60.264 991.304 54.576 994.616 47.424C997.976 40.224 1001.91 31.68 1006.42 21.792C1006.62 21.408 1006.76 21 1006.86 20.568C1007 20.136 1007.07 19.752 1007.07 19.416C1007.07 18.936 1006.93 18.552 1006.64 18.264C1006.35 17.976 1005.8 17.832 1004.98 17.832C1002.97 17.832 1001.31 18.456 1000.02 19.704C998.768 20.904 997.832 22.392 997.208 24.168C996.632 25.944 996.344 27.696 996.344 29.424C996.344 29.856 996.368 30.36 996.416 30.936C996.464 31.512 996.536 32.16 996.632 32.88C995.48 32.88 994.52 32.544 993.752 31.872C993.032 31.152 992.48 30.288 992.096 29.28C991.712 28.224 991.52 27.24 991.52 26.328C991.52 24.792 991.952 23.304 992.816 21.864C993.728 20.424 994.904 19.128 996.344 17.976C997.784 16.776 999.368 15.84 1001.1 15.168C1002.87 14.496 1004.62 14.16 1006.35 14.16C1008.13 14.16 1009.64 14.664 1010.89 15.672C1012.14 16.632 1013.1 18.408 1013.77 21C1014.44 23.544 1014.78 27.216 1014.78 32.016C1014.78 35.136 1014.66 38.304 1014.42 41.52C1014.22 44.688 1014.01 47.664 1013.77 50.448C1013.53 53.232 1013.41 55.608 1013.41 57.576C1014.37 54.744 1015.54 51.744 1016.94 48.576C1018.38 45.36 1019.91 42.192 1021.54 39.072C1023.18 35.904 1024.78 32.928 1026.37 30.144C1027.95 27.36 1029.37 24.936 1030.62 22.872C1031.91 20.76 1032.9 19.2 1033.57 18.192C1034.24 17.136 1034.84 16.344 1035.37 15.816C1035.9 15.288 1036.62 15.024 1037.53 15.024C1038.2 15.024 1039.26 15.288 1040.7 15.816C1040.26 16.728 1039.76 18.192 1039.18 20.208C1038.61 22.176 1037.98 24.48 1037.31 27.12C1036.59 30 1035.87 33.168 1035.15 36.624C1034.43 40.032 1033.78 43.488 1033.21 46.992C1032.63 50.496 1032.15 53.832 1031.77 57C1031.43 60.12 1031.26 62.88 1031.26 65.28C1031.26 66.528 1031.31 67.512 1031.41 68.232C1031.55 68.952 1031.72 69.576 1031.91 70.104C1032.15 70.68 1032.42 71.4 1032.7 72.264C1030.64 72.264 1029.06 71.952 1027.95 71.328C1026.9 70.704 1026.18 69.696 1025.79 68.304C1025.46 66.96 1025.29 65.16 1025.29 62.904C1025.29 57.576 1025.89 51.984 1027.09 46.128C1028.34 40.224 1029.78 34.152 1031.41 27.912C1030.06 29.832 1028.67 32.112 1027.23 34.752C1025.79 37.392 1024.38 40.176 1022.98 43.104C1021.59 46.032 1020.27 48.936 1019.02 51.816C1017.78 54.648 1016.67 57.288 1015.71 59.736C1014.75 62.136 1014.01 64.152 1013.48 65.784C1012.76 66.024 1012.26 66.144 1011.97 66.144C1010.29 66.144 1009.21 65.136 1008.73 63.12C1008.3 61.056 1008.08 58.248 1008.08 54.696C1008.08 52.152 1008.13 49.44 1008.22 46.56C1008.32 43.632 1008.42 40.68 1008.51 37.704C1008.61 34.68 1008.66 31.824 1008.66 29.136C1008.66 28.416 1008.63 27.696 1008.58 26.976C1008.58 26.256 1008.58 25.56 1008.58 24.888C1004.94 33.384 1001.84 40.656 999.296 46.704C996.8 52.704 994.664 57.6 992.888 61.392C991.112 65.136 989.48 67.872 987.992 69.6C986.504 71.376 984.944 72.264 983.312 72.264ZM1044.09 69.384C1042.51 69.384 1041.14 68.856 1039.99 67.8C1038.79 66.744 1038.19 65.16 1038.19 63.048C1038.19 61.368 1038.57 59.544 1039.34 57.576C1040.11 55.608 1041.17 53.664 1042.51 51.744C1043.85 49.824 1045.39 48.096 1047.12 46.56C1048.85 44.976 1050.69 43.704 1052.66 42.744C1054.63 41.784 1056.6 41.304 1058.57 41.304C1060.63 41.304 1062.38 41.832 1063.82 42.888C1065.26 43.944 1065.98 45.336 1065.98 47.064C1065.98 48.36 1065.53 49.296 1064.61 49.872C1063.7 50.448 1062.62 50.616 1061.37 50.376C1061.47 49.944 1061.54 49.512 1061.59 49.08C1061.69 48.648 1061.73 48.192 1061.73 47.712C1061.73 46.752 1061.54 45.888 1061.16 45.12C1060.77 44.352 1059.96 43.968 1058.71 43.968C1057.37 43.968 1056 44.424 1054.61 45.336C1053.21 46.248 1051.87 47.448 1050.57 48.936C1049.33 50.376 1048.2 51.984 1047.19 53.76C1046.18 55.488 1045.39 57.192 1044.81 58.872C1044.24 60.552 1043.95 62.064 1043.95 63.408C1043.95 64.944 1044.5 65.712 1045.61 65.712C1046.71 65.712 1047.93 65.184 1049.28 64.128C1050.62 63.024 1051.97 61.656 1053.31 60.024C1054.7 58.392 1056.02 56.736 1057.27 55.056C1058.52 53.328 1059.6 51.864 1060.51 50.664C1060.65 50.424 1060.85 50.304 1061.09 50.304C1061.28 50.352 1061.64 50.472 1062.17 50.664C1062.74 50.808 1063.27 51.048 1063.75 51.384C1064.23 51.72 1064.47 52.152 1064.47 52.68C1064.47 53.304 1064.13 54.168 1063.46 55.272C1062.79 56.328 1062.09 57.48 1061.37 58.728C1060.7 59.976 1060.37 61.128 1060.37 62.184C1060.37 62.808 1060.53 63.408 1060.87 63.984C1061.21 64.512 1061.76 64.776 1062.53 64.776C1063.68 64.776 1065.29 63.936 1067.35 62.256C1069.46 60.528 1071.6 57.624 1073.76 53.544L1075.13 54.912C1073.35 58.848 1071.14 62.04 1068.5 64.488C1065.86 66.936 1063.2 68.16 1060.51 68.16C1058.54 68.16 1057.08 67.536 1056.12 66.288C1055.16 65.04 1054.63 63.696 1054.53 62.256V61.896C1052.61 64.2 1050.84 66.024 1049.21 67.368C1047.62 68.712 1045.92 69.384 1044.09 69.384ZM1078.89 69.312C1076.64 69.312 1074.84 68.688 1073.49 67.44C1072.2 66.192 1071.55 64.32 1071.55 61.824C1071.55 59.76 1071.96 57.12 1072.77 53.904C1073.59 50.688 1074.6 47.472 1075.8 44.256C1075.37 44.112 1074.96 43.992 1074.57 43.896C1074.24 43.752 1073.78 43.56 1073.21 43.32V41.088C1074.07 41.232 1074.72 41.376 1075.15 41.52C1075.58 41.616 1076.11 41.712 1076.73 41.808C1078.08 38.4 1079.52 35.256 1081.05 32.376C1082.59 29.496 1084.08 27.192 1085.52 25.464C1086.96 23.736 1088.21 22.872 1089.26 22.872C1089.79 22.872 1090.27 23.064 1090.7 23.448C1091.13 23.832 1091.35 24.264 1091.35 24.744C1091.35 25.32 1091.06 26.256 1090.49 27.552C1089.91 28.848 1089.17 30.312 1088.25 31.944C1087.39 33.528 1086.5 35.112 1085.59 36.696C1084.73 38.28 1083.93 39.648 1083.21 40.8C1082.54 41.952 1082.13 42.696 1081.99 43.032C1084.44 43.464 1086.65 43.68 1088.61 43.68C1090.01 43.68 1091.45 43.584 1092.93 43.392C1094.42 43.2 1096.08 42.936 1097.9 42.6C1099.2 39.144 1100.64 35.76 1102.22 32.448C1103.81 29.088 1105.41 26.088 1107.05 23.448C1108.73 20.76 1110.31 18.624 1111.8 17.04C1113.33 15.408 1114.68 14.592 1115.83 14.592C1116.79 14.592 1117.53 15.144 1118.06 16.248C1118.59 17.304 1118.85 18.456 1118.85 19.704C1118.85 21.288 1118.45 23.208 1117.63 25.464C1116.81 27.72 1115.69 30.048 1114.25 32.448C1112.81 34.848 1111.1 37.104 1109.13 39.216C1107.21 41.328 1105.13 43.032 1102.87 44.328C1102.25 45.768 1101.67 47.568 1101.14 49.728C1100.66 51.84 1100.28 53.904 1099.99 55.92C1099.7 57.936 1099.56 59.544 1099.56 60.744C1100.71 57.72 1102.01 54.936 1103.45 52.392C1104.89 49.848 1106.49 47.808 1108.27 46.272C1110.09 44.736 1112.06 43.968 1114.17 43.968C1116.38 43.968 1117.99 44.712 1119 46.2C1120.01 47.64 1120.51 49.224 1120.51 50.952C1120.51 52.344 1120.25 53.76 1119.72 55.2C1119.24 56.592 1118.73 57.936 1118.21 59.232C1117.73 60.48 1117.49 61.608 1117.49 62.616C1117.49 63.48 1117.68 64.08 1118.06 64.416C1118.49 64.752 1118.95 64.92 1119.43 64.92C1120.49 64.92 1121.71 64.392 1123.1 63.336C1124.54 62.232 1125.93 60.792 1127.28 59.016C1128.67 57.24 1129.82 55.344 1130.73 53.328L1132.1 54.624C1131.05 57.024 1129.77 59.232 1128.29 61.248C1126.8 63.264 1125.14 64.848 1123.32 66C1121.54 67.2 1119.65 67.8 1117.63 67.8C1115.81 67.8 1114.39 67.32 1113.38 66.36C1112.42 65.4 1111.94 64.2 1111.94 62.76C1111.94 61.752 1112.11 60.672 1112.45 59.52C1112.83 58.32 1113.19 57.096 1113.53 55.848C1113.86 54.6 1114.03 53.448 1114.03 52.392C1114.03 51.288 1113.79 50.496 1113.31 50.016C1112.88 49.536 1112.28 49.296 1111.51 49.296C1110.36 49.296 1109.3 49.776 1108.34 50.736C1107.43 51.648 1106.59 52.848 1105.82 54.336C1105.05 55.824 1104.33 57.408 1103.66 59.088C1102.99 60.72 1102.32 62.28 1101.65 63.768C1101.02 65.256 1100.35 66.456 1099.63 67.368C1098.96 68.328 1098.21 68.808 1097.4 68.808C1096.68 68.808 1096.08 68.448 1095.6 67.728C1095.17 67.008 1094.81 66.144 1094.52 65.136C1094.23 64.128 1094.04 63.144 1093.94 62.184C1093.85 61.176 1093.8 60.408 1093.8 59.88C1091.88 62.664 1089.62 64.92 1087.03 66.648C1084.49 68.424 1081.77 69.312 1078.89 69.312ZM1104.31 39.792C1106.18 38.16 1107.86 36.312 1109.35 34.248C1110.84 32.184 1112.09 30.144 1113.09 28.128C1114.1 26.112 1114.77 24.408 1115.11 23.016C1115.25 22.344 1115.33 21.816 1115.33 21.432C1114.85 21.576 1113.93 22.464 1112.59 24.096C1111.29 25.728 1109.88 27.912 1108.34 30.648C1106.85 33.336 1105.51 36.384 1104.31 39.792ZM1080.98 65.712C1083.38 65.712 1085.78 64.68 1088.18 62.616C1090.63 60.504 1092.74 57.624 1094.52 53.976C1094.81 52.536 1095.12 51.168 1095.45 49.872C1095.79 48.576 1096.22 47.16 1096.75 45.624C1093.87 46.2 1091.16 46.488 1088.61 46.488C1087.32 46.488 1086.02 46.416 1084.73 46.272C1083.43 46.128 1082.11 45.936 1080.77 45.696C1079.71 48.048 1078.85 50.424 1078.17 52.824C1077.5 55.224 1077.17 57.672 1077.17 60.168C1077.17 62.136 1077.43 63.552 1077.96 64.416C1078.53 65.28 1079.54 65.712 1080.98 65.712ZM1137.36 69.168C1134.29 69.168 1131.91 68.328 1130.23 66.648C1128.6 65.016 1127.78 62.952 1127.78 60.456C1127.78 58.344 1128.31 56.112 1129.37 53.76C1130.47 51.36 1131.94 49.128 1133.76 47.064C1135.58 44.952 1137.6 43.248 1139.81 41.952C1142.02 40.656 1144.22 40.008 1146.43 40.008C1147.68 40.008 1148.86 40.344 1149.96 41.016C1151.11 41.64 1151.69 42.912 1151.69 44.832C1151.69 46.656 1151.16 48.36 1150.1 49.944C1149.05 51.528 1147.63 52.944 1145.86 54.192C1144.08 55.44 1142.11 56.472 1139.95 57.288C1137.84 58.056 1135.7 58.56 1133.54 58.8C1133.5 58.992 1133.45 59.208 1133.4 59.448C1133.4 59.64 1133.4 59.976 1133.4 60.456C1133.4 60.696 1133.42 61.128 1133.47 61.752C1133.57 62.328 1133.78 62.952 1134.12 63.624C1134.46 64.296 1135.01 64.872 1135.78 65.352C1136.54 65.832 1137.6 66.072 1138.94 66.072C1140.96 66.072 1142.98 65.52 1144.99 64.416C1147.06 63.264 1148.98 61.752 1150.75 59.88C1152.58 58.008 1154.09 55.92 1155.29 53.616L1156.73 54.768C1155.43 57.648 1153.75 60.168 1151.69 62.328C1149.67 64.488 1147.42 66.168 1144.92 67.368C1142.47 68.568 1139.95 69.168 1137.36 69.168ZM1134.34 56.136C1135.58 55.992 1136.98 55.56 1138.51 54.84C1140.05 54.12 1141.51 53.208 1142.9 52.104C1144.34 51 1145.52 49.8 1146.43 48.504C1147.34 47.16 1147.8 45.816 1147.8 44.472C1147.8 43.944 1147.7 43.584 1147.51 43.392C1147.32 43.2 1147.01 43.104 1146.58 43.104C1145.47 43.104 1144.32 43.512 1143.12 44.328C1141.92 45.096 1140.74 46.128 1139.59 47.424C1138.44 48.672 1137.41 50.064 1136.5 51.6C1135.58 53.136 1134.86 54.648 1134.34 56.136ZM1159.02 68.16C1157.39 68.16 1156.04 67.416 1154.99 65.928C1153.98 64.392 1153.47 62.64 1153.47 60.672C1153.47 59.328 1153.69 57.744 1154.12 55.92C1154.55 54.096 1155.11 52.32 1155.78 50.592C1156.5 48.864 1157.22 47.424 1157.94 46.272C1158.71 45.12 1159.4 44.544 1160.03 44.544C1160.36 44.544 1160.87 44.736 1161.54 45.12C1162.26 45.456 1162.88 45.888 1163.41 46.416C1162.88 47.184 1162.23 48.36 1161.47 49.944C1160.75 51.528 1160.1 53.232 1159.52 55.056C1158.95 56.88 1158.66 58.536 1158.66 60.024C1158.66 60.216 1158.68 60.672 1158.73 61.392C1158.83 62.112 1159.02 62.784 1159.31 63.408C1159.59 64.032 1160.1 64.344 1160.82 64.344C1161.63 64.344 1162.5 63.912 1163.41 63.048C1164.37 62.136 1165.33 60.984 1166.29 59.592C1167.3 58.152 1168.26 56.616 1169.17 54.984C1170.13 53.352 1170.97 51.768 1171.69 50.232C1172.46 48.696 1173.08 47.4 1173.56 46.344C1173.99 46.392 1174.55 46.512 1175.22 46.704C1175.94 46.896 1176.56 47.16 1177.09 47.496C1177.62 47.784 1177.88 48.216 1177.88 48.792C1177.88 48.936 1177.64 49.536 1177.16 50.592C1176.73 51.6 1176.2 52.824 1175.58 54.264C1175 55.704 1174.47 57.192 1173.99 58.728C1173.56 60.216 1173.35 61.536 1173.35 62.688C1173.35 63.36 1173.47 63.96 1173.71 64.488C1173.99 64.968 1174.52 65.208 1175.29 65.208C1176.3 65.208 1177.5 64.752 1178.89 63.84C1180.28 62.928 1181.72 61.608 1183.21 59.88C1184.7 58.152 1186.02 56.088 1187.17 53.688L1188.25 54.552C1187.19 57.144 1185.83 59.472 1184.15 61.536C1182.47 63.6 1180.67 65.208 1178.75 66.36C1176.83 67.56 1174.95 68.16 1173.13 68.16C1171.74 68.16 1170.68 67.824 1169.96 67.152C1169.29 66.528 1168.83 65.712 1168.59 64.704C1168.35 63.648 1168.21 62.592 1168.16 61.536V60.096C1167.35 61.392 1166.46 62.664 1165.5 63.912C1164.54 65.112 1163.51 66.12 1162.4 66.936C1161.35 67.752 1160.22 68.16 1159.02 68.16ZM1193.75 69.672C1191.35 69.672 1189.41 69.168 1187.92 68.16C1186.48 67.2 1185.45 65.976 1184.82 64.488C1184.2 62.952 1183.89 61.392 1183.89 59.808C1183.89 58.416 1184.08 57.336 1184.46 56.568C1184.85 55.8 1185.33 55.248 1185.9 54.912C1186.48 54.528 1187.01 54.24 1187.49 54.048C1188.02 53.856 1188.4 53.64 1188.64 53.4C1189.84 52.152 1191.06 50.712 1192.31 49.08C1193.61 47.4 1194.71 45.552 1195.62 43.536V42.816C1195.62 40.896 1195.94 39.552 1196.56 38.784C1197.23 37.968 1198 37.56 1198.86 37.56C1199.44 37.56 1199.85 37.704 1200.09 37.992C1200.38 38.28 1200.54 38.616 1200.59 39C1200.59 39.288 1200.52 39.624 1200.38 40.008C1200.28 40.392 1200.23 40.92 1200.23 41.592C1200.23 43.032 1200.57 44.688 1201.24 46.56C1201.96 48.384 1202.66 50.328 1203.33 52.392C1204.05 54.456 1204.41 56.568 1204.41 58.728C1204.41 59.304 1204.38 59.832 1204.34 60.312C1204.29 60.792 1204.22 61.248 1204.12 61.68C1205.61 61.296 1207.07 60.48 1208.51 59.232C1209.95 57.936 1211.32 56.04 1212.62 53.544L1213.48 54.192C1212.57 56.928 1211.25 59.136 1209.52 60.816C1207.79 62.448 1205.78 63.456 1203.47 63.84C1202.7 65.808 1201.43 67.272 1199.66 68.232C1197.93 69.192 1195.96 69.672 1193.75 69.672ZM1198.43 61.536C1198.53 61.2 1198.58 60.816 1198.58 60.384C1198.62 59.904 1198.65 59.544 1198.65 59.304C1198.6 57.144 1198.31 55.008 1197.78 52.896C1197.26 50.784 1196.73 48.624 1196.2 46.416C1195.34 47.904 1194.33 49.512 1193.18 51.24C1192.02 52.968 1190.94 54.36 1189.94 55.416C1190.7 56.712 1191.83 57.936 1193.32 59.088C1194.81 60.24 1196.51 61.056 1198.43 61.536ZM1193.25 66.504C1194.21 66.504 1195.1 66.264 1195.91 65.784C1196.73 65.304 1197.38 64.608 1197.86 63.696C1195.89 63.264 1194.11 62.496 1192.53 61.392C1190.94 60.288 1189.72 59.16 1188.86 58.008C1188.18 58.152 1187.85 58.8 1187.85 59.952C1187.85 61.536 1188.3 63.024 1189.22 64.416C1190.13 65.808 1191.47 66.504 1193.25 66.504ZM1215.94 55.776C1216.27 54.72 1216.94 53.88 1217.95 53.256C1218.96 52.632 1220.09 52.176 1221.34 51.888C1222.58 51.6 1223.76 51.432 1224.86 51.384C1225.97 51.288 1226.81 51.24 1227.38 51.24C1228.01 51.24 1229.04 51.264 1230.48 51.312C1231.92 51.36 1233.48 51.408 1235.16 51.456C1236.84 51.504 1238.4 51.552 1239.84 51.6C1241.28 51.648 1242.31 51.696 1242.94 51.744C1242.46 52.848 1241.35 53.784 1239.62 54.552C1237.94 55.272 1236.12 55.632 1234.15 55.632C1233.14 55.632 1231.85 55.56 1230.26 55.416C1228.68 55.272 1226.98 55.2 1225.15 55.2C1223.95 55.2 1222.7 55.248 1221.41 55.344C1220.11 55.392 1218.96 55.464 1217.95 55.56C1216.99 55.656 1216.32 55.728 1215.94 55.776ZM1256.89 69.672C1254.49 69.672 1252.55 69.168 1251.06 68.16C1249.62 67.2 1248.59 65.976 1247.96 64.488C1247.34 62.952 1247.03 61.392 1247.03 59.808C1247.03 58.416 1247.22 57.336 1247.6 56.568C1247.99 55.8 1248.47 55.248 1249.04 54.912C1249.62 54.528 1250.15 54.24 1250.63 54.048C1251.16 53.856 1251.54 53.64 1251.78 53.4C1252.98 52.152 1254.2 50.712 1255.45 49.08C1256.75 47.4 1257.85 45.552 1258.76 43.536V42.816C1258.76 40.896 1259.08 39.552 1259.7 38.784C1260.37 37.968 1261.14 37.56 1262 37.56C1262.58 37.56 1262.99 37.704 1263.23 37.992C1263.52 38.28 1263.68 38.616 1263.73 39C1263.73 39.288 1263.66 39.624 1263.52 40.008C1263.42 40.392 1263.37 40.92 1263.37 41.592C1263.37 43.032 1263.71 44.688 1264.38 46.56C1265.1 48.384 1265.8 50.328 1266.47 52.392C1267.19 54.456 1267.55 56.568 1267.55 58.728C1267.55 59.304 1267.52 59.832 1267.48 60.312C1267.43 60.792 1267.36 61.248 1267.26 61.68C1268.75 61.296 1270.21 60.48 1271.65 59.232C1273.09 57.936 1274.46 56.04 1275.76 53.544L1276.62 54.192C1275.71 56.928 1274.39 59.136 1272.66 60.816C1270.93 62.448 1268.92 63.456 1266.61 63.84C1265.84 65.808 1264.57 67.272 1262.8 68.232C1261.07 69.192 1259.1 69.672 1256.89 69.672ZM1261.57 61.536C1261.67 61.2 1261.72 60.816 1261.72 60.384C1261.76 59.904 1261.79 59.544 1261.79 59.304C1261.74 57.144 1261.45 55.008 1260.92 52.896C1260.4 50.784 1259.87 48.624 1259.34 46.416C1258.48 47.904 1257.47 49.512 1256.32 51.24C1255.16 52.968 1254.08 54.36 1253.08 55.416C1253.84 56.712 1254.97 57.936 1256.46 59.088C1257.95 60.24 1259.65 61.056 1261.57 61.536ZM1256.39 66.504C1257.35 66.504 1258.24 66.264 1259.05 65.784C1259.87 65.304 1260.52 64.608 1261 63.696C1259.03 63.264 1257.25 62.496 1255.67 61.392C1254.08 60.288 1252.86 59.16 1252 58.008C1251.32 58.152 1250.99 58.8 1250.99 59.952C1250.99 61.536 1251.44 63.024 1252.36 64.416C1253.27 65.808 1254.61 66.504 1256.39 66.504ZM1277.74 69.384C1276.16 69.384 1274.79 68.856 1273.64 67.8C1272.44 66.744 1271.84 65.16 1271.84 63.048C1271.84 61.368 1272.22 59.544 1272.99 57.576C1273.76 55.608 1274.81 53.664 1276.16 51.744C1277.5 49.824 1279.04 48.096 1280.77 46.56C1282.49 44.976 1284.34 43.704 1286.31 42.744C1288.28 41.784 1290.25 41.304 1292.21 41.304C1294.28 41.304 1296.03 41.832 1297.47 42.888C1298.91 43.944 1299.63 45.336 1299.63 47.064C1299.63 48.36 1299.17 49.296 1298.26 49.872C1297.35 50.448 1296.27 50.616 1295.02 50.376C1295.12 49.944 1295.19 49.512 1295.24 49.08C1295.33 48.648 1295.38 48.192 1295.38 47.712C1295.38 46.752 1295.19 45.888 1294.81 45.12C1294.42 44.352 1293.61 43.968 1292.36 43.968C1291.01 43.968 1289.65 44.424 1288.25 45.336C1286.86 46.248 1285.52 47.448 1284.22 48.936C1282.97 50.376 1281.85 51.984 1280.84 53.76C1279.83 55.488 1279.04 57.192 1278.46 58.872C1277.89 60.552 1277.6 62.064 1277.6 63.408C1277.6 64.944 1278.15 65.712 1279.25 65.712C1280.36 65.712 1281.58 65.184 1282.93 64.128C1284.27 63.024 1285.61 61.656 1286.96 60.024C1288.35 58.392 1289.67 56.736 1290.92 55.056C1292.17 53.328 1293.25 51.864 1294.16 50.664C1294.3 50.424 1294.49 50.304 1294.73 50.304C1294.93 50.352 1295.29 50.472 1295.81 50.664C1296.39 50.808 1296.92 51.048 1297.4 51.384C1297.88 51.72 1298.12 52.152 1298.12 52.68C1298.12 53.304 1297.78 54.168 1297.11 55.272C1296.44 56.328 1295.74 57.48 1295.02 58.728C1294.35 59.976 1294.01 61.128 1294.01 62.184C1294.01 62.808 1294.18 63.408 1294.52 63.984C1294.85 64.512 1295.41 64.776 1296.17 64.776C1297.33 64.776 1298.93 63.936 1301 62.256C1303.11 60.528 1305.25 57.624 1307.41 53.544L1308.77 54.912C1307 58.848 1304.79 62.04 1302.15 64.488C1299.51 66.936 1296.85 68.16 1294.16 68.16C1292.19 68.16 1290.73 67.536 1289.77 66.288C1288.81 65.04 1288.28 63.696 1288.18 62.256V61.896C1286.26 64.2 1284.49 66.024 1282.85 67.368C1281.27 68.712 1279.57 69.384 1277.74 69.384ZM1343.36 68.232C1341.49 68.232 1340.1 67.68 1339.18 66.576C1338.27 65.472 1337.82 64.152 1337.82 62.616C1337.82 61.512 1337.98 60.408 1338.32 59.304C1338.66 58.2 1338.99 57.12 1339.33 56.064C1339.66 54.96 1339.83 53.976 1339.83 53.112C1339.83 52.296 1339.66 51.744 1339.33 51.456C1339.04 51.12 1338.66 50.952 1338.18 50.952C1337.07 50.952 1335.78 51.792 1334.29 53.472C1332.85 55.152 1331.05 57.6 1328.89 60.816C1328.12 61.968 1327.4 63.192 1326.73 64.488C1326.06 65.736 1325.46 66.792 1324.93 67.656C1324.5 67.656 1323.92 67.584 1323.2 67.44C1322.53 67.296 1321.93 67.08 1321.4 66.792C1320.87 66.552 1320.61 66.216 1320.61 65.784C1320.61 65.352 1320.85 64.512 1321.33 63.264C1321.81 62.016 1322.36 60.576 1322.98 58.944C1323.61 57.264 1324.16 55.632 1324.64 54.048C1325.12 52.416 1325.36 51.048 1325.36 49.944C1325.36 48.504 1324.86 47.784 1323.85 47.784C1322.84 47.784 1321.62 48.384 1320.18 49.584C1318.78 50.784 1317.3 52.368 1315.71 54.336C1314.18 56.256 1312.71 58.416 1311.32 60.816C1309.98 63.168 1308.87 65.544 1308.01 67.944C1307.48 67.944 1306.83 67.824 1306.06 67.584C1305.3 67.392 1304.62 67.128 1304.05 66.792C1303.47 66.504 1303.18 66.24 1303.18 66C1303.18 65.952 1303.35 65.28 1303.69 63.984C1304.02 62.64 1304.43 60.984 1304.91 59.016C1305.39 57.048 1305.9 55.032 1306.42 52.968C1306.95 50.904 1307.41 49.104 1307.79 47.568C1307.94 47.04 1308.46 46.584 1309.38 46.2C1310.29 45.768 1311.08 45.552 1311.75 45.552C1312.42 45.552 1313 45.768 1313.48 46.2C1313.96 46.632 1314.2 47.208 1314.2 47.928C1314.2 48.408 1314.1 49.104 1313.91 50.016C1313.72 50.928 1313.48 51.96 1313.19 53.112C1314.54 51.288 1315.98 49.536 1317.51 47.856C1319.1 46.176 1320.7 44.808 1322.34 43.752C1324.02 42.648 1325.65 42.096 1327.23 42.096C1329.01 42.096 1330.21 42.744 1330.83 44.04C1331.46 45.288 1331.77 46.656 1331.77 48.144C1331.77 49.104 1331.65 50.016 1331.41 50.88C1331.22 51.696 1330.93 52.704 1330.54 53.904C1331.94 51.888 1333.5 50.16 1335.22 48.72C1337 47.232 1338.92 46.488 1340.98 46.488C1342.86 46.488 1344.15 47.064 1344.87 48.216C1345.59 49.32 1345.95 50.544 1345.95 51.888C1345.95 53.136 1345.74 54.456 1345.3 55.848C1344.92 57.192 1344.51 58.488 1344.08 59.736C1343.7 60.936 1343.5 61.968 1343.5 62.832C1343.5 63.312 1343.62 63.768 1343.86 64.2C1344.1 64.584 1344.58 64.776 1345.3 64.776C1346.6 64.776 1347.85 64.176 1349.05 62.976C1350.25 61.776 1351.35 60.312 1352.36 58.584C1353.42 56.808 1354.3 55.128 1355.02 53.544L1356.25 55.056C1355.48 57.024 1354.47 59.04 1353.22 61.104C1352.02 63.12 1350.61 64.8 1348.98 66.144C1347.34 67.536 1345.47 68.232 1343.36 68.232ZM1357.27 69.384C1355.68 69.384 1354.31 68.856 1353.16 67.8C1351.96 66.744 1351.36 65.16 1351.36 63.048C1351.36 61.368 1351.75 59.544 1352.51 57.576C1353.28 55.608 1354.34 53.664 1355.68 51.744C1357.03 49.824 1358.56 48.096 1360.29 46.56C1362.02 44.976 1363.87 43.704 1365.83 42.744C1367.8 41.784 1369.77 41.304 1371.74 41.304C1373.8 41.304 1375.55 41.832 1376.99 42.888C1378.43 43.944 1379.15 45.336 1379.15 47.064C1379.15 48.36 1378.7 49.296 1377.79 49.872C1376.87 50.448 1375.79 50.616 1374.55 50.376C1374.64 49.944 1374.71 49.512 1374.76 49.08C1374.86 48.648 1374.91 48.192 1374.91 47.712C1374.91 46.752 1374.71 45.888 1374.33 45.12C1373.95 44.352 1373.13 43.968 1371.88 43.968C1370.54 43.968 1369.17 44.424 1367.78 45.336C1366.39 46.248 1365.04 47.448 1363.75 48.936C1362.5 50.376 1361.37 51.984 1360.36 53.76C1359.35 55.488 1358.56 57.192 1357.99 58.872C1357.41 60.552 1357.12 62.064 1357.12 63.408C1357.12 64.944 1357.67 65.712 1358.78 65.712C1359.88 65.712 1361.11 65.184 1362.45 64.128C1363.79 63.024 1365.14 61.656 1366.48 60.024C1367.87 58.392 1369.19 56.736 1370.44 55.056C1371.69 53.328 1372.77 51.864 1373.68 50.664C1373.83 50.424 1374.02 50.304 1374.26 50.304C1374.45 50.352 1374.81 50.472 1375.34 50.664C1375.91 50.808 1376.44 51.048 1376.92 51.384C1377.4 51.72 1377.64 52.152 1377.64 52.68C1377.64 53.304 1377.31 54.168 1376.63 55.272C1375.96 56.328 1375.27 57.48 1374.55 58.728C1373.87 59.976 1373.54 61.128 1373.54 62.184C1373.54 62.808 1373.71 63.408 1374.04 63.984C1374.38 64.512 1374.93 64.776 1375.7 64.776C1376.85 64.776 1378.46 63.936 1380.52 62.256C1382.63 60.528 1384.77 57.624 1386.93 53.544L1388.3 54.912C1386.52 58.848 1384.31 62.04 1381.67 64.488C1379.03 66.936 1376.37 68.16 1373.68 68.16C1371.71 68.16 1370.25 67.536 1369.29 66.288C1368.33 65.04 1367.8 63.696 1367.71 62.256V61.896C1365.79 64.2 1364.01 66.024 1362.38 67.368C1360.79 68.712 1359.09 69.384 1357.27 69.384ZM1393.51 44.616C1394.56 41.88 1395.67 39.072 1396.82 36.192C1397.97 33.312 1399.12 30.576 1400.27 27.984C1401.43 25.344 1402.55 22.992 1403.66 20.928C1404.76 18.816 1405.82 17.16 1406.83 15.96C1407.88 14.76 1408.87 14.16 1409.78 14.16C1410.31 14.16 1410.76 14.376 1411.15 14.808C1411.58 15.192 1411.79 15.696 1411.79 16.32C1411.79 16.992 1411.39 18.312 1410.57 20.28C1409.8 22.248 1408.77 24.6 1407.47 27.336C1406.18 30.072 1404.74 32.976 1403.15 36.048C1401.57 39.12 1399.99 42.144 1398.4 45.12C1396.82 48.048 1395.33 50.688 1393.94 53.04C1392.55 55.392 1391.39 57.216 1390.48 58.512C1390.34 58.464 1390.19 58.416 1390.05 58.368C1389.91 58.32 1389.76 58.272 1389.62 58.224C1389.67 56.976 1389.88 55.56 1390.27 53.976C1390.7 52.392 1391.2 50.784 1391.78 49.152C1392.4 47.472 1392.98 45.96 1393.51 44.616ZM1388.11 66.72C1387.34 66.72 1386.67 66.528 1386.09 66.144C1385.51 65.76 1385.23 65.136 1385.23 64.272C1385.23 63.36 1385.71 62.568 1386.67 61.896C1387.67 61.224 1388.75 60.888 1389.91 60.888C1390.63 60.888 1391.2 61.056 1391.63 61.392C1392.11 61.728 1392.35 62.304 1392.35 63.12C1392.35 63.936 1391.92 64.752 1391.06 65.568C1390.19 66.336 1389.21 66.72 1388.11 66.72ZM1467.5 73.128C1465.72 73.128 1464.19 72.336 1462.89 70.752C1461.64 69.168 1461.02 67.272 1461.02 65.064C1461.02 64.68 1461.02 64.152 1461.02 63.48C1461.07 62.808 1461.12 62.088 1461.16 61.32C1459.44 64.536 1457.32 67.176 1454.83 69.24C1452.33 71.304 1449.33 72.336 1445.83 72.336C1442.61 72.336 1440.09 71.376 1438.27 69.456C1436.49 67.536 1435.6 64.848 1435.6 61.392C1435.6 58.752 1436.04 55.848 1436.9 52.68C1437.76 49.512 1438.77 46.248 1439.92 42.888C1441.08 39.528 1442.08 36.216 1442.95 32.952C1443.81 29.64 1444.24 26.544 1444.24 23.664C1444.24 19.344 1442.95 17.184 1440.36 17.184C1439.06 17.184 1437.96 17.592 1437.04 18.408C1436.13 19.224 1435.36 20.256 1434.74 21.504C1434.16 22.704 1433.73 23.928 1433.44 25.176C1433.16 26.424 1433.01 27.48 1433.01 28.344C1433.01 29.064 1433.11 29.856 1433.3 30.72C1433.49 31.536 1433.71 32.28 1433.95 32.952C1431.64 32.952 1429.99 32.424 1428.98 31.368C1428.02 30.312 1427.54 28.992 1427.54 27.408C1427.54 25.92 1427.9 24.408 1428.62 22.872C1429.34 21.336 1430.35 19.92 1431.64 18.624C1432.99 17.28 1434.55 16.224 1436.32 15.456C1438.1 14.64 1440.02 14.232 1442.08 14.232C1445.01 14.232 1447.12 15.072 1448.42 16.752C1449.76 18.432 1450.44 20.688 1450.44 23.52C1450.44 25.296 1450.22 27.264 1449.79 29.424C1449.36 31.584 1448.8 33.816 1448.13 36.12C1447.46 38.424 1446.79 40.656 1446.12 42.816C1444.92 46.704 1443.93 50.088 1443.16 52.968C1442.4 55.8 1442.01 58.344 1442.01 60.6C1442.01 62.808 1442.47 64.656 1443.38 66.144C1444.29 67.68 1445.83 68.448 1447.99 68.448C1449.96 68.448 1451.76 67.824 1453.39 66.576C1455.02 65.376 1456.44 63.816 1457.64 61.896C1458.88 59.928 1459.94 57.864 1460.8 55.704C1461.67 53.544 1462.32 51.528 1462.75 49.656C1463.42 46.824 1464.16 43.8 1464.98 40.584C1465.8 37.368 1466.64 34.2 1467.5 31.08C1468.41 27.96 1469.32 25.128 1470.24 22.584C1471.15 20.04 1472.04 18.024 1472.9 16.536C1473.81 15 1474.7 14.232 1475.56 14.232C1476.04 14.232 1476.69 14.496 1477.51 15.024C1478.37 15.504 1479.26 16.176 1480.17 17.04C1479.74 17.376 1479.12 18.384 1478.3 20.064C1477.48 21.744 1476.57 23.904 1475.56 26.544C1474.56 29.184 1473.52 32.088 1472.47 35.256C1471.46 38.424 1470.52 41.688 1469.66 45.048C1468.84 48.36 1468.17 51.552 1467.64 54.624C1467.12 57.696 1466.85 60.432 1466.85 62.832C1466.85 65.808 1467.36 67.776 1468.36 68.736C1469.37 69.696 1471.12 70.176 1473.62 70.176C1473.09 71.088 1472.2 71.808 1470.96 72.336C1469.71 72.864 1468.56 73.128 1467.5 73.128ZM1497.73 68.736C1496.09 68.736 1494.99 68.016 1494.41 66.576C1493.89 65.184 1493.57 63.504 1493.48 61.536C1493.53 60.96 1493.55 60.168 1493.55 59.16C1493.6 58.152 1493.65 57.312 1493.69 56.64C1492.69 58.464 1491.58 60.264 1490.38 62.04C1489.18 63.816 1487.91 65.28 1486.57 66.432C1485.22 67.584 1483.81 68.16 1482.32 68.16C1480.69 68.16 1479.34 67.44 1478.29 66C1477.23 64.512 1476.7 62.736 1476.7 60.672C1476.7 59.28 1476.92 57.672 1477.35 55.848C1477.83 54.024 1478.41 52.248 1479.08 50.52C1479.8 48.792 1480.52 47.352 1481.24 46.2C1482.01 45.048 1482.68 44.472 1483.25 44.472C1483.59 44.472 1484.17 44.664 1484.98 45.048C1485.85 45.432 1486.37 45.936 1486.57 46.56C1486.04 47.328 1485.39 48.504 1484.62 50.088C1483.9 51.672 1483.25 53.376 1482.68 55.2C1482.15 56.976 1481.89 58.608 1481.89 60.096C1481.89 60.384 1481.91 60.888 1481.96 61.608C1482.05 62.28 1482.27 62.904 1482.61 63.48C1482.94 64.056 1483.45 64.344 1484.12 64.344C1485.17 64.344 1486.28 63.696 1487.43 62.4C1488.63 61.104 1489.83 59.472 1491.03 57.504C1492.23 55.536 1493.36 53.52 1494.41 51.456C1494.85 49.392 1495.21 47.904 1495.49 46.992C1495.78 46.08 1496.07 45.504 1496.36 45.264C1496.69 45.024 1497.08 44.904 1497.51 44.904C1499.43 44.904 1500.39 45.6 1500.39 46.992C1500.39 47.04 1500.34 47.256 1500.25 47.64C1500.15 47.976 1500.08 48.192 1500.03 48.288C1499.55 49.776 1499.17 51.72 1498.88 54.12C1498.59 56.472 1498.45 58.872 1498.45 61.32C1498.45 62.472 1498.52 63.384 1498.66 64.056C1498.81 64.68 1499.17 64.992 1499.74 64.992C1500.65 64.992 1501.73 64.296 1502.98 62.904C1504.23 61.512 1505.5 59.76 1506.8 57.648C1508.14 55.536 1509.32 53.4 1510.33 51.24C1510.33 48.744 1510.49 46.848 1510.83 45.552C1511.21 44.256 1511.69 43.368 1512.27 42.888C1512.89 42.36 1513.57 42.096 1514.29 42.096C1515.49 42.096 1516.3 42.48 1516.73 43.248C1517.21 44.016 1517.45 44.664 1517.45 45.192C1517.45 45.672 1517.33 46.128 1517.09 46.56C1516.85 46.944 1516.66 47.304 1516.52 47.64C1516.18 48.36 1515.85 49.224 1515.51 50.232C1515.22 51.24 1515.08 52.512 1515.08 54.048C1515.08 55.296 1515.27 56.496 1515.65 57.648C1516.04 58.8 1516.9 59.376 1518.25 59.376C1519.11 59.376 1519.97 58.992 1520.84 58.224C1521.75 57.456 1522.73 56.016 1523.79 53.904L1525.16 54.984C1524.1 57.48 1522.9 59.208 1521.56 60.168C1520.21 61.08 1518.92 61.536 1517.67 61.536C1516.09 61.536 1514.74 60.96 1513.64 59.808C1512.53 58.656 1511.67 57.24 1511.05 55.56C1509.85 57.624 1508.5 59.688 1507.01 61.752C1505.57 63.768 1504.06 65.424 1502.48 66.72C1500.89 68.064 1499.31 68.736 1497.73 68.736ZM1564.53 73.128C1562.76 73.128 1561.22 72.336 1559.92 70.752C1558.68 69.168 1558.05 67.272 1558.05 65.064C1558.05 64.68 1558.05 64.152 1558.05 63.48C1558.1 62.808 1558.15 62.088 1558.2 61.32C1556.47 64.536 1554.36 67.176 1551.86 69.24C1549.36 71.304 1546.36 72.336 1542.86 72.336C1539.64 72.336 1537.12 71.376 1535.3 69.456C1533.52 67.536 1532.64 64.848 1532.64 61.392C1532.64 58.752 1533.07 55.848 1533.93 52.68C1534.8 49.512 1535.8 46.248 1536.96 42.888C1538.11 39.528 1539.12 36.216 1539.98 32.952C1540.84 29.64 1541.28 26.544 1541.28 23.664C1541.28 19.344 1539.98 17.184 1537.39 17.184C1536.09 17.184 1534.99 17.592 1534.08 18.408C1533.16 19.224 1532.4 20.256 1531.77 21.504C1531.2 22.704 1530.76 23.928 1530.48 25.176C1530.19 26.424 1530.04 27.48 1530.04 28.344C1530.04 29.064 1530.14 29.856 1530.33 30.72C1530.52 31.536 1530.74 32.28 1530.98 32.952C1528.68 32.952 1527.02 32.424 1526.01 31.368C1525.05 30.312 1524.57 28.992 1524.57 27.408C1524.57 25.92 1524.93 24.408 1525.65 22.872C1526.37 21.336 1527.38 19.92 1528.68 18.624C1530.02 17.28 1531.58 16.224 1533.36 15.456C1535.13 14.64 1537.05 14.232 1539.12 14.232C1542.04 14.232 1544.16 15.072 1545.45 16.752C1546.8 18.432 1547.47 20.688 1547.47 23.52C1547.47 25.296 1547.25 27.264 1546.82 29.424C1546.39 31.584 1545.84 33.816 1545.16 36.12C1544.49 38.424 1543.82 40.656 1543.15 42.816C1541.95 46.704 1540.96 50.088 1540.2 52.968C1539.43 55.8 1539.04 58.344 1539.04 60.6C1539.04 62.808 1539.5 64.656 1540.41 66.144C1541.32 67.68 1542.86 68.448 1545.02 68.448C1546.99 68.448 1548.79 67.824 1550.42 66.576C1552.05 65.376 1553.47 63.816 1554.67 61.896C1555.92 59.928 1556.97 57.864 1557.84 55.704C1558.7 53.544 1559.35 51.528 1559.78 49.656C1560.45 46.824 1561.2 43.8 1562.01 40.584C1562.83 37.368 1563.67 34.2 1564.53 31.08C1565.44 27.96 1566.36 25.128 1567.27 22.584C1568.18 20.04 1569.07 18.024 1569.93 16.536C1570.84 15 1571.73 14.232 1572.6 14.232C1573.08 14.232 1573.72 14.496 1574.54 15.024C1575.4 15.504 1576.29 16.176 1577.2 17.04C1576.77 17.376 1576.15 18.384 1575.33 20.064C1574.52 21.744 1573.6 23.904 1572.6 26.544C1571.59 29.184 1570.56 32.088 1569.5 35.256C1568.49 38.424 1567.56 41.688 1566.69 45.048C1565.88 48.36 1565.2 51.552 1564.68 54.624C1564.15 57.696 1563.88 60.432 1563.88 62.832C1563.88 65.808 1564.39 67.776 1565.4 68.736C1566.4 69.696 1568.16 70.176 1570.65 70.176C1570.12 71.088 1569.24 71.808 1567.99 72.336C1566.74 72.864 1565.59 73.128 1564.53 73.128Z" fill="#6272A4"/>
</g>
<defs>
<clipPath id="clip0">
<rect width="1577" height="86" fill="white"/>
</clipPath>
</defs>
</svg>
