<?xml version="1.0" encoding="iso-8859-1"?>
<!-- Generator: Adobe Illustrator 19.0.0, SVG Export Plug-In . SVG Version: 6.00 Build 0)  -->
<svg version="1.1" id="Layer_1" xmlns="http://www.w3.org/2000/svg" xmlns:xlink="http://www.w3.org/1999/xlink" x="0px" y="0px"
	 viewBox="0 0 512 512" style="enable-background:new 0 0 512 512;" xml:space="preserve">
<circle style="fill:#FDDF6D;" cx="256.001" cy="207.412" r="207.412"/>
<path style="fill:#FCC56B;" d="M300.446,384.203c-114.55,0-207.411-92.861-207.411-207.411c0-61.2,26.512-116.201,68.67-154.165
	C94.556,56.96,48.587,126.817,48.587,207.411c0,114.55,92.861,207.411,207.411,207.411c53.35,0,101.99-20.149,138.741-53.245
	C366.45,376.042,334.401,384.203,300.446,384.203z"/>
<g>
	<path style="fill:#FFFFFF;" d="M187.04,193.699c11.319-4.875,23.788-7.586,36.895-7.586c11.132,0,21.806,1.956,31.706,5.531
		c14.791-10.962,24.382-28.542,24.382-48.365c0-33.229-26.938-60.167-60.167-60.167s-60.167,26.938-60.167,60.167
		C159.688,164.398,170.578,182.963,187.04,193.699z"/>
	<path style="fill:#FFFFFF;" d="M354.232,192.664c10.636-4.211,22.217-6.551,34.351-6.551c12.134,0,23.715,2.34,34.351,6.551
		c15.6-10.871,25.816-28.93,25.816-49.386c0-33.229-26.938-60.167-60.167-60.167s-60.167,26.938-60.167,60.167
		C328.415,163.734,338.632,181.793,354.232,192.664z"/>
</g>
<g>
	<path style="fill:#F9A880;" d="M182.616,222.461c-15.403,0-27.891,12.487-27.891,27.891h55.781
		C210.507,234.948,198.019,222.461,182.616,222.461z"/>
	<path style="fill:#F9A880;" d="M410.141,222.461c-15.403,0-27.891,12.487-27.891,27.891h55.781
		C438.03,234.948,425.543,222.461,410.141,222.461z"/>
</g>
<circle style="fill:#7F184C;" cx="229.979" cy="143.274" r="26.022"/>
<circle style="fill:#FFFFFF;" cx="237.37" cy="132.8" r="11.25"/>
<circle style="fill:#7F184C;" cx="398.735" cy="143.274" r="26.022"/>
<circle style="fill:#FFFFFF;" cx="406.126" cy="132.8" r="11.25"/>
<path style="fill:#7F184C;" d="M303.811,350.349L303.811,350.349c-46.367,0-83.956-37.589-83.956-83.956l0,0h167.912l0,0
	C387.768,312.76,350.179,350.349,303.811,350.349z"/>
<path style="fill:#F2F2F2;" d="M240.339,266.393v13.106c0,5.526,4.48,10.005,10.005,10.005h106.932
	c5.526,0,10.005-4.48,10.005-10.005v-13.106H240.339L240.339,266.393z"/>
<path style="fill:#FC4C59;" d="M351.914,485.474L351.914,485.474c-9.973,0-18.058-8.085-18.058-18.058V339.544l-36.116-25.382
	h47.372c13.73,0,24.861,11.13,24.861,24.861v128.393C369.973,477.389,361.888,485.474,351.914,485.474z"/>
<path style="fill:#BC3B4A;" d="M351.914,440.098c-9.973,0-18.058-8.085-18.058-18.058v45.376c0,9.973,8.085,18.058,18.058,18.058
	c9.973,0,18.058-8.085,18.058-18.058V422.04C369.973,432.012,361.888,440.098,351.914,440.098z"/>
<path style="fill:#85E266;" d="M315.798,512L315.798,512c-9.973,0-18.058-8.085-18.058-18.058V339.544l-36.116-25.382h47.372
	c13.73,0,24.861,11.13,24.861,24.861v154.919C333.856,503.914,325.772,512,315.798,512z"/>
<path style="fill:#50C950;" d="M315.798,466.623L315.798,466.623c-9.973,0-18.058-8.085-18.058-18.058v45.376
	c0,9.973,8.085,18.058,18.058,18.058l0,0c9.973,0,18.058-8.085,18.058-18.058v-45.376
	C333.856,458.538,325.772,466.623,315.798,466.623z"/>
<path style="fill:#3FA9F5;" d="M279.682,485.474L279.682,485.474c-9.974,0-18.058-8.085-18.058-18.058V359.434
	c0-12.704-6.331-23.288-15.518-32.061l-11.061-13.211h37.835c13.73,0,24.861,11.13,24.861,24.861v128.393
	C297.74,477.389,289.654,485.474,279.682,485.474z"/>
<path style="fill:#3784F4;" d="M279.682,440.098c-9.974,0-18.058-8.085-18.058-18.058v45.376c0,9.973,8.085,18.058,18.058,18.058
	c9.973,0,18.058-8.085,18.058-18.058V422.04C297.74,432.012,289.654,440.098,279.682,440.098z"/>
<ellipse transform="matrix(0.2723 -0.9622 0.9622 0.2723 156.9373 320.4499)" style="fill:#FCEB88;" cx="290.329" cy="56.468" rx="24.188" ry="43.314"/>
<g>
</g>
<g>
</g>
<g>
</g>
<g>
</g>
<g>
</g>
<g>
</g>
<g>
</g>
<g>
</g>
<g>
</g>
<g>
</g>
<g>
</g>
<g>
</g>
<g>
</g>
<g>
</g>
<g>
</g>
</svg>
