<svg width="37" height="36" viewBox="0 0 37 36" fill="none" xmlns="http://www.w3.org/2000/svg">
<g clip-path="url(#clip0_1449_2)">
<path d="M15.562 17.549C15.6261 17.7908 15.6418 18.0429 15.608 18.2907C15.5743 18.5385 15.4918 18.7773 15.3654 18.9931C15.239 19.2089 15.0711 19.3976 14.8714 19.5483C14.6718 19.699 14.4443 19.8086 14.202 19.871L13.955 19.936C12.929 20.206 11.876 19.606 11.601 18.595L7.88705 4.935C7.41605 3.294 7.74005 1.752 9.16705 1.335L9.61605 1.232C10.641 0.961 11.241 1.656 11.515 2.666L15.562 17.549ZM22.501 18.451C22.309 19.526 21.268 20.245 20.176 20.055L20.089 20.04C18.998 19.851 18.269 18.824 18.462 17.749L21.148 2.739C21.34 1.664 21.861 0.925 22.952 1.114L23.193 1.187C25.963 1.844 24.814 5.524 25.186 3.441L22.501 18.451Z" fill="#EF9645"/>
<path d="M11.849 19.038C11.9734 19.5024 11.9084 19.9971 11.6682 20.4136C11.428 20.83 11.0323 21.1341 10.568 21.259L10.206 21.356C9.97616 21.4177 9.73638 21.4335 9.50039 21.4025C9.26439 21.3715 9.03682 21.2944 8.83066 21.1754C8.6245 21.0565 8.4438 20.898 8.29888 20.7092C8.15396 20.5204 8.04765 20.3049 7.98604 20.075L4.78204 8.121C4.65802 7.65635 4.72347 7.16148 4.96403 6.74505C5.20458 6.32863 5.60057 6.02469 6.06504 5.9L6.42604 5.803C6.89043 5.67835 7.38532 5.74329 7.80184 5.98352C8.21836 6.22376 8.52238 6.61961 8.64704 7.084L11.849 19.038ZM16.403 16.718C16.672 17.718 16.078 18.746 15.078 19.014L14.836 19.079C14.3557 19.2076 13.844 19.1401 13.4135 18.8915C12.9829 18.6428 12.6687 18.2333 12.54 17.753L8.59304 3.022C8.52922 2.78424 8.51287 2.53624 8.54493 2.29216C8.57698 2.04808 8.65681 1.81271 8.77986 1.59949C8.9029 1.38627 9.06675 1.19938 9.26205 1.04951C9.45734 0.899631 9.68025 0.789702 9.91804 0.726L10.16 0.661C11.16 0.393 12.188 0.987 12.457 1.987L16.403 16.718ZM21.397 17.922C21.3107 18.4117 21.0334 18.8471 20.626 19.1323C20.2187 19.4176 19.7148 19.5293 19.225 19.443L18.979 19.399C18.4893 19.3127 18.054 19.0353 17.7687 18.628C17.4835 18.2207 17.3717 17.7167 17.458 17.227L20.106 2.21C20.1924 1.72028 20.4697 1.28492 20.877 0.999674C21.2844 0.714433 21.7883 0.60268 22.278 0.689L22.524 0.732C23.0139 0.818586 23.4493 1.09608 23.7347 1.50353C24.0201 1.91098 24.1321 2.41505 24.046 2.905L21.397 17.922ZM26.299 18.913C26.2592 19.1393 26.1751 19.3556 26.0517 19.5495C25.9283 19.7433 25.7679 19.911 25.5796 20.0428C25.3914 20.1747 25.1791 20.2682 24.9547 20.318C24.7303 20.3677 24.4984 20.3729 24.272 20.333L23.78 20.246C23.5537 20.2061 23.3374 20.1221 23.1436 19.9987C22.9497 19.8752 22.7821 19.7148 22.6502 19.5266C22.5184 19.3384 22.4249 19.126 22.3751 18.9017C22.3253 18.6773 22.3202 18.4453 22.36 18.219L24.879 3.94C24.9595 3.4831 25.2182 3.07687 25.5981 2.81059C25.978 2.54432 26.4481 2.43979 26.905 2.52L27.398 2.607C27.855 2.68772 28.2611 2.9466 28.5272 3.32671C28.7933 3.70682 28.8976 4.17704 28.817 4.634L26.299 18.913ZM29.64 27.359C29.3893 27.7928 28.9766 28.1092 28.4926 28.2388C28.0086 28.3683 27.493 28.3004 27.059 28.05L26.868 27.939C26.6531 27.8151 26.4647 27.6501 26.3136 27.4533C26.1625 27.2565 26.0517 27.0319 25.9876 26.7923C25.9234 26.5527 25.9071 26.3027 25.9396 26.0568C25.9721 25.8108 26.0528 25.5737 26.177 25.359L31.786 15.641C32.0368 15.207 32.4497 14.8903 32.9338 14.7606C33.418 14.6308 33.9338 14.6986 34.368 14.949L34.559 15.06C34.7739 15.1841 34.9622 15.3493 35.1133 15.5461C35.2643 15.743 35.375 15.9677 35.4392 16.2074C35.5034 16.447 35.5197 16.697 35.4872 16.943C35.4548 17.189 35.3742 17.4262 35.25 17.641L29.64 27.359V27.359Z" fill="#FFDC5D"/>
<path d="M6.89604 16.007C7.29604 17.5 6.71304 21.192 6.71304 24C6.71304 26.808 8.83804 36 18.713 36C28.588 36 29.213 27.766 30.713 25.334C32.213 22.902 29.88 18.959 28.713 20.959C27.546 22.959 25.779 22.122 26.38 18.584C26.981 15.046 23.26 13.12 22.744 16.04C22.306 18.517 21.306 17.793 21.89 15.127C22.473 12.46 18.376 11.707 17.713 15.334C17.226 18.001 16.261 16.226 15.862 14.697C15.463 13.168 11.378 13.033 11.911 15.406C12.672 18.793 11.906 19.473 10.797 15.335C10.093 12.71 6.89604 16.007 6.89604 16.007V16.007Z" fill="#FFDC5D"/>
<path d="M27.172 22.015C27.195 22.013 27.218 22.007 27.241 22.004C26.852 21.936 26.528 21.565 26.368 20.898C24.451 21.146 21.782 21.611 19.713 23.634C17.157 26.133 16.721 28.834 16.742 30.641C16.759 32.098 17.554 32.788 17.787 30.629C18.088 27.834 20.135 22.589 27.172 22.015V22.015Z" fill="#EF9645"/>
</g>
<defs>
<clipPath id="clip0_1449_2">
<rect width="36" height="36" fill="white" transform="translate(0.713043)"/>
</clipPath>
</defs>
</svg>
